G04 #@! TF.GenerationSoftware,KiCad,Pcbnew,(5.1.2-1)-1*
G04 #@! TF.CreationDate,2019-07-15T09:01:35+02:00*
G04 #@! TF.ProjectId,SmartParallel,536d6172-7450-4617-9261-6c6c656c2e6b,rev?*
G04 #@! TF.SameCoordinates,Original*
G04 #@! TF.FileFunction,Soldermask,Top*
G04 #@! TF.FilePolarity,Negative*
%FSLAX46Y46*%
G04 Gerber Fmt 4.6, Leading zero omitted, Abs format (unit mm)*
G04 Created by KiCad (PCBNEW (5.1.2-1)-1) date 2019-07-15 09:01:35*
%MOMM*%
%LPD*%
G04 APERTURE LIST*
%ADD10C,0.100000*%
G04 APERTURE END LIST*
D10*
G36*
X213088098Y-96734033D02*
G01*
X213552350Y-96926332D01*
X213552352Y-96926333D01*
X213970168Y-97205509D01*
X214325491Y-97560832D01*
X214604667Y-97978648D01*
X214604668Y-97978650D01*
X214796967Y-98442902D01*
X214895000Y-98935747D01*
X214895000Y-99438253D01*
X214796967Y-99931098D01*
X214604668Y-100395350D01*
X214604667Y-100395352D01*
X214325491Y-100813168D01*
X213970168Y-101168491D01*
X213552352Y-101447667D01*
X213552351Y-101447668D01*
X213552350Y-101447668D01*
X213088098Y-101639967D01*
X212595253Y-101738000D01*
X212092747Y-101738000D01*
X211599902Y-101639967D01*
X211135650Y-101447668D01*
X211135649Y-101447668D01*
X211135648Y-101447667D01*
X210717832Y-101168491D01*
X210362509Y-100813168D01*
X210083333Y-100395352D01*
X210083332Y-100395350D01*
X209891033Y-99931098D01*
X209793000Y-99438253D01*
X209793000Y-98935747D01*
X209891033Y-98442902D01*
X210083332Y-97978650D01*
X210083333Y-97978648D01*
X210362509Y-97560832D01*
X210717832Y-97205509D01*
X211135648Y-96926333D01*
X211135650Y-96926332D01*
X211599902Y-96734033D01*
X212092747Y-96636000D01*
X212595253Y-96636000D01*
X213088098Y-96734033D01*
X213088098Y-96734033D01*
G37*
G36*
X129903098Y-96734033D02*
G01*
X130367350Y-96926332D01*
X130367352Y-96926333D01*
X130785168Y-97205509D01*
X131140491Y-97560832D01*
X131419667Y-97978648D01*
X131419668Y-97978650D01*
X131611967Y-98442902D01*
X131710000Y-98935747D01*
X131710000Y-99438253D01*
X131611967Y-99931098D01*
X131419668Y-100395350D01*
X131419667Y-100395352D01*
X131140491Y-100813168D01*
X130785168Y-101168491D01*
X130367352Y-101447667D01*
X130367351Y-101447668D01*
X130367350Y-101447668D01*
X129903098Y-101639967D01*
X129410253Y-101738000D01*
X128907747Y-101738000D01*
X128414902Y-101639967D01*
X127950650Y-101447668D01*
X127950649Y-101447668D01*
X127950648Y-101447667D01*
X127532832Y-101168491D01*
X127177509Y-100813168D01*
X126898333Y-100395352D01*
X126898332Y-100395350D01*
X126706033Y-99931098D01*
X126608000Y-99438253D01*
X126608000Y-98935747D01*
X126706033Y-98442902D01*
X126898332Y-97978650D01*
X126898333Y-97978648D01*
X127177509Y-97560832D01*
X127532832Y-97205509D01*
X127950648Y-96926333D01*
X127950650Y-96926332D01*
X128414902Y-96734033D01*
X128907747Y-96636000D01*
X129410253Y-96636000D01*
X129903098Y-96734033D01*
X129903098Y-96734033D01*
G37*
G36*
X180860000Y-95931000D02*
G01*
X179058000Y-95931000D01*
X179058000Y-94929000D01*
X180860000Y-94929000D01*
X180860000Y-95931000D01*
X180860000Y-95931000D01*
G37*
G36*
X176288000Y-95931000D02*
G01*
X174486000Y-95931000D01*
X174486000Y-94929000D01*
X176288000Y-94929000D01*
X176288000Y-95931000D01*
X176288000Y-95931000D01*
G37*
G36*
X149491000Y-95931000D02*
G01*
X147689000Y-95931000D01*
X147689000Y-94929000D01*
X149491000Y-94929000D01*
X149491000Y-95931000D01*
X149491000Y-95931000D01*
G37*
G36*
X145046000Y-95931000D02*
G01*
X143244000Y-95931000D01*
X143244000Y-94929000D01*
X145046000Y-94929000D01*
X145046000Y-95931000D01*
X145046000Y-95931000D01*
G37*
G36*
X140601000Y-95931000D02*
G01*
X138799000Y-95931000D01*
X138799000Y-94929000D01*
X140601000Y-94929000D01*
X140601000Y-95931000D01*
X140601000Y-95931000D01*
G37*
G36*
X185305000Y-95931000D02*
G01*
X183503000Y-95931000D01*
X183503000Y-94929000D01*
X185305000Y-94929000D01*
X185305000Y-95931000D01*
X185305000Y-95931000D01*
G37*
G36*
X190004000Y-95931000D02*
G01*
X188202000Y-95931000D01*
X188202000Y-94929000D01*
X190004000Y-94929000D01*
X190004000Y-95931000D01*
X190004000Y-95931000D01*
G37*
G36*
X190004000Y-93031000D02*
G01*
X188202000Y-93031000D01*
X188202000Y-92029000D01*
X190004000Y-92029000D01*
X190004000Y-93031000D01*
X190004000Y-93031000D01*
G37*
G36*
X185305000Y-93031000D02*
G01*
X183503000Y-93031000D01*
X183503000Y-92029000D01*
X185305000Y-92029000D01*
X185305000Y-93031000D01*
X185305000Y-93031000D01*
G37*
G36*
X180860000Y-93031000D02*
G01*
X179058000Y-93031000D01*
X179058000Y-92029000D01*
X180860000Y-92029000D01*
X180860000Y-93031000D01*
X180860000Y-93031000D01*
G37*
G36*
X176288000Y-93031000D02*
G01*
X174486000Y-93031000D01*
X174486000Y-92029000D01*
X176288000Y-92029000D01*
X176288000Y-93031000D01*
X176288000Y-93031000D01*
G37*
G36*
X149491000Y-93031000D02*
G01*
X147689000Y-93031000D01*
X147689000Y-92029000D01*
X149491000Y-92029000D01*
X149491000Y-93031000D01*
X149491000Y-93031000D01*
G37*
G36*
X145046000Y-93031000D02*
G01*
X143244000Y-93031000D01*
X143244000Y-92029000D01*
X145046000Y-92029000D01*
X145046000Y-93031000D01*
X145046000Y-93031000D01*
G37*
G36*
X140601000Y-93031000D02*
G01*
X138799000Y-93031000D01*
X138799000Y-92029000D01*
X140601000Y-92029000D01*
X140601000Y-93031000D01*
X140601000Y-93031000D01*
G37*
G36*
X165152294Y-88760633D02*
G01*
X165324695Y-88812931D01*
X165483583Y-88897858D01*
X165622849Y-89012151D01*
X165737142Y-89151417D01*
X165822069Y-89310305D01*
X165874367Y-89482706D01*
X165892025Y-89662000D01*
X165874367Y-89841294D01*
X165822069Y-90013695D01*
X165737142Y-90172583D01*
X165622849Y-90311849D01*
X165483583Y-90426142D01*
X165324695Y-90511069D01*
X165152294Y-90563367D01*
X165017931Y-90576600D01*
X164928069Y-90576600D01*
X164793706Y-90563367D01*
X164621305Y-90511069D01*
X164462417Y-90426142D01*
X164323151Y-90311849D01*
X164208858Y-90172583D01*
X164123931Y-90013695D01*
X164071633Y-89841294D01*
X164053975Y-89662000D01*
X164071633Y-89482706D01*
X164123931Y-89310305D01*
X164208858Y-89151417D01*
X164323151Y-89012151D01*
X164462417Y-88897858D01*
X164621305Y-88812931D01*
X164793706Y-88760633D01*
X164928069Y-88747400D01*
X165017931Y-88747400D01*
X165152294Y-88760633D01*
X165152294Y-88760633D01*
G37*
G36*
X160072294Y-88760633D02*
G01*
X160244695Y-88812931D01*
X160403583Y-88897858D01*
X160542849Y-89012151D01*
X160657142Y-89151417D01*
X160742069Y-89310305D01*
X160794367Y-89482706D01*
X160812025Y-89662000D01*
X160794367Y-89841294D01*
X160742069Y-90013695D01*
X160657142Y-90172583D01*
X160542849Y-90311849D01*
X160403583Y-90426142D01*
X160244695Y-90511069D01*
X160072294Y-90563367D01*
X159937931Y-90576600D01*
X159848069Y-90576600D01*
X159713706Y-90563367D01*
X159541305Y-90511069D01*
X159382417Y-90426142D01*
X159243151Y-90311849D01*
X159128858Y-90172583D01*
X159043931Y-90013695D01*
X158991633Y-89841294D01*
X158973975Y-89662000D01*
X158991633Y-89482706D01*
X159043931Y-89310305D01*
X159128858Y-89151417D01*
X159243151Y-89012151D01*
X159382417Y-88897858D01*
X159541305Y-88812931D01*
X159713706Y-88760633D01*
X159848069Y-88747400D01*
X159937931Y-88747400D01*
X160072294Y-88760633D01*
X160072294Y-88760633D01*
G37*
G36*
X162612294Y-88760633D02*
G01*
X162784695Y-88812931D01*
X162943583Y-88897858D01*
X163082849Y-89012151D01*
X163197142Y-89151417D01*
X163282069Y-89310305D01*
X163334367Y-89482706D01*
X163352025Y-89662000D01*
X163334367Y-89841294D01*
X163282069Y-90013695D01*
X163197142Y-90172583D01*
X163082849Y-90311849D01*
X162943583Y-90426142D01*
X162784695Y-90511069D01*
X162612294Y-90563367D01*
X162477931Y-90576600D01*
X162388069Y-90576600D01*
X162253706Y-90563367D01*
X162081305Y-90511069D01*
X161922417Y-90426142D01*
X161783151Y-90311849D01*
X161668858Y-90172583D01*
X161583931Y-90013695D01*
X161531633Y-89841294D01*
X161513975Y-89662000D01*
X161531633Y-89482706D01*
X161583931Y-89310305D01*
X161668858Y-89151417D01*
X161783151Y-89012151D01*
X161922417Y-88897858D01*
X162081305Y-88812931D01*
X162253706Y-88760633D01*
X162388069Y-88747400D01*
X162477931Y-88747400D01*
X162612294Y-88760633D01*
X162612294Y-88760633D01*
G37*
G36*
X211512275Y-86357858D02*
G01*
X211644544Y-86384168D01*
X211791991Y-86445243D01*
X212000512Y-86531615D01*
X212000513Y-86531616D01*
X212320877Y-86745676D01*
X212593324Y-87018123D01*
X212662732Y-87122000D01*
X212807385Y-87338488D01*
X212954832Y-87694457D01*
X213020257Y-88023367D01*
X213030000Y-88072351D01*
X213030000Y-88457649D01*
X212954832Y-88835544D01*
X212929020Y-88897859D01*
X212807385Y-89191512D01*
X212807384Y-89191513D01*
X212593324Y-89511877D01*
X212320877Y-89784324D01*
X212235615Y-89841294D01*
X212000512Y-89998385D01*
X211791991Y-90084757D01*
X211644544Y-90145832D01*
X211518579Y-90170888D01*
X211266651Y-90221000D01*
X210881349Y-90221000D01*
X210629421Y-90170888D01*
X210503456Y-90145832D01*
X210356009Y-90084757D01*
X210147488Y-89998385D01*
X209912385Y-89841294D01*
X209827123Y-89784324D01*
X209554676Y-89511877D01*
X209340616Y-89191513D01*
X209340615Y-89191512D01*
X209218980Y-88897859D01*
X209193168Y-88835544D01*
X209118000Y-88457649D01*
X209118000Y-88072351D01*
X209127744Y-88023367D01*
X209193168Y-87694457D01*
X209340615Y-87338488D01*
X209485268Y-87122000D01*
X209554676Y-87018123D01*
X209827123Y-86745676D01*
X210147487Y-86531616D01*
X210147488Y-86531615D01*
X210356009Y-86445243D01*
X210503456Y-86384168D01*
X210635725Y-86357858D01*
X210881349Y-86309000D01*
X211266651Y-86309000D01*
X211512275Y-86357858D01*
X211512275Y-86357858D01*
G37*
G36*
X189927430Y-89922550D02*
G01*
X188024570Y-89922550D01*
X188024570Y-88222890D01*
X189927430Y-88222890D01*
X189927430Y-89922550D01*
X189927430Y-89922550D01*
G37*
G36*
X145096430Y-89899690D02*
G01*
X143193570Y-89899690D01*
X143193570Y-88200030D01*
X145096430Y-88200030D01*
X145096430Y-89899690D01*
X145096430Y-89899690D01*
G37*
G36*
X149541430Y-89899690D02*
G01*
X147638570Y-89899690D01*
X147638570Y-88200030D01*
X149541430Y-88200030D01*
X149541430Y-89899690D01*
X149541430Y-89899690D01*
G37*
G36*
X140651430Y-89899690D02*
G01*
X138748570Y-89899690D01*
X138748570Y-88200030D01*
X140651430Y-88200030D01*
X140651430Y-89899690D01*
X140651430Y-89899690D01*
G37*
G36*
X185355430Y-89899690D02*
G01*
X183452570Y-89899690D01*
X183452570Y-88200030D01*
X185355430Y-88200030D01*
X185355430Y-89899690D01*
X185355430Y-89899690D01*
G37*
G36*
X180910430Y-89899690D02*
G01*
X179007570Y-89899690D01*
X179007570Y-88200030D01*
X180910430Y-88200030D01*
X180910430Y-89899690D01*
X180910430Y-89899690D01*
G37*
G36*
X176338430Y-89899690D02*
G01*
X174435570Y-89899690D01*
X174435570Y-88200030D01*
X176338430Y-88200030D01*
X176338430Y-89899690D01*
X176338430Y-89899690D01*
G37*
G36*
X162612294Y-86220633D02*
G01*
X162784695Y-86272931D01*
X162943583Y-86357858D01*
X163082849Y-86472151D01*
X163197142Y-86611417D01*
X163282069Y-86770305D01*
X163334367Y-86942706D01*
X163352025Y-87122000D01*
X163334367Y-87301294D01*
X163282069Y-87473695D01*
X163197142Y-87632583D01*
X163082849Y-87771849D01*
X162943583Y-87886142D01*
X162784695Y-87971069D01*
X162612294Y-88023367D01*
X162477931Y-88036600D01*
X162388069Y-88036600D01*
X162253706Y-88023367D01*
X162081305Y-87971069D01*
X161922417Y-87886142D01*
X161783151Y-87771849D01*
X161668858Y-87632583D01*
X161583931Y-87473695D01*
X161531633Y-87301294D01*
X161513975Y-87122000D01*
X161531633Y-86942706D01*
X161583931Y-86770305D01*
X161668858Y-86611417D01*
X161783151Y-86472151D01*
X161922417Y-86357858D01*
X162081305Y-86272931D01*
X162253706Y-86220633D01*
X162388069Y-86207400D01*
X162477931Y-86207400D01*
X162612294Y-86220633D01*
X162612294Y-86220633D01*
G37*
G36*
X165887600Y-88036600D02*
G01*
X164058400Y-88036600D01*
X164058400Y-86207400D01*
X165887600Y-86207400D01*
X165887600Y-88036600D01*
X165887600Y-88036600D01*
G37*
G36*
X160072294Y-86220633D02*
G01*
X160244695Y-86272931D01*
X160403583Y-86357858D01*
X160542849Y-86472151D01*
X160657142Y-86611417D01*
X160742069Y-86770305D01*
X160794367Y-86942706D01*
X160812025Y-87122000D01*
X160794367Y-87301294D01*
X160742069Y-87473695D01*
X160657142Y-87632583D01*
X160542849Y-87771849D01*
X160403583Y-87886142D01*
X160244695Y-87971069D01*
X160072294Y-88023367D01*
X159937931Y-88036600D01*
X159848069Y-88036600D01*
X159713706Y-88023367D01*
X159541305Y-87971069D01*
X159382417Y-87886142D01*
X159243151Y-87771849D01*
X159128858Y-87632583D01*
X159043931Y-87473695D01*
X158991633Y-87301294D01*
X158973975Y-87122000D01*
X158991633Y-86942706D01*
X159043931Y-86770305D01*
X159128858Y-86611417D01*
X159243151Y-86472151D01*
X159382417Y-86357858D01*
X159541305Y-86272931D01*
X159713706Y-86220633D01*
X159848069Y-86207400D01*
X159937931Y-86207400D01*
X160072294Y-86220633D01*
X160072294Y-86220633D01*
G37*
G36*
X189927430Y-87082830D02*
G01*
X188024570Y-87082830D01*
X188024570Y-85383170D01*
X189927430Y-85383170D01*
X189927430Y-87082830D01*
X189927430Y-87082830D01*
G37*
G36*
X176338430Y-87059970D02*
G01*
X174435570Y-87059970D01*
X174435570Y-85360310D01*
X176338430Y-85360310D01*
X176338430Y-87059970D01*
X176338430Y-87059970D01*
G37*
G36*
X145096430Y-87059970D02*
G01*
X143193570Y-87059970D01*
X143193570Y-85360310D01*
X145096430Y-85360310D01*
X145096430Y-87059970D01*
X145096430Y-87059970D01*
G37*
G36*
X149541430Y-87059970D02*
G01*
X147638570Y-87059970D01*
X147638570Y-85360310D01*
X149541430Y-85360310D01*
X149541430Y-87059970D01*
X149541430Y-87059970D01*
G37*
G36*
X140651430Y-87059970D02*
G01*
X138748570Y-87059970D01*
X138748570Y-85360310D01*
X140651430Y-85360310D01*
X140651430Y-87059970D01*
X140651430Y-87059970D01*
G37*
G36*
X185355430Y-87059970D02*
G01*
X183452570Y-87059970D01*
X183452570Y-85360310D01*
X185355430Y-85360310D01*
X185355430Y-87059970D01*
X185355430Y-87059970D01*
G37*
G36*
X180910430Y-87059970D02*
G01*
X179007570Y-87059970D01*
X179007570Y-85360310D01*
X180910430Y-85360310D01*
X180910430Y-87059970D01*
X180910430Y-87059970D01*
G37*
G36*
X208771142Y-80625242D02*
G01*
X208919101Y-80686529D01*
X209052255Y-80775499D01*
X209165501Y-80888745D01*
X209254471Y-81021899D01*
X209315758Y-81169858D01*
X209347000Y-81326925D01*
X209347000Y-81487075D01*
X209315758Y-81644142D01*
X209254471Y-81792101D01*
X209165501Y-81925255D01*
X209052255Y-82038501D01*
X208919101Y-82127471D01*
X208771142Y-82188758D01*
X208614075Y-82220000D01*
X208453925Y-82220000D01*
X208296858Y-82188758D01*
X208148899Y-82127471D01*
X208015745Y-82038501D01*
X207902499Y-81925255D01*
X207813529Y-81792101D01*
X207752242Y-81644142D01*
X207721000Y-81487075D01*
X207721000Y-81326925D01*
X207752242Y-81169858D01*
X207813529Y-81021899D01*
X207902499Y-80888745D01*
X208015745Y-80775499D01*
X208148899Y-80686529D01*
X208296858Y-80625242D01*
X208453925Y-80594000D01*
X208614075Y-80594000D01*
X208771142Y-80625242D01*
X208771142Y-80625242D01*
G37*
G36*
X211311142Y-79228242D02*
G01*
X211459101Y-79289529D01*
X211592255Y-79378499D01*
X211705501Y-79491745D01*
X211794471Y-79624899D01*
X211855758Y-79772858D01*
X211887000Y-79929925D01*
X211887000Y-80090075D01*
X211855758Y-80247142D01*
X211794471Y-80395101D01*
X211705501Y-80528255D01*
X211592255Y-80641501D01*
X211459101Y-80730471D01*
X211311142Y-80791758D01*
X211154075Y-80823000D01*
X210993925Y-80823000D01*
X210836858Y-80791758D01*
X210688899Y-80730471D01*
X210555745Y-80641501D01*
X210442499Y-80528255D01*
X210353529Y-80395101D01*
X210292242Y-80247142D01*
X210261000Y-80090075D01*
X210261000Y-79929925D01*
X210292242Y-79772858D01*
X210353529Y-79624899D01*
X210442499Y-79491745D01*
X210555745Y-79378499D01*
X210688899Y-79289529D01*
X210836858Y-79228242D01*
X210993925Y-79197000D01*
X211154075Y-79197000D01*
X211311142Y-79228242D01*
X211311142Y-79228242D01*
G37*
G36*
X185509000Y-80537000D02*
G01*
X183807000Y-80537000D01*
X183807000Y-79435000D01*
X185509000Y-79435000D01*
X185509000Y-80537000D01*
X185509000Y-80537000D01*
G37*
G36*
X139746000Y-80403000D02*
G01*
X138744000Y-80403000D01*
X138744000Y-78601000D01*
X139746000Y-78601000D01*
X139746000Y-80403000D01*
X139746000Y-80403000D01*
G37*
G36*
X136846000Y-80403000D02*
G01*
X135844000Y-80403000D01*
X135844000Y-78601000D01*
X136846000Y-78601000D01*
X136846000Y-80403000D01*
X136846000Y-80403000D01*
G37*
G36*
X176881000Y-80336000D02*
G01*
X176179000Y-80336000D01*
X176179000Y-78734000D01*
X176881000Y-78734000D01*
X176881000Y-80336000D01*
X176881000Y-80336000D01*
G37*
G36*
X179421000Y-80336000D02*
G01*
X178719000Y-80336000D01*
X178719000Y-78734000D01*
X179421000Y-78734000D01*
X179421000Y-80336000D01*
X179421000Y-80336000D01*
G37*
G36*
X181961000Y-80336000D02*
G01*
X181259000Y-80336000D01*
X181259000Y-78734000D01*
X181961000Y-78734000D01*
X181961000Y-80336000D01*
X181961000Y-80336000D01*
G37*
G36*
X178151000Y-80336000D02*
G01*
X177449000Y-80336000D01*
X177449000Y-78734000D01*
X178151000Y-78734000D01*
X178151000Y-80336000D01*
X178151000Y-80336000D01*
G37*
G36*
X175611000Y-80336000D02*
G01*
X174909000Y-80336000D01*
X174909000Y-78734000D01*
X175611000Y-78734000D01*
X175611000Y-80336000D01*
X175611000Y-80336000D01*
G37*
G36*
X174341000Y-80336000D02*
G01*
X173639000Y-80336000D01*
X173639000Y-78734000D01*
X174341000Y-78734000D01*
X174341000Y-80336000D01*
X174341000Y-80336000D01*
G37*
G36*
X180691000Y-80336000D02*
G01*
X179989000Y-80336000D01*
X179989000Y-78734000D01*
X180691000Y-78734000D01*
X180691000Y-80336000D01*
X180691000Y-80336000D01*
G37*
G36*
X208771142Y-77831242D02*
G01*
X208919101Y-77892529D01*
X209052255Y-77981499D01*
X209165501Y-78094745D01*
X209254471Y-78227899D01*
X209315758Y-78375858D01*
X209347000Y-78532925D01*
X209347000Y-78693075D01*
X209315758Y-78850142D01*
X209254471Y-78998101D01*
X209165501Y-79131255D01*
X209052255Y-79244501D01*
X208919101Y-79333471D01*
X208771142Y-79394758D01*
X208614075Y-79426000D01*
X208453925Y-79426000D01*
X208296858Y-79394758D01*
X208148899Y-79333471D01*
X208015745Y-79244501D01*
X207902499Y-79131255D01*
X207813529Y-78998101D01*
X207752242Y-78850142D01*
X207721000Y-78693075D01*
X207721000Y-78532925D01*
X207752242Y-78375858D01*
X207813529Y-78227899D01*
X207902499Y-78094745D01*
X208015745Y-77981499D01*
X208148899Y-77892529D01*
X208296858Y-77831242D01*
X208453925Y-77800000D01*
X208614075Y-77800000D01*
X208771142Y-77831242D01*
X208771142Y-77831242D01*
G37*
G36*
X211311142Y-76434242D02*
G01*
X211459101Y-76495529D01*
X211592255Y-76584499D01*
X211705501Y-76697745D01*
X211794471Y-76830899D01*
X211855758Y-76978858D01*
X211887000Y-77135925D01*
X211887000Y-77296075D01*
X211855758Y-77453142D01*
X211794471Y-77601101D01*
X211705501Y-77734255D01*
X211592255Y-77847501D01*
X211459101Y-77936471D01*
X211311142Y-77997758D01*
X211154075Y-78029000D01*
X210993925Y-78029000D01*
X210836858Y-77997758D01*
X210688899Y-77936471D01*
X210555745Y-77847501D01*
X210442499Y-77734255D01*
X210353529Y-77601101D01*
X210292242Y-77453142D01*
X210261000Y-77296075D01*
X210261000Y-77135925D01*
X210292242Y-76978858D01*
X210353529Y-76830899D01*
X210442499Y-76697745D01*
X210555745Y-76584499D01*
X210688899Y-76495529D01*
X210836858Y-76434242D01*
X210993925Y-76403000D01*
X211154075Y-76403000D01*
X211311142Y-76434242D01*
X211311142Y-76434242D01*
G37*
G36*
X185509000Y-77537000D02*
G01*
X183807000Y-77537000D01*
X183807000Y-76435000D01*
X185509000Y-76435000D01*
X185509000Y-77537000D01*
X185509000Y-77537000D01*
G37*
G36*
X145339000Y-76759000D02*
G01*
X143205000Y-76759000D01*
X143205000Y-74625000D01*
X145339000Y-74625000D01*
X145339000Y-76759000D01*
X145339000Y-76759000D01*
G37*
G36*
X128194000Y-76759000D02*
G01*
X126060000Y-76759000D01*
X126060000Y-74625000D01*
X128194000Y-74625000D01*
X128194000Y-76759000D01*
X128194000Y-76759000D01*
G37*
G36*
X140143430Y-76691690D02*
G01*
X138240570Y-76691690D01*
X138240570Y-74992030D01*
X140143430Y-74992030D01*
X140143430Y-76691690D01*
X140143430Y-76691690D01*
G37*
G36*
X208771142Y-75037242D02*
G01*
X208919101Y-75098529D01*
X209052255Y-75187499D01*
X209165501Y-75300745D01*
X209254471Y-75433899D01*
X209315758Y-75581858D01*
X209347000Y-75738925D01*
X209347000Y-75899075D01*
X209315758Y-76056142D01*
X209254471Y-76204101D01*
X209165501Y-76337255D01*
X209052255Y-76450501D01*
X208919101Y-76539471D01*
X208771142Y-76600758D01*
X208614075Y-76632000D01*
X208453925Y-76632000D01*
X208296858Y-76600758D01*
X208148899Y-76539471D01*
X208015745Y-76450501D01*
X207902499Y-76337255D01*
X207813529Y-76204101D01*
X207752242Y-76056142D01*
X207721000Y-75899075D01*
X207721000Y-75738925D01*
X207752242Y-75581858D01*
X207813529Y-75433899D01*
X207902499Y-75300745D01*
X208015745Y-75187499D01*
X208148899Y-75098529D01*
X208296858Y-75037242D01*
X208453925Y-75006000D01*
X208614075Y-75006000D01*
X208771142Y-75037242D01*
X208771142Y-75037242D01*
G37*
G36*
X136233000Y-76473000D02*
G01*
X134531000Y-76473000D01*
X134531000Y-75371000D01*
X136233000Y-75371000D01*
X136233000Y-76473000D01*
X136233000Y-76473000D01*
G37*
G36*
X132423000Y-76473000D02*
G01*
X130721000Y-76473000D01*
X130721000Y-75371000D01*
X132423000Y-75371000D01*
X132423000Y-76473000D01*
X132423000Y-76473000D01*
G37*
G36*
X211311142Y-73691042D02*
G01*
X211459101Y-73752329D01*
X211592255Y-73841299D01*
X211705501Y-73954545D01*
X211794471Y-74087699D01*
X211855758Y-74235658D01*
X211887000Y-74392725D01*
X211887000Y-74552875D01*
X211855758Y-74709942D01*
X211794471Y-74857901D01*
X211705501Y-74991055D01*
X211592255Y-75104301D01*
X211459101Y-75193271D01*
X211311142Y-75254558D01*
X211154075Y-75285800D01*
X210993925Y-75285800D01*
X210836858Y-75254558D01*
X210688899Y-75193271D01*
X210555745Y-75104301D01*
X210442499Y-74991055D01*
X210353529Y-74857901D01*
X210292242Y-74709942D01*
X210261000Y-74552875D01*
X210261000Y-74392725D01*
X210292242Y-74235658D01*
X210353529Y-74087699D01*
X210442499Y-73954545D01*
X210555745Y-73841299D01*
X210688899Y-73752329D01*
X210836858Y-73691042D01*
X210993925Y-73659800D01*
X211154075Y-73659800D01*
X211311142Y-73691042D01*
X211311142Y-73691042D01*
G37*
G36*
X178151000Y-74936000D02*
G01*
X177449000Y-74936000D01*
X177449000Y-73334000D01*
X178151000Y-73334000D01*
X178151000Y-74936000D01*
X178151000Y-74936000D01*
G37*
G36*
X181961000Y-74936000D02*
G01*
X181259000Y-74936000D01*
X181259000Y-73334000D01*
X181961000Y-73334000D01*
X181961000Y-74936000D01*
X181961000Y-74936000D01*
G37*
G36*
X180691000Y-74936000D02*
G01*
X179989000Y-74936000D01*
X179989000Y-73334000D01*
X180691000Y-73334000D01*
X180691000Y-74936000D01*
X180691000Y-74936000D01*
G37*
G36*
X179421000Y-74936000D02*
G01*
X178719000Y-74936000D01*
X178719000Y-73334000D01*
X179421000Y-73334000D01*
X179421000Y-74936000D01*
X179421000Y-74936000D01*
G37*
G36*
X176881000Y-74936000D02*
G01*
X176179000Y-74936000D01*
X176179000Y-73334000D01*
X176881000Y-73334000D01*
X176881000Y-74936000D01*
X176881000Y-74936000D01*
G37*
G36*
X175611000Y-74936000D02*
G01*
X174909000Y-74936000D01*
X174909000Y-73334000D01*
X175611000Y-73334000D01*
X175611000Y-74936000D01*
X175611000Y-74936000D01*
G37*
G36*
X174341000Y-74936000D02*
G01*
X173639000Y-74936000D01*
X173639000Y-73334000D01*
X174341000Y-73334000D01*
X174341000Y-74936000D01*
X174341000Y-74936000D01*
G37*
G36*
X127242114Y-72091176D02*
G01*
X127336168Y-72100439D01*
X127537299Y-72161451D01*
X127623110Y-72207318D01*
X127722661Y-72260529D01*
X127885133Y-72393867D01*
X128018471Y-72556339D01*
X128038280Y-72593400D01*
X128117549Y-72741701D01*
X128178561Y-72942832D01*
X128199162Y-73152000D01*
X128178561Y-73361168D01*
X128117549Y-73562299D01*
X128071682Y-73648110D01*
X128018471Y-73747661D01*
X127885133Y-73910133D01*
X127722661Y-74043471D01*
X127623110Y-74096682D01*
X127537299Y-74142549D01*
X127336168Y-74203561D01*
X127242114Y-74212824D01*
X127179413Y-74219000D01*
X127074587Y-74219000D01*
X127011886Y-74212824D01*
X126917832Y-74203561D01*
X126716701Y-74142549D01*
X126630890Y-74096682D01*
X126531339Y-74043471D01*
X126368867Y-73910133D01*
X126235529Y-73747661D01*
X126182318Y-73648110D01*
X126136451Y-73562299D01*
X126075439Y-73361168D01*
X126054838Y-73152000D01*
X126075439Y-72942832D01*
X126136451Y-72741701D01*
X126215720Y-72593400D01*
X126235529Y-72556339D01*
X126368867Y-72393867D01*
X126531339Y-72260529D01*
X126630890Y-72207318D01*
X126716701Y-72161451D01*
X126917832Y-72100439D01*
X127011886Y-72091176D01*
X127074587Y-72085000D01*
X127179413Y-72085000D01*
X127242114Y-72091176D01*
X127242114Y-72091176D01*
G37*
G36*
X144387114Y-72091176D02*
G01*
X144481168Y-72100439D01*
X144682299Y-72161451D01*
X144768110Y-72207318D01*
X144867661Y-72260529D01*
X145030133Y-72393867D01*
X145163471Y-72556339D01*
X145183280Y-72593400D01*
X145262549Y-72741701D01*
X145323561Y-72942832D01*
X145344162Y-73152000D01*
X145323561Y-73361168D01*
X145262549Y-73562299D01*
X145216682Y-73648110D01*
X145163471Y-73747661D01*
X145030133Y-73910133D01*
X144867661Y-74043471D01*
X144768110Y-74096682D01*
X144682299Y-74142549D01*
X144481168Y-74203561D01*
X144387114Y-74212824D01*
X144324413Y-74219000D01*
X144219587Y-74219000D01*
X144156886Y-74212824D01*
X144062832Y-74203561D01*
X143861701Y-74142549D01*
X143775890Y-74096682D01*
X143676339Y-74043471D01*
X143513867Y-73910133D01*
X143380529Y-73747661D01*
X143327318Y-73648110D01*
X143281451Y-73562299D01*
X143220439Y-73361168D01*
X143199838Y-73152000D01*
X143220439Y-72942832D01*
X143281451Y-72741701D01*
X143360720Y-72593400D01*
X143380529Y-72556339D01*
X143513867Y-72393867D01*
X143676339Y-72260529D01*
X143775890Y-72207318D01*
X143861701Y-72161451D01*
X144062832Y-72100439D01*
X144156886Y-72091176D01*
X144219587Y-72085000D01*
X144324413Y-72085000D01*
X144387114Y-72091176D01*
X144387114Y-72091176D01*
G37*
G36*
X208771142Y-72370242D02*
G01*
X208919101Y-72431529D01*
X209052255Y-72520499D01*
X209165501Y-72633745D01*
X209254471Y-72766899D01*
X209315758Y-72914858D01*
X209347000Y-73071925D01*
X209347000Y-73232075D01*
X209315758Y-73389142D01*
X209254471Y-73537101D01*
X209165501Y-73670255D01*
X209052255Y-73783501D01*
X208919101Y-73872471D01*
X208771142Y-73933758D01*
X208614075Y-73965000D01*
X208453925Y-73965000D01*
X208296858Y-73933758D01*
X208148899Y-73872471D01*
X208015745Y-73783501D01*
X207902499Y-73670255D01*
X207813529Y-73537101D01*
X207752242Y-73389142D01*
X207721000Y-73232075D01*
X207721000Y-73071925D01*
X207752242Y-72914858D01*
X207813529Y-72766899D01*
X207902499Y-72633745D01*
X208015745Y-72520499D01*
X208148899Y-72431529D01*
X208296858Y-72370242D01*
X208453925Y-72339000D01*
X208614075Y-72339000D01*
X208771142Y-72370242D01*
X208771142Y-72370242D01*
G37*
G36*
X140143430Y-73851970D02*
G01*
X138240570Y-73851970D01*
X138240570Y-72152310D01*
X140143430Y-72152310D01*
X140143430Y-73851970D01*
X140143430Y-73851970D01*
G37*
G36*
X132423000Y-73473000D02*
G01*
X130721000Y-73473000D01*
X130721000Y-72371000D01*
X132423000Y-72371000D01*
X132423000Y-73473000D01*
X132423000Y-73473000D01*
G37*
G36*
X136233000Y-73473000D02*
G01*
X134531000Y-73473000D01*
X134531000Y-72371000D01*
X136233000Y-72371000D01*
X136233000Y-73473000D01*
X136233000Y-73473000D01*
G37*
G36*
X211311142Y-70998642D02*
G01*
X211459101Y-71059929D01*
X211592255Y-71148899D01*
X211705501Y-71262145D01*
X211794471Y-71395299D01*
X211855758Y-71543258D01*
X211887000Y-71700325D01*
X211887000Y-71860475D01*
X211855758Y-72017542D01*
X211794471Y-72165501D01*
X211705501Y-72298655D01*
X211592255Y-72411901D01*
X211459101Y-72500871D01*
X211311142Y-72562158D01*
X211154075Y-72593400D01*
X210993925Y-72593400D01*
X210836858Y-72562158D01*
X210688899Y-72500871D01*
X210555745Y-72411901D01*
X210442499Y-72298655D01*
X210353529Y-72165501D01*
X210292242Y-72017542D01*
X210261000Y-71860475D01*
X210261000Y-71700325D01*
X210292242Y-71543258D01*
X210353529Y-71395299D01*
X210442499Y-71262145D01*
X210555745Y-71148899D01*
X210688899Y-71059929D01*
X210836858Y-70998642D01*
X210993925Y-70967400D01*
X211154075Y-70967400D01*
X211311142Y-70998642D01*
X211311142Y-70998642D01*
G37*
G36*
X208771142Y-69576242D02*
G01*
X208919101Y-69637529D01*
X209052255Y-69726499D01*
X209165501Y-69839745D01*
X209254471Y-69972899D01*
X209315758Y-70120858D01*
X209347000Y-70277925D01*
X209347000Y-70438075D01*
X209315758Y-70595142D01*
X209254471Y-70743101D01*
X209165501Y-70876255D01*
X209052255Y-70989501D01*
X208919101Y-71078471D01*
X208771142Y-71139758D01*
X208614075Y-71171000D01*
X208453925Y-71171000D01*
X208296858Y-71139758D01*
X208148899Y-71078471D01*
X208015745Y-70989501D01*
X207902499Y-70876255D01*
X207813529Y-70743101D01*
X207752242Y-70595142D01*
X207721000Y-70438075D01*
X207721000Y-70277925D01*
X207752242Y-70120858D01*
X207813529Y-69972899D01*
X207902499Y-69839745D01*
X208015745Y-69726499D01*
X208148899Y-69637529D01*
X208296858Y-69576242D01*
X208453925Y-69545000D01*
X208614075Y-69545000D01*
X208771142Y-69576242D01*
X208771142Y-69576242D01*
G37*
G36*
X211311142Y-68153842D02*
G01*
X211459101Y-68215129D01*
X211592255Y-68304099D01*
X211705501Y-68417345D01*
X211794471Y-68550499D01*
X211855758Y-68698458D01*
X211887000Y-68855525D01*
X211887000Y-69015675D01*
X211855758Y-69172742D01*
X211794471Y-69320701D01*
X211705501Y-69453855D01*
X211592255Y-69567101D01*
X211459101Y-69656071D01*
X211311142Y-69717358D01*
X211154075Y-69748600D01*
X210993925Y-69748600D01*
X210836858Y-69717358D01*
X210688899Y-69656071D01*
X210555745Y-69567101D01*
X210442499Y-69453855D01*
X210353529Y-69320701D01*
X210292242Y-69172742D01*
X210261000Y-69015675D01*
X210261000Y-68855525D01*
X210292242Y-68698458D01*
X210353529Y-68550499D01*
X210442499Y-68417345D01*
X210555745Y-68304099D01*
X210688899Y-68215129D01*
X210836858Y-68153842D01*
X210993925Y-68122600D01*
X211154075Y-68122600D01*
X211311142Y-68153842D01*
X211311142Y-68153842D01*
G37*
G36*
X208771142Y-66782242D02*
G01*
X208919101Y-66843529D01*
X209052255Y-66932499D01*
X209165501Y-67045745D01*
X209254471Y-67178899D01*
X209315758Y-67326858D01*
X209347000Y-67483925D01*
X209347000Y-67644075D01*
X209315758Y-67801142D01*
X209254471Y-67949101D01*
X209165501Y-68082255D01*
X209052255Y-68195501D01*
X208919101Y-68284471D01*
X208771142Y-68345758D01*
X208614075Y-68377000D01*
X208453925Y-68377000D01*
X208296858Y-68345758D01*
X208148899Y-68284471D01*
X208015745Y-68195501D01*
X207902499Y-68082255D01*
X207813529Y-67949101D01*
X207752242Y-67801142D01*
X207721000Y-67644075D01*
X207721000Y-67483925D01*
X207752242Y-67326858D01*
X207813529Y-67178899D01*
X207902499Y-67045745D01*
X208015745Y-66932499D01*
X208148899Y-66843529D01*
X208296858Y-66782242D01*
X208453925Y-66751000D01*
X208614075Y-66751000D01*
X208771142Y-66782242D01*
X208771142Y-66782242D01*
G37*
G36*
X142602000Y-67928000D02*
G01*
X140100000Y-67928000D01*
X140100000Y-65626000D01*
X142602000Y-65626000D01*
X142602000Y-67928000D01*
X142602000Y-67928000D01*
G37*
G36*
X136163000Y-67653000D02*
G01*
X135061000Y-67653000D01*
X135061000Y-65951000D01*
X136163000Y-65951000D01*
X136163000Y-67653000D01*
X136163000Y-67653000D01*
G37*
G36*
X133163000Y-67653000D02*
G01*
X132061000Y-67653000D01*
X132061000Y-65951000D01*
X133163000Y-65951000D01*
X133163000Y-67653000D01*
X133163000Y-67653000D01*
G37*
G36*
X211311142Y-65410642D02*
G01*
X211459101Y-65471929D01*
X211592255Y-65560899D01*
X211705501Y-65674145D01*
X211794471Y-65807299D01*
X211855758Y-65955258D01*
X211887000Y-66112325D01*
X211887000Y-66272475D01*
X211855758Y-66429542D01*
X211794471Y-66577501D01*
X211705501Y-66710655D01*
X211592255Y-66823901D01*
X211459101Y-66912871D01*
X211311142Y-66974158D01*
X211154075Y-67005400D01*
X210993925Y-67005400D01*
X210836858Y-66974158D01*
X210688899Y-66912871D01*
X210555745Y-66823901D01*
X210442499Y-66710655D01*
X210353529Y-66577501D01*
X210292242Y-66429542D01*
X210261000Y-66272475D01*
X210261000Y-66112325D01*
X210292242Y-65955258D01*
X210353529Y-65807299D01*
X210442499Y-65674145D01*
X210555745Y-65560899D01*
X210688899Y-65471929D01*
X210836858Y-65410642D01*
X210993925Y-65379400D01*
X211154075Y-65379400D01*
X211311142Y-65410642D01*
X211311142Y-65410642D01*
G37*
G36*
X195782500Y-66276500D02*
G01*
X193980500Y-66276500D01*
X193980500Y-65274500D01*
X195782500Y-65274500D01*
X195782500Y-66276500D01*
X195782500Y-66276500D01*
G37*
G36*
X161368000Y-66188000D02*
G01*
X155116000Y-66188000D01*
X155116000Y-64486000D01*
X161368000Y-64486000D01*
X161368000Y-66188000D01*
X161368000Y-66188000D01*
G37*
G36*
X208771142Y-63988242D02*
G01*
X208919101Y-64049529D01*
X209052255Y-64138499D01*
X209165501Y-64251745D01*
X209254471Y-64384899D01*
X209315758Y-64532858D01*
X209347000Y-64689925D01*
X209347000Y-64850075D01*
X209315758Y-65007142D01*
X209254471Y-65155101D01*
X209165501Y-65288255D01*
X209052255Y-65401501D01*
X208919101Y-65490471D01*
X208771142Y-65551758D01*
X208614075Y-65583000D01*
X208453925Y-65583000D01*
X208296858Y-65551758D01*
X208148899Y-65490471D01*
X208015745Y-65401501D01*
X207902499Y-65288255D01*
X207813529Y-65155101D01*
X207752242Y-65007142D01*
X207721000Y-64850075D01*
X207721000Y-64689925D01*
X207752242Y-64532858D01*
X207813529Y-64384899D01*
X207902499Y-64251745D01*
X208015745Y-64138499D01*
X208148899Y-64049529D01*
X208296858Y-63988242D01*
X208453925Y-63957000D01*
X208614075Y-63957000D01*
X208771142Y-63988242D01*
X208771142Y-63988242D01*
G37*
G36*
X211311142Y-62667442D02*
G01*
X211459101Y-62728729D01*
X211592255Y-62817699D01*
X211705501Y-62930945D01*
X211794471Y-63064099D01*
X211855758Y-63212058D01*
X211887000Y-63369125D01*
X211887000Y-63529275D01*
X211855758Y-63686342D01*
X211794471Y-63834301D01*
X211705501Y-63967455D01*
X211592255Y-64080701D01*
X211459101Y-64169671D01*
X211311142Y-64230958D01*
X211154075Y-64262200D01*
X210993925Y-64262200D01*
X210836858Y-64230958D01*
X210688899Y-64169671D01*
X210555745Y-64080701D01*
X210442499Y-63967455D01*
X210353529Y-63834301D01*
X210292242Y-63686342D01*
X210261000Y-63529275D01*
X210261000Y-63369125D01*
X210292242Y-63212058D01*
X210353529Y-63064099D01*
X210442499Y-62930945D01*
X210555745Y-62817699D01*
X210688899Y-62728729D01*
X210836858Y-62667442D01*
X210993925Y-62636200D01*
X211154075Y-62636200D01*
X211311142Y-62667442D01*
X211311142Y-62667442D01*
G37*
G36*
X154843000Y-64213000D02*
G01*
X153141000Y-64213000D01*
X153141000Y-57961000D01*
X154843000Y-57961000D01*
X154843000Y-64213000D01*
X154843000Y-64213000D01*
G37*
G36*
X163343000Y-64213000D02*
G01*
X161641000Y-64213000D01*
X161641000Y-57961000D01*
X163343000Y-57961000D01*
X163343000Y-64213000D01*
X163343000Y-64213000D01*
G37*
G36*
X184374000Y-63892000D02*
G01*
X183672000Y-63892000D01*
X183672000Y-61840000D01*
X184374000Y-61840000D01*
X184374000Y-63892000D01*
X184374000Y-63892000D01*
G37*
G36*
X176754000Y-63892000D02*
G01*
X176052000Y-63892000D01*
X176052000Y-61840000D01*
X176754000Y-61840000D01*
X176754000Y-63892000D01*
X176754000Y-63892000D01*
G37*
G36*
X183104000Y-63892000D02*
G01*
X182402000Y-63892000D01*
X182402000Y-61840000D01*
X183104000Y-61840000D01*
X183104000Y-63892000D01*
X183104000Y-63892000D01*
G37*
G36*
X181834000Y-63892000D02*
G01*
X181132000Y-63892000D01*
X181132000Y-61840000D01*
X181834000Y-61840000D01*
X181834000Y-63892000D01*
X181834000Y-63892000D01*
G37*
G36*
X180564000Y-63892000D02*
G01*
X179862000Y-63892000D01*
X179862000Y-61840000D01*
X180564000Y-61840000D01*
X180564000Y-63892000D01*
X180564000Y-63892000D01*
G37*
G36*
X179294000Y-63892000D02*
G01*
X178592000Y-63892000D01*
X178592000Y-61840000D01*
X179294000Y-61840000D01*
X179294000Y-63892000D01*
X179294000Y-63892000D01*
G37*
G36*
X178024000Y-63892000D02*
G01*
X177322000Y-63892000D01*
X177322000Y-61840000D01*
X178024000Y-61840000D01*
X178024000Y-63892000D01*
X178024000Y-63892000D01*
G37*
G36*
X175484000Y-63892000D02*
G01*
X174782000Y-63892000D01*
X174782000Y-61840000D01*
X175484000Y-61840000D01*
X175484000Y-63892000D01*
X175484000Y-63892000D01*
G37*
G36*
X174214000Y-63892000D02*
G01*
X173512000Y-63892000D01*
X173512000Y-61840000D01*
X174214000Y-61840000D01*
X174214000Y-63892000D01*
X174214000Y-63892000D01*
G37*
G36*
X172944000Y-63892000D02*
G01*
X172242000Y-63892000D01*
X172242000Y-61840000D01*
X172944000Y-61840000D01*
X172944000Y-63892000D01*
X172944000Y-63892000D01*
G37*
G36*
X199711000Y-63589000D02*
G01*
X198609000Y-63589000D01*
X198609000Y-61887000D01*
X199711000Y-61887000D01*
X199711000Y-63589000D01*
X199711000Y-63589000D01*
G37*
G36*
X202711000Y-63589000D02*
G01*
X201609000Y-63589000D01*
X201609000Y-61887000D01*
X202711000Y-61887000D01*
X202711000Y-63589000D01*
X202711000Y-63589000D01*
G37*
G36*
X188049000Y-63392000D02*
G01*
X186347000Y-63392000D01*
X186347000Y-62290000D01*
X188049000Y-62290000D01*
X188049000Y-63392000D01*
X188049000Y-63392000D01*
G37*
G36*
X195782500Y-63376500D02*
G01*
X193980500Y-63376500D01*
X193980500Y-62374500D01*
X195782500Y-62374500D01*
X195782500Y-63376500D01*
X195782500Y-63376500D01*
G37*
G36*
X208771142Y-61321242D02*
G01*
X208919101Y-61382529D01*
X209052255Y-61471499D01*
X209165501Y-61584745D01*
X209254471Y-61717899D01*
X209315758Y-61865858D01*
X209347000Y-62022925D01*
X209347000Y-62183075D01*
X209315758Y-62340142D01*
X209254471Y-62488101D01*
X209165501Y-62621255D01*
X209052255Y-62734501D01*
X208919101Y-62823471D01*
X208771142Y-62884758D01*
X208614075Y-62916000D01*
X208453925Y-62916000D01*
X208296858Y-62884758D01*
X208148899Y-62823471D01*
X208015745Y-62734501D01*
X207902499Y-62621255D01*
X207813529Y-62488101D01*
X207752242Y-62340142D01*
X207721000Y-62183075D01*
X207721000Y-62022925D01*
X207752242Y-61865858D01*
X207813529Y-61717899D01*
X207902499Y-61584745D01*
X208015745Y-61471499D01*
X208148899Y-61382529D01*
X208296858Y-61321242D01*
X208453925Y-61290000D01*
X208614075Y-61290000D01*
X208771142Y-61321242D01*
X208771142Y-61321242D01*
G37*
G36*
X142602000Y-61628000D02*
G01*
X140100000Y-61628000D01*
X140100000Y-59326000D01*
X142602000Y-59326000D01*
X142602000Y-61628000D01*
X142602000Y-61628000D01*
G37*
G36*
X149371000Y-61557000D02*
G01*
X148269000Y-61557000D01*
X148269000Y-59855000D01*
X149371000Y-59855000D01*
X149371000Y-61557000D01*
X149371000Y-61557000D01*
G37*
G36*
X146371000Y-61557000D02*
G01*
X145269000Y-61557000D01*
X145269000Y-59855000D01*
X146371000Y-59855000D01*
X146371000Y-61557000D01*
X146371000Y-61557000D01*
G37*
G36*
X211311142Y-59873442D02*
G01*
X211459101Y-59934729D01*
X211592255Y-60023699D01*
X211705501Y-60136945D01*
X211794471Y-60270099D01*
X211855758Y-60418058D01*
X211887000Y-60575125D01*
X211887000Y-60735275D01*
X211855758Y-60892342D01*
X211794471Y-61040301D01*
X211705501Y-61173455D01*
X211592255Y-61286701D01*
X211459101Y-61375671D01*
X211311142Y-61436958D01*
X211154075Y-61468200D01*
X210993925Y-61468200D01*
X210836858Y-61436958D01*
X210688899Y-61375671D01*
X210555745Y-61286701D01*
X210442499Y-61173455D01*
X210353529Y-61040301D01*
X210292242Y-60892342D01*
X210261000Y-60735275D01*
X210261000Y-60575125D01*
X210292242Y-60418058D01*
X210353529Y-60270099D01*
X210442499Y-60136945D01*
X210555745Y-60023699D01*
X210688899Y-59934729D01*
X210836858Y-59873442D01*
X210993925Y-59842200D01*
X211154075Y-59842200D01*
X211311142Y-59873442D01*
X211311142Y-59873442D01*
G37*
G36*
X136163000Y-61303000D02*
G01*
X135061000Y-61303000D01*
X135061000Y-59601000D01*
X136163000Y-59601000D01*
X136163000Y-61303000D01*
X136163000Y-61303000D01*
G37*
G36*
X133163000Y-61303000D02*
G01*
X132061000Y-61303000D01*
X132061000Y-59601000D01*
X133163000Y-59601000D01*
X133163000Y-61303000D01*
X133163000Y-61303000D01*
G37*
G36*
X188049000Y-60392000D02*
G01*
X186347000Y-60392000D01*
X186347000Y-59290000D01*
X188049000Y-59290000D01*
X188049000Y-60392000D01*
X188049000Y-60392000D01*
G37*
G36*
X208771142Y-58527242D02*
G01*
X208919101Y-58588529D01*
X209052255Y-58677499D01*
X209165501Y-58790745D01*
X209254471Y-58923899D01*
X209315758Y-59071858D01*
X209347000Y-59228925D01*
X209347000Y-59389075D01*
X209315758Y-59546142D01*
X209254471Y-59694101D01*
X209165501Y-59827255D01*
X209052255Y-59940501D01*
X208919101Y-60029471D01*
X208771142Y-60090758D01*
X208614075Y-60122000D01*
X208453925Y-60122000D01*
X208296858Y-60090758D01*
X208148899Y-60029471D01*
X208015745Y-59940501D01*
X207902499Y-59827255D01*
X207813529Y-59694101D01*
X207752242Y-59546142D01*
X207721000Y-59389075D01*
X207721000Y-59228925D01*
X207752242Y-59071858D01*
X207813529Y-58923899D01*
X207902499Y-58790745D01*
X208015745Y-58677499D01*
X208148899Y-58588529D01*
X208296858Y-58527242D01*
X208453925Y-58496000D01*
X208614075Y-58496000D01*
X208771142Y-58527242D01*
X208771142Y-58527242D01*
G37*
G36*
X195296000Y-59889000D02*
G01*
X194594000Y-59889000D01*
X194594000Y-58287000D01*
X195296000Y-58287000D01*
X195296000Y-59889000D01*
X195296000Y-59889000D01*
G37*
G36*
X196566000Y-59889000D02*
G01*
X195864000Y-59889000D01*
X195864000Y-58287000D01*
X196566000Y-58287000D01*
X196566000Y-59889000D01*
X196566000Y-59889000D01*
G37*
G36*
X197836000Y-59889000D02*
G01*
X197134000Y-59889000D01*
X197134000Y-58287000D01*
X197836000Y-58287000D01*
X197836000Y-59889000D01*
X197836000Y-59889000D01*
G37*
G36*
X199106000Y-59889000D02*
G01*
X198404000Y-59889000D01*
X198404000Y-58287000D01*
X199106000Y-58287000D01*
X199106000Y-59889000D01*
X199106000Y-59889000D01*
G37*
G36*
X201646000Y-59889000D02*
G01*
X200944000Y-59889000D01*
X200944000Y-58287000D01*
X201646000Y-58287000D01*
X201646000Y-59889000D01*
X201646000Y-59889000D01*
G37*
G36*
X200376000Y-59889000D02*
G01*
X199674000Y-59889000D01*
X199674000Y-58287000D01*
X200376000Y-58287000D01*
X200376000Y-59889000D01*
X200376000Y-59889000D01*
G37*
G36*
X194026000Y-59889000D02*
G01*
X193324000Y-59889000D01*
X193324000Y-58287000D01*
X194026000Y-58287000D01*
X194026000Y-59889000D01*
X194026000Y-59889000D01*
G37*
G36*
X192756000Y-59889000D02*
G01*
X192054000Y-59889000D01*
X192054000Y-58287000D01*
X192756000Y-58287000D01*
X192756000Y-59889000D01*
X192756000Y-59889000D01*
G37*
G36*
X211311142Y-57130242D02*
G01*
X211459101Y-57191529D01*
X211592255Y-57280499D01*
X211705501Y-57393745D01*
X211794471Y-57526899D01*
X211855758Y-57674858D01*
X211887000Y-57831925D01*
X211887000Y-57992075D01*
X211855758Y-58149142D01*
X211794471Y-58297101D01*
X211705501Y-58430255D01*
X211592255Y-58543501D01*
X211459101Y-58632471D01*
X211311142Y-58693758D01*
X211154075Y-58725000D01*
X210993925Y-58725000D01*
X210836858Y-58693758D01*
X210688899Y-58632471D01*
X210555745Y-58543501D01*
X210442499Y-58430255D01*
X210353529Y-58297101D01*
X210292242Y-58149142D01*
X210261000Y-57992075D01*
X210261000Y-57831925D01*
X210292242Y-57674858D01*
X210353529Y-57526899D01*
X210442499Y-57393745D01*
X210555745Y-57280499D01*
X210688899Y-57191529D01*
X210836858Y-57130242D01*
X210993925Y-57099000D01*
X211154075Y-57099000D01*
X211311142Y-57130242D01*
X211311142Y-57130242D01*
G37*
G36*
X161368000Y-57688000D02*
G01*
X155116000Y-57688000D01*
X155116000Y-55986000D01*
X161368000Y-55986000D01*
X161368000Y-57688000D01*
X161368000Y-57688000D01*
G37*
G36*
X208771142Y-55733242D02*
G01*
X208919101Y-55794529D01*
X209052255Y-55883499D01*
X209165501Y-55996745D01*
X209254471Y-56129899D01*
X209315758Y-56277858D01*
X209347000Y-56434925D01*
X209347000Y-56595075D01*
X209315758Y-56752142D01*
X209254471Y-56900101D01*
X209165501Y-57033255D01*
X209052255Y-57146501D01*
X208919101Y-57235471D01*
X208771142Y-57296758D01*
X208614075Y-57328000D01*
X208453925Y-57328000D01*
X208296858Y-57296758D01*
X208148899Y-57235471D01*
X208015745Y-57146501D01*
X207902499Y-57033255D01*
X207813529Y-56900101D01*
X207752242Y-56752142D01*
X207721000Y-56595075D01*
X207721000Y-56434925D01*
X207752242Y-56277858D01*
X207813529Y-56129899D01*
X207902499Y-55996745D01*
X208015745Y-55883499D01*
X208148899Y-55794529D01*
X208296858Y-55733242D01*
X208453925Y-55702000D01*
X208614075Y-55702000D01*
X208771142Y-55733242D01*
X208771142Y-55733242D01*
G37*
G36*
X128194000Y-56540600D02*
G01*
X126060000Y-56540600D01*
X126060000Y-54711400D01*
X128194000Y-54711400D01*
X128194000Y-56540600D01*
X128194000Y-56540600D01*
G37*
G36*
X211311142Y-54387042D02*
G01*
X211459101Y-54448329D01*
X211592255Y-54537299D01*
X211705501Y-54650545D01*
X211794471Y-54783699D01*
X211855758Y-54931658D01*
X211887000Y-55088725D01*
X211887000Y-55248875D01*
X211855758Y-55405942D01*
X211794471Y-55553901D01*
X211705501Y-55687055D01*
X211592255Y-55800301D01*
X211459101Y-55889271D01*
X211311142Y-55950558D01*
X211154075Y-55981800D01*
X210993925Y-55981800D01*
X210836858Y-55950558D01*
X210688899Y-55889271D01*
X210555745Y-55800301D01*
X210442499Y-55687055D01*
X210353529Y-55553901D01*
X210292242Y-55405942D01*
X210261000Y-55248875D01*
X210261000Y-55088725D01*
X210292242Y-54931658D01*
X210353529Y-54783699D01*
X210442499Y-54650545D01*
X210555745Y-54537299D01*
X210688899Y-54448329D01*
X210836858Y-54387042D01*
X210993925Y-54355800D01*
X211154075Y-54355800D01*
X211311142Y-54387042D01*
X211311142Y-54387042D01*
G37*
G36*
X208771142Y-52939242D02*
G01*
X208919101Y-53000529D01*
X209052255Y-53089499D01*
X209165501Y-53202745D01*
X209254471Y-53335899D01*
X209315758Y-53483858D01*
X209347000Y-53640925D01*
X209347000Y-53801075D01*
X209315758Y-53958142D01*
X209254471Y-54106101D01*
X209165501Y-54239255D01*
X209052255Y-54352501D01*
X208919101Y-54441471D01*
X208771142Y-54502758D01*
X208614075Y-54534000D01*
X208453925Y-54534000D01*
X208296858Y-54502758D01*
X208148899Y-54441471D01*
X208015745Y-54352501D01*
X207902499Y-54239255D01*
X207813529Y-54106101D01*
X207752242Y-53958142D01*
X207721000Y-53801075D01*
X207721000Y-53640925D01*
X207752242Y-53483858D01*
X207813529Y-53335899D01*
X207902499Y-53202745D01*
X208015745Y-53089499D01*
X208148899Y-53000529D01*
X208296858Y-52939242D01*
X208453925Y-52908000D01*
X208614075Y-52908000D01*
X208771142Y-52939242D01*
X208771142Y-52939242D01*
G37*
G36*
X174214000Y-54492000D02*
G01*
X173512000Y-54492000D01*
X173512000Y-52440000D01*
X174214000Y-52440000D01*
X174214000Y-54492000D01*
X174214000Y-54492000D01*
G37*
G36*
X176754000Y-54492000D02*
G01*
X176052000Y-54492000D01*
X176052000Y-52440000D01*
X176754000Y-52440000D01*
X176754000Y-54492000D01*
X176754000Y-54492000D01*
G37*
G36*
X172944000Y-54492000D02*
G01*
X172242000Y-54492000D01*
X172242000Y-52440000D01*
X172944000Y-52440000D01*
X172944000Y-54492000D01*
X172944000Y-54492000D01*
G37*
G36*
X175484000Y-54492000D02*
G01*
X174782000Y-54492000D01*
X174782000Y-52440000D01*
X175484000Y-52440000D01*
X175484000Y-54492000D01*
X175484000Y-54492000D01*
G37*
G36*
X178024000Y-54492000D02*
G01*
X177322000Y-54492000D01*
X177322000Y-52440000D01*
X178024000Y-52440000D01*
X178024000Y-54492000D01*
X178024000Y-54492000D01*
G37*
G36*
X179294000Y-54492000D02*
G01*
X178592000Y-54492000D01*
X178592000Y-52440000D01*
X179294000Y-52440000D01*
X179294000Y-54492000D01*
X179294000Y-54492000D01*
G37*
G36*
X180564000Y-54492000D02*
G01*
X179862000Y-54492000D01*
X179862000Y-52440000D01*
X180564000Y-52440000D01*
X180564000Y-54492000D01*
X180564000Y-54492000D01*
G37*
G36*
X181834000Y-54492000D02*
G01*
X181132000Y-54492000D01*
X181132000Y-52440000D01*
X181834000Y-52440000D01*
X181834000Y-54492000D01*
X181834000Y-54492000D01*
G37*
G36*
X183104000Y-54492000D02*
G01*
X182402000Y-54492000D01*
X182402000Y-52440000D01*
X183104000Y-52440000D01*
X183104000Y-54492000D01*
X183104000Y-54492000D01*
G37*
G36*
X184374000Y-54492000D02*
G01*
X183672000Y-54492000D01*
X183672000Y-52440000D01*
X184374000Y-52440000D01*
X184374000Y-54492000D01*
X184374000Y-54492000D01*
G37*
G36*
X192756000Y-54489000D02*
G01*
X192054000Y-54489000D01*
X192054000Y-52887000D01*
X192756000Y-52887000D01*
X192756000Y-54489000D01*
X192756000Y-54489000D01*
G37*
G36*
X194026000Y-54489000D02*
G01*
X193324000Y-54489000D01*
X193324000Y-52887000D01*
X194026000Y-52887000D01*
X194026000Y-54489000D01*
X194026000Y-54489000D01*
G37*
G36*
X195296000Y-54489000D02*
G01*
X194594000Y-54489000D01*
X194594000Y-52887000D01*
X195296000Y-52887000D01*
X195296000Y-54489000D01*
X195296000Y-54489000D01*
G37*
G36*
X201646000Y-54489000D02*
G01*
X200944000Y-54489000D01*
X200944000Y-52887000D01*
X201646000Y-52887000D01*
X201646000Y-54489000D01*
X201646000Y-54489000D01*
G37*
G36*
X196566000Y-54489000D02*
G01*
X195864000Y-54489000D01*
X195864000Y-52887000D01*
X196566000Y-52887000D01*
X196566000Y-54489000D01*
X196566000Y-54489000D01*
G37*
G36*
X199106000Y-54489000D02*
G01*
X198404000Y-54489000D01*
X198404000Y-52887000D01*
X199106000Y-52887000D01*
X199106000Y-54489000D01*
X199106000Y-54489000D01*
G37*
G36*
X200376000Y-54489000D02*
G01*
X199674000Y-54489000D01*
X199674000Y-52887000D01*
X200376000Y-52887000D01*
X200376000Y-54489000D01*
X200376000Y-54489000D01*
G37*
G36*
X197836000Y-54489000D02*
G01*
X197134000Y-54489000D01*
X197134000Y-52887000D01*
X197836000Y-52887000D01*
X197836000Y-54489000D01*
X197836000Y-54489000D01*
G37*
G36*
X127458694Y-52184633D02*
G01*
X127631095Y-52236931D01*
X127789983Y-52321858D01*
X127929249Y-52436151D01*
X128043542Y-52575417D01*
X128128469Y-52734305D01*
X128180767Y-52906706D01*
X128198425Y-53086000D01*
X128180767Y-53265294D01*
X128128469Y-53437695D01*
X128043542Y-53596583D01*
X127929249Y-53735849D01*
X127789983Y-53850142D01*
X127631095Y-53935069D01*
X127458694Y-53987367D01*
X127324331Y-54000600D01*
X126929669Y-54000600D01*
X126795306Y-53987367D01*
X126622905Y-53935069D01*
X126464017Y-53850142D01*
X126324751Y-53735849D01*
X126210458Y-53596583D01*
X126125531Y-53437695D01*
X126073233Y-53265294D01*
X126055575Y-53086000D01*
X126073233Y-52906706D01*
X126125531Y-52734305D01*
X126210458Y-52575417D01*
X126324751Y-52436151D01*
X126464017Y-52321858D01*
X126622905Y-52236931D01*
X126795306Y-52184633D01*
X126929669Y-52171400D01*
X127324331Y-52171400D01*
X127458694Y-52184633D01*
X127458694Y-52184633D01*
G37*
G36*
X211311142Y-51593042D02*
G01*
X211459101Y-51654329D01*
X211592255Y-51743299D01*
X211705501Y-51856545D01*
X211794471Y-51989699D01*
X211855758Y-52137658D01*
X211887000Y-52294725D01*
X211887000Y-52454875D01*
X211855758Y-52611942D01*
X211794471Y-52759901D01*
X211705501Y-52893055D01*
X211592255Y-53006301D01*
X211459101Y-53095271D01*
X211311142Y-53156558D01*
X211154075Y-53187800D01*
X210993925Y-53187800D01*
X210836858Y-53156558D01*
X210688899Y-53095271D01*
X210555745Y-53006301D01*
X210442499Y-52893055D01*
X210353529Y-52759901D01*
X210292242Y-52611942D01*
X210261000Y-52454875D01*
X210261000Y-52294725D01*
X210292242Y-52137658D01*
X210353529Y-51989699D01*
X210442499Y-51856545D01*
X210555745Y-51743299D01*
X210688899Y-51654329D01*
X210836858Y-51593042D01*
X210993925Y-51561800D01*
X211154075Y-51561800D01*
X211311142Y-51593042D01*
X211311142Y-51593042D01*
G37*
G36*
X208771142Y-50272242D02*
G01*
X208919101Y-50333529D01*
X209052255Y-50422499D01*
X209165501Y-50535745D01*
X209254471Y-50668899D01*
X209315758Y-50816858D01*
X209347000Y-50973925D01*
X209347000Y-51134075D01*
X209315758Y-51291142D01*
X209254471Y-51439101D01*
X209165501Y-51572255D01*
X209052255Y-51685501D01*
X208919101Y-51774471D01*
X208771142Y-51835758D01*
X208614075Y-51867000D01*
X208453925Y-51867000D01*
X208296858Y-51835758D01*
X208148899Y-51774471D01*
X208015745Y-51685501D01*
X207902499Y-51572255D01*
X207813529Y-51439101D01*
X207752242Y-51291142D01*
X207721000Y-51134075D01*
X207721000Y-50973925D01*
X207752242Y-50816858D01*
X207813529Y-50668899D01*
X207902499Y-50535745D01*
X208015745Y-50422499D01*
X208148899Y-50333529D01*
X208296858Y-50272242D01*
X208453925Y-50241000D01*
X208614075Y-50241000D01*
X208771142Y-50272242D01*
X208771142Y-50272242D01*
G37*
G36*
X127458694Y-49644633D02*
G01*
X127631095Y-49696931D01*
X127789983Y-49781858D01*
X127929249Y-49896151D01*
X128043542Y-50035417D01*
X128128469Y-50194305D01*
X128180767Y-50366706D01*
X128198425Y-50546000D01*
X128180767Y-50725294D01*
X128128469Y-50897695D01*
X128043542Y-51056583D01*
X127929249Y-51195849D01*
X127789983Y-51310142D01*
X127631095Y-51395069D01*
X127458694Y-51447367D01*
X127324331Y-51460600D01*
X126929669Y-51460600D01*
X126795306Y-51447367D01*
X126622905Y-51395069D01*
X126464017Y-51310142D01*
X126324751Y-51195849D01*
X126210458Y-51056583D01*
X126125531Y-50897695D01*
X126073233Y-50725294D01*
X126055575Y-50546000D01*
X126073233Y-50366706D01*
X126125531Y-50194305D01*
X126210458Y-50035417D01*
X126324751Y-49896151D01*
X126464017Y-49781858D01*
X126622905Y-49696931D01*
X126795306Y-49644633D01*
X126929669Y-49631400D01*
X127324331Y-49631400D01*
X127458694Y-49644633D01*
X127458694Y-49644633D01*
G37*
G36*
X211311142Y-49053042D02*
G01*
X211459101Y-49114329D01*
X211592255Y-49203299D01*
X211705501Y-49316545D01*
X211794471Y-49449699D01*
X211855758Y-49597658D01*
X211887000Y-49754725D01*
X211887000Y-49914875D01*
X211855758Y-50071942D01*
X211794471Y-50219901D01*
X211705501Y-50353055D01*
X211592255Y-50466301D01*
X211459101Y-50555271D01*
X211311142Y-50616558D01*
X211154075Y-50647800D01*
X210993925Y-50647800D01*
X210836858Y-50616558D01*
X210688899Y-50555271D01*
X210555745Y-50466301D01*
X210442499Y-50353055D01*
X210353529Y-50219901D01*
X210292242Y-50071942D01*
X210261000Y-49914875D01*
X210261000Y-49754725D01*
X210292242Y-49597658D01*
X210353529Y-49449699D01*
X210442499Y-49316545D01*
X210555745Y-49203299D01*
X210688899Y-49114329D01*
X210836858Y-49053042D01*
X210993925Y-49021800D01*
X211154075Y-49021800D01*
X211311142Y-49053042D01*
X211311142Y-49053042D01*
G37*
G36*
X209347000Y-49073000D02*
G01*
X207721000Y-49073000D01*
X207721000Y-47447000D01*
X209347000Y-47447000D01*
X209347000Y-49073000D01*
X209347000Y-49073000D01*
G37*
G36*
X127458694Y-47104633D02*
G01*
X127631095Y-47156931D01*
X127789983Y-47241858D01*
X127929249Y-47356151D01*
X128043542Y-47495417D01*
X128128469Y-47654305D01*
X128180767Y-47826706D01*
X128198425Y-48006000D01*
X128180767Y-48185294D01*
X128128469Y-48357695D01*
X128043542Y-48516583D01*
X127929249Y-48655849D01*
X127789983Y-48770142D01*
X127631095Y-48855069D01*
X127458694Y-48907367D01*
X127324331Y-48920600D01*
X126929669Y-48920600D01*
X126795306Y-48907367D01*
X126622905Y-48855069D01*
X126464017Y-48770142D01*
X126324751Y-48655849D01*
X126210458Y-48516583D01*
X126125531Y-48357695D01*
X126073233Y-48185294D01*
X126055575Y-48006000D01*
X126073233Y-47826706D01*
X126125531Y-47654305D01*
X126210458Y-47495417D01*
X126324751Y-47356151D01*
X126464017Y-47241858D01*
X126622905Y-47156931D01*
X126795306Y-47104633D01*
X126929669Y-47091400D01*
X127324331Y-47091400D01*
X127458694Y-47104633D01*
X127458694Y-47104633D01*
G37*
G36*
X127458694Y-44564633D02*
G01*
X127631095Y-44616931D01*
X127789983Y-44701858D01*
X127929249Y-44816151D01*
X128043542Y-44955417D01*
X128128469Y-45114305D01*
X128180767Y-45286706D01*
X128198425Y-45466000D01*
X128180767Y-45645294D01*
X128128469Y-45817695D01*
X128043542Y-45976583D01*
X127929249Y-46115849D01*
X127789983Y-46230142D01*
X127631095Y-46315069D01*
X127458694Y-46367367D01*
X127324331Y-46380600D01*
X126929669Y-46380600D01*
X126795306Y-46367367D01*
X126622905Y-46315069D01*
X126464017Y-46230142D01*
X126324751Y-46115849D01*
X126210458Y-45976583D01*
X126125531Y-45817695D01*
X126073233Y-45645294D01*
X126055575Y-45466000D01*
X126073233Y-45286706D01*
X126125531Y-45114305D01*
X126210458Y-44955417D01*
X126324751Y-44816151D01*
X126464017Y-44701858D01*
X126622905Y-44616931D01*
X126795306Y-44564633D01*
X126929669Y-44551400D01*
X127324331Y-44551400D01*
X127458694Y-44564633D01*
X127458694Y-44564633D01*
G37*
G36*
X193115500Y-46020000D02*
G01*
X191313500Y-46020000D01*
X191313500Y-45018000D01*
X193115500Y-45018000D01*
X193115500Y-46020000D01*
X193115500Y-46020000D01*
G37*
G36*
X189750000Y-46020000D02*
G01*
X187948000Y-46020000D01*
X187948000Y-45018000D01*
X189750000Y-45018000D01*
X189750000Y-46020000D01*
X189750000Y-46020000D01*
G37*
G36*
X186511500Y-45956500D02*
G01*
X184709500Y-45956500D01*
X184709500Y-44954500D01*
X186511500Y-44954500D01*
X186511500Y-45956500D01*
X186511500Y-45956500D01*
G37*
G36*
X183019000Y-45893000D02*
G01*
X181217000Y-45893000D01*
X181217000Y-44891000D01*
X183019000Y-44891000D01*
X183019000Y-45893000D01*
X183019000Y-45893000D01*
G37*
G36*
X179463000Y-45893000D02*
G01*
X177661000Y-45893000D01*
X177661000Y-44891000D01*
X179463000Y-44891000D01*
X179463000Y-45893000D01*
X179463000Y-45893000D01*
G37*
G36*
X176034000Y-45893000D02*
G01*
X174232000Y-45893000D01*
X174232000Y-44891000D01*
X176034000Y-44891000D01*
X176034000Y-45893000D01*
X176034000Y-45893000D01*
G37*
G36*
X172605000Y-45893000D02*
G01*
X170803000Y-45893000D01*
X170803000Y-44891000D01*
X172605000Y-44891000D01*
X172605000Y-45893000D01*
X172605000Y-45893000D01*
G37*
G36*
X150293564Y-43693389D02*
G01*
X150484833Y-43772615D01*
X150484835Y-43772616D01*
X150586580Y-43840600D01*
X150656973Y-43887635D01*
X150803365Y-44034027D01*
X150918385Y-44206167D01*
X150997611Y-44397436D01*
X151038000Y-44600484D01*
X151038000Y-44807516D01*
X150997611Y-45010564D01*
X150954640Y-45114305D01*
X150918384Y-45201835D01*
X150803365Y-45373973D01*
X150656973Y-45520365D01*
X150484835Y-45635384D01*
X150484834Y-45635385D01*
X150484833Y-45635385D01*
X150293564Y-45714611D01*
X150090516Y-45755000D01*
X149883484Y-45755000D01*
X149680436Y-45714611D01*
X149489167Y-45635385D01*
X149489166Y-45635385D01*
X149489165Y-45635384D01*
X149317027Y-45520365D01*
X149170635Y-45373973D01*
X149055616Y-45201835D01*
X149019360Y-45114305D01*
X148976389Y-45010564D01*
X148936000Y-44807516D01*
X148936000Y-44600484D01*
X148976389Y-44397436D01*
X149055615Y-44206167D01*
X149170635Y-44034027D01*
X149317027Y-43887635D01*
X149387420Y-43840600D01*
X149489165Y-43772616D01*
X149489167Y-43772615D01*
X149680436Y-43693389D01*
X149883484Y-43653000D01*
X150090516Y-43653000D01*
X150293564Y-43693389D01*
X150293564Y-43693389D01*
G37*
G36*
X143793564Y-43693389D02*
G01*
X143984833Y-43772615D01*
X143984835Y-43772616D01*
X144086580Y-43840600D01*
X144156973Y-43887635D01*
X144303365Y-44034027D01*
X144418385Y-44206167D01*
X144497611Y-44397436D01*
X144538000Y-44600484D01*
X144538000Y-44807516D01*
X144497611Y-45010564D01*
X144454640Y-45114305D01*
X144418384Y-45201835D01*
X144303365Y-45373973D01*
X144156973Y-45520365D01*
X143984835Y-45635384D01*
X143984834Y-45635385D01*
X143984833Y-45635385D01*
X143793564Y-45714611D01*
X143590516Y-45755000D01*
X143383484Y-45755000D01*
X143180436Y-45714611D01*
X142989167Y-45635385D01*
X142989166Y-45635385D01*
X142989165Y-45635384D01*
X142817027Y-45520365D01*
X142670635Y-45373973D01*
X142555616Y-45201835D01*
X142519360Y-45114305D01*
X142476389Y-45010564D01*
X142436000Y-44807516D01*
X142436000Y-44600484D01*
X142476389Y-44397436D01*
X142555615Y-44206167D01*
X142670635Y-44034027D01*
X142817027Y-43887635D01*
X142887420Y-43840600D01*
X142989165Y-43772616D01*
X142989167Y-43772615D01*
X143180436Y-43693389D01*
X143383484Y-43653000D01*
X143590516Y-43653000D01*
X143793564Y-43693389D01*
X143793564Y-43693389D01*
G37*
G36*
X139966000Y-44369000D02*
G01*
X138164000Y-44369000D01*
X138164000Y-43367000D01*
X139966000Y-43367000D01*
X139966000Y-44369000D01*
X139966000Y-44369000D01*
G37*
G36*
X127458694Y-42024633D02*
G01*
X127631095Y-42076931D01*
X127789983Y-42161858D01*
X127929249Y-42276151D01*
X128043542Y-42415417D01*
X128128469Y-42574305D01*
X128180767Y-42746706D01*
X128198425Y-42926000D01*
X128180767Y-43105294D01*
X128128469Y-43277695D01*
X128043542Y-43436583D01*
X127929249Y-43575849D01*
X127789983Y-43690142D01*
X127631095Y-43775069D01*
X127458694Y-43827367D01*
X127324331Y-43840600D01*
X126929669Y-43840600D01*
X126795306Y-43827367D01*
X126622905Y-43775069D01*
X126464017Y-43690142D01*
X126324751Y-43575849D01*
X126210458Y-43436583D01*
X126125531Y-43277695D01*
X126073233Y-43105294D01*
X126055575Y-42926000D01*
X126073233Y-42746706D01*
X126125531Y-42574305D01*
X126210458Y-42415417D01*
X126324751Y-42276151D01*
X126464017Y-42161858D01*
X126622905Y-42076931D01*
X126795306Y-42024633D01*
X126929669Y-42011400D01*
X127324331Y-42011400D01*
X127458694Y-42024633D01*
X127458694Y-42024633D01*
G37*
G36*
X211518579Y-39369112D02*
G01*
X211644544Y-39394168D01*
X211791991Y-39455243D01*
X212000512Y-39541615D01*
X212000513Y-39541616D01*
X212320877Y-39755676D01*
X212593324Y-40028123D01*
X212641674Y-40100484D01*
X212807385Y-40348488D01*
X212856474Y-40467000D01*
X212953746Y-40701833D01*
X212954832Y-40704457D01*
X213030000Y-41082349D01*
X213030000Y-41467651D01*
X212954832Y-41845543D01*
X212807385Y-42201512D01*
X212807384Y-42201513D01*
X212593324Y-42521877D01*
X212320877Y-42794324D01*
X212123810Y-42926000D01*
X212000512Y-43008385D01*
X211791991Y-43094757D01*
X211644544Y-43155832D01*
X211518579Y-43180888D01*
X211266651Y-43231000D01*
X210881349Y-43231000D01*
X210629421Y-43180888D01*
X210503456Y-43155832D01*
X210356009Y-43094757D01*
X210147488Y-43008385D01*
X210024190Y-42926000D01*
X209827123Y-42794324D01*
X209554676Y-42521877D01*
X209340616Y-42201513D01*
X209340615Y-42201512D01*
X209193168Y-41845543D01*
X209118000Y-41467651D01*
X209118000Y-41082349D01*
X209193168Y-40704457D01*
X209194255Y-40701833D01*
X209291526Y-40467000D01*
X209340615Y-40348488D01*
X209506326Y-40100484D01*
X209554676Y-40028123D01*
X209827123Y-39755676D01*
X210147487Y-39541616D01*
X210147488Y-39541615D01*
X210356009Y-39455243D01*
X210503456Y-39394168D01*
X210629421Y-39369112D01*
X210881349Y-39319000D01*
X211266651Y-39319000D01*
X211518579Y-39369112D01*
X211518579Y-39369112D01*
G37*
G36*
X193115500Y-43120000D02*
G01*
X191313500Y-43120000D01*
X191313500Y-42118000D01*
X193115500Y-42118000D01*
X193115500Y-43120000D01*
X193115500Y-43120000D01*
G37*
G36*
X189750000Y-43120000D02*
G01*
X187948000Y-43120000D01*
X187948000Y-42118000D01*
X189750000Y-42118000D01*
X189750000Y-43120000D01*
X189750000Y-43120000D01*
G37*
G36*
X186511500Y-43056500D02*
G01*
X184709500Y-43056500D01*
X184709500Y-42054500D01*
X186511500Y-42054500D01*
X186511500Y-43056500D01*
X186511500Y-43056500D01*
G37*
G36*
X172605000Y-42993000D02*
G01*
X170803000Y-42993000D01*
X170803000Y-41991000D01*
X172605000Y-41991000D01*
X172605000Y-42993000D01*
X172605000Y-42993000D01*
G37*
G36*
X176034000Y-42993000D02*
G01*
X174232000Y-42993000D01*
X174232000Y-41991000D01*
X176034000Y-41991000D01*
X176034000Y-42993000D01*
X176034000Y-42993000D01*
G37*
G36*
X179463000Y-42993000D02*
G01*
X177661000Y-42993000D01*
X177661000Y-41991000D01*
X179463000Y-41991000D01*
X179463000Y-42993000D01*
X179463000Y-42993000D01*
G37*
G36*
X183019000Y-42993000D02*
G01*
X181217000Y-42993000D01*
X181217000Y-41991000D01*
X183019000Y-41991000D01*
X183019000Y-42993000D01*
X183019000Y-42993000D01*
G37*
G36*
X139966000Y-41469000D02*
G01*
X138164000Y-41469000D01*
X138164000Y-40467000D01*
X139966000Y-40467000D01*
X139966000Y-41469000D01*
X139966000Y-41469000D01*
G37*
G36*
X143793564Y-39193389D02*
G01*
X143959206Y-39262000D01*
X143984835Y-39272616D01*
X144063981Y-39325500D01*
X144156973Y-39387635D01*
X144303365Y-39534027D01*
X144418385Y-39706167D01*
X144497611Y-39897436D01*
X144538000Y-40100484D01*
X144538000Y-40307516D01*
X144497611Y-40510564D01*
X144418385Y-40701833D01*
X144418384Y-40701835D01*
X144303365Y-40873973D01*
X144156973Y-41020365D01*
X143984835Y-41135384D01*
X143984834Y-41135385D01*
X143984833Y-41135385D01*
X143793564Y-41214611D01*
X143590516Y-41255000D01*
X143383484Y-41255000D01*
X143180436Y-41214611D01*
X142989167Y-41135385D01*
X142989166Y-41135385D01*
X142989165Y-41135384D01*
X142817027Y-41020365D01*
X142670635Y-40873973D01*
X142555616Y-40701835D01*
X142555615Y-40701833D01*
X142476389Y-40510564D01*
X142436000Y-40307516D01*
X142436000Y-40100484D01*
X142476389Y-39897436D01*
X142555615Y-39706167D01*
X142670635Y-39534027D01*
X142817027Y-39387635D01*
X142910019Y-39325500D01*
X142989165Y-39272616D01*
X143014794Y-39262000D01*
X143180436Y-39193389D01*
X143383484Y-39153000D01*
X143590516Y-39153000D01*
X143793564Y-39193389D01*
X143793564Y-39193389D01*
G37*
G36*
X150293564Y-39193389D02*
G01*
X150459206Y-39262000D01*
X150484835Y-39272616D01*
X150563981Y-39325500D01*
X150656973Y-39387635D01*
X150803365Y-39534027D01*
X150918385Y-39706167D01*
X150997611Y-39897436D01*
X151038000Y-40100484D01*
X151038000Y-40307516D01*
X150997611Y-40510564D01*
X150918385Y-40701833D01*
X150918384Y-40701835D01*
X150803365Y-40873973D01*
X150656973Y-41020365D01*
X150484835Y-41135384D01*
X150484834Y-41135385D01*
X150484833Y-41135385D01*
X150293564Y-41214611D01*
X150090516Y-41255000D01*
X149883484Y-41255000D01*
X149680436Y-41214611D01*
X149489167Y-41135385D01*
X149489166Y-41135385D01*
X149489165Y-41135384D01*
X149317027Y-41020365D01*
X149170635Y-40873973D01*
X149055616Y-40701835D01*
X149055615Y-40701833D01*
X148976389Y-40510564D01*
X148936000Y-40307516D01*
X148936000Y-40100484D01*
X148976389Y-39897436D01*
X149055615Y-39706167D01*
X149170635Y-39534027D01*
X149317027Y-39387635D01*
X149410019Y-39325500D01*
X149489165Y-39272616D01*
X149514794Y-39262000D01*
X149680436Y-39193389D01*
X149883484Y-39153000D01*
X150090516Y-39153000D01*
X150293564Y-39193389D01*
X150293564Y-39193389D01*
G37*
G36*
X162055500Y-39826500D02*
G01*
X161053500Y-39826500D01*
X161053500Y-38024500D01*
X162055500Y-38024500D01*
X162055500Y-39826500D01*
X162055500Y-39826500D01*
G37*
G36*
X164955500Y-39826500D02*
G01*
X163953500Y-39826500D01*
X163953500Y-38024500D01*
X164955500Y-38024500D01*
X164955500Y-39826500D01*
X164955500Y-39826500D01*
G37*
G36*
X156594500Y-39763000D02*
G01*
X155592500Y-39763000D01*
X155592500Y-37961000D01*
X156594500Y-37961000D01*
X156594500Y-39763000D01*
X156594500Y-39763000D01*
G37*
G36*
X159494500Y-39763000D02*
G01*
X158492500Y-39763000D01*
X158492500Y-37961000D01*
X159494500Y-37961000D01*
X159494500Y-39763000D01*
X159494500Y-39763000D01*
G37*
G36*
X186261500Y-39325500D02*
G01*
X184959500Y-39325500D01*
X184959500Y-38023500D01*
X186261500Y-38023500D01*
X186261500Y-39325500D01*
X186261500Y-39325500D01*
G37*
G36*
X175784000Y-39262000D02*
G01*
X174482000Y-39262000D01*
X174482000Y-37960000D01*
X175784000Y-37960000D01*
X175784000Y-39262000D01*
X175784000Y-39262000D01*
G37*
G36*
X186261500Y-36528500D02*
G01*
X184959500Y-36528500D01*
X184959500Y-35226500D01*
X186261500Y-35226500D01*
X186261500Y-36528500D01*
X186261500Y-36528500D01*
G37*
G36*
X175784000Y-36465000D02*
G01*
X174482000Y-36465000D01*
X174482000Y-35163000D01*
X175784000Y-35163000D01*
X175784000Y-36465000D01*
X175784000Y-36465000D01*
G37*
G36*
X143752114Y-32467176D02*
G01*
X143846168Y-32476439D01*
X144047299Y-32537451D01*
X144133110Y-32583318D01*
X144232661Y-32636529D01*
X144395133Y-32769867D01*
X144528471Y-32932339D01*
X144581682Y-33031890D01*
X144627549Y-33117701D01*
X144688561Y-33318832D01*
X144709162Y-33528000D01*
X144688561Y-33737168D01*
X144627549Y-33938299D01*
X144581682Y-34024110D01*
X144528471Y-34123661D01*
X144395133Y-34286133D01*
X144232661Y-34419471D01*
X144133110Y-34472682D01*
X144047299Y-34518549D01*
X143846168Y-34579561D01*
X143752114Y-34588824D01*
X143689413Y-34595000D01*
X143584587Y-34595000D01*
X143521886Y-34588824D01*
X143427832Y-34579561D01*
X143226701Y-34518549D01*
X143140890Y-34472682D01*
X143041339Y-34419471D01*
X142878867Y-34286133D01*
X142745529Y-34123661D01*
X142692318Y-34024110D01*
X142646451Y-33938299D01*
X142585439Y-33737168D01*
X142564838Y-33528000D01*
X142585439Y-33318832D01*
X142646451Y-33117701D01*
X142692318Y-33031890D01*
X142745529Y-32932339D01*
X142878867Y-32769867D01*
X143041339Y-32636529D01*
X143140890Y-32583318D01*
X143226701Y-32537451D01*
X143427832Y-32476439D01*
X143521886Y-32467176D01*
X143584587Y-32461000D01*
X143689413Y-32461000D01*
X143752114Y-32467176D01*
X143752114Y-32467176D01*
G37*
G36*
X213088098Y-28154033D02*
G01*
X213552350Y-28346332D01*
X213552352Y-28346333D01*
X213970168Y-28625509D01*
X214325491Y-28980832D01*
X214604667Y-29398648D01*
X214604668Y-29398650D01*
X214796967Y-29862902D01*
X214895000Y-30355747D01*
X214895000Y-30858253D01*
X214796967Y-31351098D01*
X214668698Y-31660767D01*
X214604667Y-31815352D01*
X214325491Y-32233168D01*
X213970168Y-32588491D01*
X213552352Y-32867667D01*
X213552351Y-32867668D01*
X213552350Y-32867668D01*
X213088098Y-33059967D01*
X212595253Y-33158000D01*
X212092747Y-33158000D01*
X211599902Y-33059967D01*
X211135650Y-32867668D01*
X211135649Y-32867668D01*
X211135648Y-32867667D01*
X210717832Y-32588491D01*
X210362509Y-32233168D01*
X210083333Y-31815352D01*
X210019302Y-31660767D01*
X209891033Y-31351098D01*
X209793000Y-30858253D01*
X209793000Y-30355747D01*
X209891033Y-29862902D01*
X210083332Y-29398650D01*
X210083333Y-29398648D01*
X210362509Y-28980832D01*
X210717832Y-28625509D01*
X211135648Y-28346333D01*
X211135650Y-28346332D01*
X211599902Y-28154033D01*
X212092747Y-28056000D01*
X212595253Y-28056000D01*
X213088098Y-28154033D01*
X213088098Y-28154033D01*
G37*
G36*
X129903098Y-28154033D02*
G01*
X130367350Y-28346332D01*
X130367352Y-28346333D01*
X130785168Y-28625509D01*
X131140491Y-28980832D01*
X131419667Y-29398648D01*
X131419668Y-29398650D01*
X131611967Y-29862902D01*
X131710000Y-30355747D01*
X131710000Y-30858253D01*
X131611967Y-31351098D01*
X131483698Y-31660767D01*
X131419667Y-31815352D01*
X131140491Y-32233168D01*
X130785168Y-32588491D01*
X130367352Y-32867667D01*
X130367351Y-32867668D01*
X130367350Y-32867668D01*
X129903098Y-33059967D01*
X129410253Y-33158000D01*
X128907747Y-33158000D01*
X128414902Y-33059967D01*
X127950650Y-32867668D01*
X127950649Y-32867668D01*
X127950648Y-32867667D01*
X127532832Y-32588491D01*
X127177509Y-32233168D01*
X126898333Y-31815352D01*
X126834302Y-31660767D01*
X126706033Y-31351098D01*
X126608000Y-30858253D01*
X126608000Y-30355747D01*
X126706033Y-29862902D01*
X126898332Y-29398650D01*
X126898333Y-29398648D01*
X127177509Y-28980832D01*
X127532832Y-28625509D01*
X127950648Y-28346333D01*
X127950650Y-28346332D01*
X128414902Y-28154033D01*
X128907747Y-28056000D01*
X129410253Y-28056000D01*
X129903098Y-28154033D01*
X129903098Y-28154033D01*
G37*
G36*
X144704000Y-32055000D02*
G01*
X142570000Y-32055000D01*
X142570000Y-29921000D01*
X144704000Y-29921000D01*
X144704000Y-32055000D01*
X144704000Y-32055000D01*
G37*
G36*
X159183293Y-29553233D02*
G01*
X159355694Y-29605531D01*
X159514583Y-29690458D01*
X159653849Y-29804751D01*
X159768142Y-29944017D01*
X159853069Y-30102905D01*
X159905367Y-30275306D01*
X159918600Y-30409669D01*
X159918600Y-30804330D01*
X159905367Y-30938693D01*
X159853069Y-31111094D01*
X159768142Y-31269983D01*
X159653849Y-31409249D01*
X159514583Y-31523542D01*
X159355695Y-31608469D01*
X159183294Y-31660767D01*
X159004000Y-31678425D01*
X158824707Y-31660767D01*
X158652306Y-31608469D01*
X158493418Y-31523542D01*
X158354152Y-31409249D01*
X158239858Y-31269982D01*
X158154931Y-31111095D01*
X158102633Y-30938694D01*
X158089400Y-30804331D01*
X158089400Y-30409670D01*
X158102633Y-30275307D01*
X158154931Y-30102906D01*
X158239858Y-29944017D01*
X158354151Y-29804751D01*
X158493417Y-29690458D01*
X158652305Y-29605531D01*
X158824706Y-29553233D01*
X159004000Y-29535575D01*
X159183293Y-29553233D01*
X159183293Y-29553233D01*
G37*
G36*
X164263293Y-29553233D02*
G01*
X164435694Y-29605531D01*
X164594583Y-29690458D01*
X164733849Y-29804751D01*
X164848142Y-29944017D01*
X164933069Y-30102905D01*
X164985367Y-30275306D01*
X164998600Y-30409669D01*
X164998600Y-30804330D01*
X164985367Y-30938693D01*
X164933069Y-31111094D01*
X164848142Y-31269983D01*
X164733849Y-31409249D01*
X164594583Y-31523542D01*
X164435695Y-31608469D01*
X164263294Y-31660767D01*
X164084000Y-31678425D01*
X163904707Y-31660767D01*
X163732306Y-31608469D01*
X163573418Y-31523542D01*
X163434152Y-31409249D01*
X163319858Y-31269982D01*
X163234931Y-31111095D01*
X163182633Y-30938694D01*
X163169400Y-30804331D01*
X163169400Y-30409670D01*
X163182633Y-30275307D01*
X163234931Y-30102906D01*
X163319858Y-29944017D01*
X163434151Y-29804751D01*
X163573417Y-29690458D01*
X163732305Y-29605531D01*
X163904706Y-29553233D01*
X164084000Y-29535575D01*
X164263293Y-29553233D01*
X164263293Y-29553233D01*
G37*
G36*
X161723293Y-29553233D02*
G01*
X161895694Y-29605531D01*
X162054583Y-29690458D01*
X162193849Y-29804751D01*
X162308142Y-29944017D01*
X162393069Y-30102905D01*
X162445367Y-30275306D01*
X162458600Y-30409669D01*
X162458600Y-30804330D01*
X162445367Y-30938693D01*
X162393069Y-31111094D01*
X162308142Y-31269983D01*
X162193849Y-31409249D01*
X162054583Y-31523542D01*
X161895695Y-31608469D01*
X161723294Y-31660767D01*
X161544000Y-31678425D01*
X161364707Y-31660767D01*
X161192306Y-31608469D01*
X161033418Y-31523542D01*
X160894152Y-31409249D01*
X160779858Y-31269982D01*
X160694931Y-31111095D01*
X160642633Y-30938694D01*
X160629400Y-30804331D01*
X160629400Y-30409670D01*
X160642633Y-30275307D01*
X160694931Y-30102906D01*
X160779858Y-29944017D01*
X160894151Y-29804751D01*
X161033417Y-29690458D01*
X161192305Y-29605531D01*
X161364706Y-29553233D01*
X161544000Y-29535575D01*
X161723293Y-29553233D01*
X161723293Y-29553233D01*
G37*
G36*
X157378600Y-31674000D02*
G01*
X155549400Y-31674000D01*
X155549400Y-29540000D01*
X157378600Y-29540000D01*
X157378600Y-31674000D01*
X157378600Y-31674000D01*
G37*
G36*
X171215000Y-31458000D02*
G01*
X170113000Y-31458000D01*
X170113000Y-29756000D01*
X171215000Y-29756000D01*
X171215000Y-31458000D01*
X171215000Y-31458000D01*
G37*
G36*
X168215000Y-31458000D02*
G01*
X167113000Y-31458000D01*
X167113000Y-29756000D01*
X168215000Y-29756000D01*
X168215000Y-31458000D01*
X168215000Y-31458000D01*
G37*
M02*
