M48
; DRILL file {KiCad (5.1.2-1)-1} date Monday, 15 July 2019 at 09:01:39
; FORMAT={-:-/ absolute / metric / decimal}
; #@! TF.CreationDate,2019-07-15T09:01:39+02:00
; #@! TF.GenerationSoftware,Kicad,Pcbnew,(5.1.2-1)-1
; #@! TF.FileFunction,Plated,1,2,PTH
FMAT,2
METRIC
T1C0.400
T2C1.016
T3C1.100
T4C3.048
T5C3.200
%
G90
G05
T1
X132.588Y-63.373
X133.921Y-56.451
X134.493Y-49.53
X136.081Y-51.435
X140.589Y-54.864
X141.732Y-82.804
X141.986Y-95.504
X145.034Y-59.055
X145.161Y-82.677
X146.304Y-95.504
X147.193Y-64.135
X147.32Y-63.119
X148.694Y-82.7
X151.257Y-48.075
X151.384Y-70.358
X152.019Y-58.293
X152.019Y-59.69
X152.146Y-63.119
X152.146Y-64.135
X153.162Y-70.358
X154.305Y-54.356
X154.686Y-70.358
X155.448Y-61.595
X156.128Y-55.036
X156.718Y-83.82
X157.069Y-53.878
X157.861Y-58.166
X158.623Y-51.816
X159.131Y-58.293
X159.195Y-42.037
X159.639Y-72.072
X160.147Y-51.816
X160.21Y-71.12
X160.274Y-63.894
X160.528Y-69.913
X160.782Y-61.087
X161.036Y-58.42
X161.163Y-84.709
X161.417Y-42.037
X162.687Y-75.311
X163.83Y-75.946
X163.957Y-54.102
X163.957Y-57.15
X164.592Y-78.74
X164.846Y-62.293
X165.1Y-59.88
X165.608Y-57.658
X170.307Y-49.466
X171.323Y-53.467
X172.085Y-70.104
X172.529Y-68.961
X172.529Y-71.183
X172.593Y-74.041
X172.656Y-30.607
X173.228Y-51.435
X173.482Y-60.008
X173.546Y-72.072
X174.371Y-55.245
X175.26Y-76.708
X175.26Y-84.201
X175.323Y-97.536
X175.514Y-59.372
X175.832Y-64.706
X176.028Y-57.087
X176.085Y-60.198
X176.276Y-55.245
X176.403Y-72.39
X177.8Y-76.708
X177.927Y-67.882
X178.689Y-59.372
X178.689Y-65.659
X178.752Y-66.929
X179.006Y-56.896
X179.133Y-60.96
X179.832Y-84.201
X179.959Y-97.472
X180.34Y-76.708
X181.102Y-58.61
X181.165Y-66.992
X182.181Y-72.581
X182.308Y-47.18
X182.308Y-55.689
X183.335Y-54.995
X183.515Y-71.374
X184.404Y-84.328
X184.404Y-97.536
X184.594Y-66.548
X184.785Y-75.311
X185.293Y-51.816
X185.42Y-53.34
X185.42Y-53.34
X187.897Y-48.741
X188.849Y-84.201
X189.04Y-57.087
X189.103Y-97.599
X189.674Y-49.403
X189.992Y-65.532
X190.246Y-63.309
X190.754Y-66.294
X191.262Y-53.721
X191.326Y-72.453
X191.516Y-67.31
X192.214Y-40.957
X193.992Y-55.308
X194.373Y-74.295
X194.564Y-60.579
X195.072Y-45.593
X195.072Y-50.546
X195.516Y-55.245
X196.215Y-60.833
X196.659Y-78.422
X197.485Y-63.944
X198.628Y-60.706
X199.707Y-74.612
X199.707Y-75.819
X199.771Y-77.089
X200.087Y-57.841
X201.867Y-67.691
X202.501Y-47.879
X202.692Y-49.085
X203.249Y-45.579
X205.486Y-68.453
X205.867Y-65.596
X205.93Y-63.119
X206.819Y-49.784
X211.391Y-45.657
X213.677Y-54.864
T2
X143.637Y-30.988
X143.637Y-33.528
X127.127Y-42.926
X127.127Y-45.466
X127.127Y-48.006
X127.127Y-50.546
X127.127Y-53.086
X127.127Y-55.626
X144.272Y-73.152
X144.272Y-75.692
X156.464Y-30.607
X159.004Y-30.607
X161.544Y-30.607
X164.084Y-30.607
X127.127Y-73.152
X127.127Y-75.692
X159.893Y-87.122
X159.893Y-89.662
X162.433Y-87.122
X162.433Y-89.662
X164.973Y-87.122
X164.973Y-89.662
X208.534Y-48.26
X208.534Y-51.054
X208.534Y-53.721
X208.534Y-56.515
X208.534Y-59.309
X208.534Y-62.103
X208.534Y-64.77
X208.534Y-67.564
X208.534Y-70.358
X208.534Y-73.152
X208.534Y-75.819
X208.534Y-78.613
X208.534Y-81.407
X211.074Y-49.835
X211.074Y-52.375
X211.074Y-55.169
X211.074Y-57.912
X211.074Y-60.655
X211.074Y-63.449
X211.074Y-66.192
X211.074Y-68.936
X211.074Y-71.78
X211.074Y-74.473
X211.074Y-77.216
X211.074Y-80.01
T3
X143.487Y-40.204
X143.487Y-44.704
X149.987Y-40.204
X149.987Y-44.704
T4
X211.074Y-41.275
X211.074Y-88.265
T5
X129.159Y-99.187
X212.344Y-99.187
X212.344Y-30.607
X129.159Y-30.607
T0
M30
