G04 #@! TF.GenerationSoftware,KiCad,Pcbnew,(5.1.2-1)-1*
G04 #@! TF.CreationDate,2019-07-15T09:01:35+02:00*
G04 #@! TF.ProjectId,SmartParallel,536d6172-7450-4617-9261-6c6c656c2e6b,rev?*
G04 #@! TF.SameCoordinates,Original*
G04 #@! TF.FileFunction,Legend,Top*
G04 #@! TF.FilePolarity,Positive*
%FSLAX46Y46*%
G04 Gerber Fmt 4.6, Leading zero omitted, Abs format (unit mm)*
G04 Created by KiCad (PCBNEW (5.1.2-1)-1) date 2019-07-15 09:01:35*
%MOMM*%
%LPD*%
G04 APERTURE LIST*
%ADD10C,0.200000*%
%ADD11C,0.150000*%
%ADD12C,0.120000*%
%ADD13C,0.100000*%
G04 APERTURE END LIST*
D10*
X155714000Y-36007071D02*
X155642571Y-36149928D01*
X155642571Y-36364214D01*
X155714000Y-36578500D01*
X155856857Y-36721357D01*
X155999714Y-36792785D01*
X156285428Y-36864214D01*
X156499714Y-36864214D01*
X156785428Y-36792785D01*
X156928285Y-36721357D01*
X157071142Y-36578500D01*
X157142571Y-36364214D01*
X157142571Y-36221357D01*
X157071142Y-36007071D01*
X156999714Y-35935642D01*
X156499714Y-35935642D01*
X156499714Y-36221357D01*
X157142571Y-35292785D02*
X155642571Y-35292785D01*
X157142571Y-34435642D01*
X155642571Y-34435642D01*
X157142571Y-33721357D02*
X155642571Y-33721357D01*
X155642571Y-33364214D01*
X155714000Y-33149928D01*
X155856857Y-33007071D01*
X155999714Y-32935642D01*
X156285428Y-32864214D01*
X156499714Y-32864214D01*
X156785428Y-32935642D01*
X156928285Y-33007071D01*
X157071142Y-33149928D01*
X157142571Y-33364214D01*
X157142571Y-33721357D01*
X164191142Y-36983285D02*
X164191142Y-35840428D01*
X164762571Y-36411857D02*
X163619714Y-36411857D01*
X163262571Y-34411857D02*
X163262571Y-35126142D01*
X163976857Y-35197571D01*
X163905428Y-35126142D01*
X163834000Y-34983285D01*
X163834000Y-34626142D01*
X163905428Y-34483285D01*
X163976857Y-34411857D01*
X164119714Y-34340428D01*
X164476857Y-34340428D01*
X164619714Y-34411857D01*
X164691142Y-34483285D01*
X164762571Y-34626142D01*
X164762571Y-34983285D01*
X164691142Y-35126142D01*
X164619714Y-35197571D01*
X163262571Y-33911857D02*
X164762571Y-33411857D01*
X163262571Y-32911857D01*
X162151142Y-36697571D02*
X162222571Y-36483285D01*
X162222571Y-36126142D01*
X162151142Y-35983285D01*
X162079714Y-35911857D01*
X161936857Y-35840428D01*
X161794000Y-35840428D01*
X161651142Y-35911857D01*
X161579714Y-35983285D01*
X161508285Y-36126142D01*
X161436857Y-36411857D01*
X161365428Y-36554714D01*
X161294000Y-36626142D01*
X161151142Y-36697571D01*
X161008285Y-36697571D01*
X160865428Y-36626142D01*
X160794000Y-36554714D01*
X160722571Y-36411857D01*
X160722571Y-36054714D01*
X160794000Y-35840428D01*
X162222571Y-35197571D02*
X160722571Y-35197571D01*
X160722571Y-34840428D01*
X160794000Y-34626142D01*
X160936857Y-34483285D01*
X161079714Y-34411857D01*
X161365428Y-34340428D01*
X161579714Y-34340428D01*
X161865428Y-34411857D01*
X162008285Y-34483285D01*
X162151142Y-34626142D01*
X162222571Y-34840428D01*
X162222571Y-35197571D01*
X161794000Y-33769000D02*
X161794000Y-33054714D01*
X162222571Y-33911857D02*
X160722571Y-33411857D01*
X162222571Y-32911857D01*
X159611142Y-36626142D02*
X159682571Y-36411857D01*
X159682571Y-36054714D01*
X159611142Y-35911857D01*
X159539714Y-35840428D01*
X159396857Y-35769000D01*
X159254000Y-35769000D01*
X159111142Y-35840428D01*
X159039714Y-35911857D01*
X158968285Y-36054714D01*
X158896857Y-36340428D01*
X158825428Y-36483285D01*
X158754000Y-36554714D01*
X158611142Y-36626142D01*
X158468285Y-36626142D01*
X158325428Y-36554714D01*
X158254000Y-36483285D01*
X158182571Y-36340428D01*
X158182571Y-35983285D01*
X158254000Y-35769000D01*
X159539714Y-34269000D02*
X159611142Y-34340428D01*
X159682571Y-34554714D01*
X159682571Y-34697571D01*
X159611142Y-34911857D01*
X159468285Y-35054714D01*
X159325428Y-35126142D01*
X159039714Y-35197571D01*
X158825428Y-35197571D01*
X158539714Y-35126142D01*
X158396857Y-35054714D01*
X158254000Y-34911857D01*
X158182571Y-34697571D01*
X158182571Y-34554714D01*
X158254000Y-34340428D01*
X158325428Y-34269000D01*
X159682571Y-32911857D02*
X159682571Y-33626142D01*
X158182571Y-33626142D01*
X142216428Y-70211142D02*
X143359285Y-70211142D01*
X142787857Y-70782571D02*
X142787857Y-69639714D01*
X144787857Y-69282571D02*
X144073571Y-69282571D01*
X144002142Y-69996857D01*
X144073571Y-69925428D01*
X144216428Y-69854000D01*
X144573571Y-69854000D01*
X144716428Y-69925428D01*
X144787857Y-69996857D01*
X144859285Y-70139714D01*
X144859285Y-70496857D01*
X144787857Y-70639714D01*
X144716428Y-70711142D01*
X144573571Y-70782571D01*
X144216428Y-70782571D01*
X144073571Y-70711142D01*
X144002142Y-70639714D01*
X145287857Y-69282571D02*
X145787857Y-70782571D01*
X146287857Y-69282571D01*
X143129142Y-77990000D02*
X142986285Y-77918571D01*
X142772000Y-77918571D01*
X142557714Y-77990000D01*
X142414857Y-78132857D01*
X142343428Y-78275714D01*
X142272000Y-78561428D01*
X142272000Y-78775714D01*
X142343428Y-79061428D01*
X142414857Y-79204285D01*
X142557714Y-79347142D01*
X142772000Y-79418571D01*
X142914857Y-79418571D01*
X143129142Y-79347142D01*
X143200571Y-79275714D01*
X143200571Y-78775714D01*
X142914857Y-78775714D01*
X143843428Y-79418571D02*
X143843428Y-77918571D01*
X144700571Y-79418571D01*
X144700571Y-77918571D01*
X145414857Y-79418571D02*
X145414857Y-77918571D01*
X145772000Y-77918571D01*
X145986285Y-77990000D01*
X146129142Y-78132857D01*
X146200571Y-78275714D01*
X146272000Y-78561428D01*
X146272000Y-78775714D01*
X146200571Y-79061428D01*
X146129142Y-79204285D01*
X145986285Y-79347142D01*
X145772000Y-79418571D01*
X145414857Y-79418571D01*
X125198428Y-70084142D02*
X126341285Y-70084142D01*
X125769857Y-70655571D02*
X125769857Y-69512714D01*
X127769857Y-69155571D02*
X127055571Y-69155571D01*
X126984142Y-69869857D01*
X127055571Y-69798428D01*
X127198428Y-69727000D01*
X127555571Y-69727000D01*
X127698428Y-69798428D01*
X127769857Y-69869857D01*
X127841285Y-70012714D01*
X127841285Y-70369857D01*
X127769857Y-70512714D01*
X127698428Y-70584142D01*
X127555571Y-70655571D01*
X127198428Y-70655571D01*
X127055571Y-70584142D01*
X126984142Y-70512714D01*
X128269857Y-69155571D02*
X128769857Y-70655571D01*
X129269857Y-69155571D01*
X125984142Y-77990000D02*
X125841285Y-77918571D01*
X125627000Y-77918571D01*
X125412714Y-77990000D01*
X125269857Y-78132857D01*
X125198428Y-78275714D01*
X125127000Y-78561428D01*
X125127000Y-78775714D01*
X125198428Y-79061428D01*
X125269857Y-79204285D01*
X125412714Y-79347142D01*
X125627000Y-79418571D01*
X125769857Y-79418571D01*
X125984142Y-79347142D01*
X126055571Y-79275714D01*
X126055571Y-78775714D01*
X125769857Y-78775714D01*
X126698428Y-79418571D02*
X126698428Y-77918571D01*
X127555571Y-79418571D01*
X127555571Y-77918571D01*
X128269857Y-79418571D02*
X128269857Y-77918571D01*
X128627000Y-77918571D01*
X128841285Y-77990000D01*
X128984142Y-78132857D01*
X129055571Y-78275714D01*
X129127000Y-78561428D01*
X129127000Y-78775714D01*
X129055571Y-79061428D01*
X128984142Y-79204285D01*
X128841285Y-79347142D01*
X128627000Y-79418571D01*
X128269857Y-79418571D01*
X188729476Y-29928238D02*
X188886619Y-29980619D01*
X189148523Y-29980619D01*
X189253285Y-29928238D01*
X189305666Y-29875857D01*
X189358047Y-29771095D01*
X189358047Y-29666333D01*
X189305666Y-29561571D01*
X189253285Y-29509190D01*
X189148523Y-29456809D01*
X188939000Y-29404428D01*
X188834238Y-29352047D01*
X188781857Y-29299666D01*
X188729476Y-29194904D01*
X188729476Y-29090142D01*
X188781857Y-28985380D01*
X188834238Y-28933000D01*
X188939000Y-28880619D01*
X189200904Y-28880619D01*
X189358047Y-28933000D01*
X189829476Y-29980619D02*
X189829476Y-29247285D01*
X189829476Y-29352047D02*
X189881857Y-29299666D01*
X189986619Y-29247285D01*
X190143761Y-29247285D01*
X190248523Y-29299666D01*
X190300904Y-29404428D01*
X190300904Y-29980619D01*
X190300904Y-29404428D02*
X190353285Y-29299666D01*
X190458047Y-29247285D01*
X190615190Y-29247285D01*
X190719952Y-29299666D01*
X190772333Y-29404428D01*
X190772333Y-29980619D01*
X191767571Y-29980619D02*
X191767571Y-29404428D01*
X191715190Y-29299666D01*
X191610428Y-29247285D01*
X191400904Y-29247285D01*
X191296142Y-29299666D01*
X191767571Y-29928238D02*
X191662809Y-29980619D01*
X191400904Y-29980619D01*
X191296142Y-29928238D01*
X191243761Y-29823476D01*
X191243761Y-29718714D01*
X191296142Y-29613952D01*
X191400904Y-29561571D01*
X191662809Y-29561571D01*
X191767571Y-29509190D01*
X192291380Y-29980619D02*
X192291380Y-29247285D01*
X192291380Y-29456809D02*
X192343761Y-29352047D01*
X192396142Y-29299666D01*
X192500904Y-29247285D01*
X192605666Y-29247285D01*
X192815190Y-29247285D02*
X193234238Y-29247285D01*
X192972333Y-28880619D02*
X192972333Y-29823476D01*
X193024714Y-29928238D01*
X193129476Y-29980619D01*
X193234238Y-29980619D01*
X193600904Y-29980619D02*
X193600904Y-28880619D01*
X194019952Y-28880619D01*
X194124714Y-28933000D01*
X194177095Y-28985380D01*
X194229476Y-29090142D01*
X194229476Y-29247285D01*
X194177095Y-29352047D01*
X194124714Y-29404428D01*
X194019952Y-29456809D01*
X193600904Y-29456809D01*
X195172333Y-29980619D02*
X195172333Y-29404428D01*
X195119952Y-29299666D01*
X195015190Y-29247285D01*
X194805666Y-29247285D01*
X194700904Y-29299666D01*
X195172333Y-29928238D02*
X195067571Y-29980619D01*
X194805666Y-29980619D01*
X194700904Y-29928238D01*
X194648523Y-29823476D01*
X194648523Y-29718714D01*
X194700904Y-29613952D01*
X194805666Y-29561571D01*
X195067571Y-29561571D01*
X195172333Y-29509190D01*
X195696142Y-29980619D02*
X195696142Y-29247285D01*
X195696142Y-29456809D02*
X195748523Y-29352047D01*
X195800904Y-29299666D01*
X195905666Y-29247285D01*
X196010428Y-29247285D01*
X196848523Y-29980619D02*
X196848523Y-29404428D01*
X196796142Y-29299666D01*
X196691380Y-29247285D01*
X196481857Y-29247285D01*
X196377095Y-29299666D01*
X196848523Y-29928238D02*
X196743761Y-29980619D01*
X196481857Y-29980619D01*
X196377095Y-29928238D01*
X196324714Y-29823476D01*
X196324714Y-29718714D01*
X196377095Y-29613952D01*
X196481857Y-29561571D01*
X196743761Y-29561571D01*
X196848523Y-29509190D01*
X197529476Y-29980619D02*
X197424714Y-29928238D01*
X197372333Y-29823476D01*
X197372333Y-28880619D01*
X198105666Y-29980619D02*
X198000904Y-29928238D01*
X197948523Y-29823476D01*
X197948523Y-28880619D01*
X198943761Y-29928238D02*
X198839000Y-29980619D01*
X198629476Y-29980619D01*
X198524714Y-29928238D01*
X198472333Y-29823476D01*
X198472333Y-29404428D01*
X198524714Y-29299666D01*
X198629476Y-29247285D01*
X198839000Y-29247285D01*
X198943761Y-29299666D01*
X198996142Y-29404428D01*
X198996142Y-29509190D01*
X198472333Y-29613952D01*
X199624714Y-29980619D02*
X199519952Y-29928238D01*
X199467571Y-29823476D01*
X199467571Y-28880619D01*
X201510428Y-29980619D02*
X201143761Y-29456809D01*
X200881857Y-29980619D02*
X200881857Y-28880619D01*
X201300904Y-28880619D01*
X201405666Y-28933000D01*
X201458047Y-28985380D01*
X201510428Y-29090142D01*
X201510428Y-29247285D01*
X201458047Y-29352047D01*
X201405666Y-29404428D01*
X201300904Y-29456809D01*
X200881857Y-29456809D01*
X202400904Y-29928238D02*
X202296142Y-29980619D01*
X202086619Y-29980619D01*
X201981857Y-29928238D01*
X201929476Y-29823476D01*
X201929476Y-29404428D01*
X201981857Y-29299666D01*
X202086619Y-29247285D01*
X202296142Y-29247285D01*
X202400904Y-29299666D01*
X202453285Y-29404428D01*
X202453285Y-29509190D01*
X201929476Y-29613952D01*
X202819952Y-29247285D02*
X203081857Y-29980619D01*
X203343761Y-29247285D01*
X204548523Y-28985380D02*
X204600904Y-28933000D01*
X204705666Y-28880619D01*
X204967571Y-28880619D01*
X205072333Y-28933000D01*
X205124714Y-28985380D01*
X205177095Y-29090142D01*
X205177095Y-29194904D01*
X205124714Y-29352047D01*
X204496142Y-29980619D01*
X205177095Y-29980619D01*
X205648523Y-29875857D02*
X205700904Y-29928238D01*
X205648523Y-29980619D01*
X205596142Y-29928238D01*
X205648523Y-29875857D01*
X205648523Y-29980619D01*
X206381857Y-28880619D02*
X206486619Y-28880619D01*
X206591380Y-28933000D01*
X206643761Y-28985380D01*
X206696142Y-29090142D01*
X206748523Y-29299666D01*
X206748523Y-29561571D01*
X206696142Y-29771095D01*
X206643761Y-29875857D01*
X206591380Y-29928238D01*
X206486619Y-29980619D01*
X206381857Y-29980619D01*
X206277095Y-29928238D01*
X206224714Y-29875857D01*
X206172333Y-29771095D01*
X206119952Y-29561571D01*
X206119952Y-29299666D01*
X206172333Y-29090142D01*
X206224714Y-28985380D01*
X206277095Y-28933000D01*
X206381857Y-28880619D01*
X189619952Y-31830619D02*
X189619952Y-30730619D01*
X189986619Y-31516333D01*
X190353285Y-30730619D01*
X190353285Y-31830619D01*
X191348523Y-31830619D02*
X191348523Y-31254428D01*
X191296142Y-31149666D01*
X191191380Y-31097285D01*
X190981857Y-31097285D01*
X190877095Y-31149666D01*
X191348523Y-31778238D02*
X191243761Y-31830619D01*
X190981857Y-31830619D01*
X190877095Y-31778238D01*
X190824714Y-31673476D01*
X190824714Y-31568714D01*
X190877095Y-31463952D01*
X190981857Y-31411571D01*
X191243761Y-31411571D01*
X191348523Y-31359190D01*
X192343761Y-31778238D02*
X192239000Y-31830619D01*
X192029476Y-31830619D01*
X191924714Y-31778238D01*
X191872333Y-31725857D01*
X191819952Y-31621095D01*
X191819952Y-31306809D01*
X191872333Y-31202047D01*
X191924714Y-31149666D01*
X192029476Y-31097285D01*
X192239000Y-31097285D01*
X192343761Y-31149666D01*
X192815190Y-31830619D02*
X192815190Y-30730619D01*
X193286619Y-31830619D02*
X193286619Y-31254428D01*
X193234238Y-31149666D01*
X193129476Y-31097285D01*
X192972333Y-31097285D01*
X192867571Y-31149666D01*
X192815190Y-31202047D01*
X193810428Y-31830619D02*
X193810428Y-31097285D01*
X193810428Y-30730619D02*
X193758047Y-30783000D01*
X193810428Y-30835380D01*
X193862809Y-30783000D01*
X193810428Y-30730619D01*
X193810428Y-30835380D01*
X194334238Y-31097285D02*
X194334238Y-31830619D01*
X194334238Y-31202047D02*
X194386619Y-31149666D01*
X194491380Y-31097285D01*
X194648523Y-31097285D01*
X194753285Y-31149666D01*
X194805666Y-31254428D01*
X194805666Y-31830619D01*
X195800904Y-31830619D02*
X195800904Y-31254428D01*
X195748523Y-31149666D01*
X195643761Y-31097285D01*
X195434238Y-31097285D01*
X195329476Y-31149666D01*
X195800904Y-31778238D02*
X195696142Y-31830619D01*
X195434238Y-31830619D01*
X195329476Y-31778238D01*
X195277095Y-31673476D01*
X195277095Y-31568714D01*
X195329476Y-31463952D01*
X195434238Y-31411571D01*
X195696142Y-31411571D01*
X195800904Y-31359190D01*
X197110428Y-31778238D02*
X197267571Y-31830619D01*
X197529476Y-31830619D01*
X197634238Y-31778238D01*
X197686619Y-31725857D01*
X197739000Y-31621095D01*
X197739000Y-31516333D01*
X197686619Y-31411571D01*
X197634238Y-31359190D01*
X197529476Y-31306809D01*
X197319952Y-31254428D01*
X197215190Y-31202047D01*
X197162809Y-31149666D01*
X197110428Y-31044904D01*
X197110428Y-30940142D01*
X197162809Y-30835380D01*
X197215190Y-30783000D01*
X197319952Y-30730619D01*
X197581857Y-30730619D01*
X197739000Y-30783000D01*
X198210428Y-31097285D02*
X198210428Y-32197285D01*
X198210428Y-31149666D02*
X198315190Y-31097285D01*
X198524714Y-31097285D01*
X198629476Y-31149666D01*
X198681857Y-31202047D01*
X198734238Y-31306809D01*
X198734238Y-31621095D01*
X198681857Y-31725857D01*
X198629476Y-31778238D01*
X198524714Y-31830619D01*
X198315190Y-31830619D01*
X198210428Y-31778238D01*
X199624714Y-31778238D02*
X199519952Y-31830619D01*
X199310428Y-31830619D01*
X199205666Y-31778238D01*
X199153285Y-31673476D01*
X199153285Y-31254428D01*
X199205666Y-31149666D01*
X199310428Y-31097285D01*
X199519952Y-31097285D01*
X199624714Y-31149666D01*
X199677095Y-31254428D01*
X199677095Y-31359190D01*
X199153285Y-31463952D01*
X200619952Y-31778238D02*
X200515190Y-31830619D01*
X200305666Y-31830619D01*
X200200904Y-31778238D01*
X200148523Y-31725857D01*
X200096142Y-31621095D01*
X200096142Y-31306809D01*
X200148523Y-31202047D01*
X200200904Y-31149666D01*
X200305666Y-31097285D01*
X200515190Y-31097285D01*
X200619952Y-31149666D01*
X201562809Y-31097285D02*
X201562809Y-31830619D01*
X201091380Y-31097285D02*
X201091380Y-31673476D01*
X201143761Y-31778238D01*
X201248523Y-31830619D01*
X201405666Y-31830619D01*
X201510428Y-31778238D01*
X201562809Y-31725857D01*
X202243761Y-31830619D02*
X202139000Y-31778238D01*
X202086619Y-31673476D01*
X202086619Y-30730619D01*
X203134238Y-31830619D02*
X203134238Y-31254428D01*
X203081857Y-31149666D01*
X202977095Y-31097285D01*
X202767571Y-31097285D01*
X202662809Y-31149666D01*
X203134238Y-31778238D02*
X203029476Y-31830619D01*
X202767571Y-31830619D01*
X202662809Y-31778238D01*
X202610428Y-31673476D01*
X202610428Y-31568714D01*
X202662809Y-31463952D01*
X202767571Y-31411571D01*
X203029476Y-31411571D01*
X203134238Y-31359190D01*
X203500904Y-31097285D02*
X203919952Y-31097285D01*
X203658047Y-30730619D02*
X203658047Y-31673476D01*
X203710428Y-31778238D01*
X203815190Y-31830619D01*
X203919952Y-31830619D01*
X204286619Y-31830619D02*
X204286619Y-31097285D01*
X204286619Y-31306809D02*
X204339000Y-31202047D01*
X204391380Y-31149666D01*
X204496142Y-31097285D01*
X204600904Y-31097285D01*
X204967571Y-31830619D02*
X204967571Y-31097285D01*
X204967571Y-30730619D02*
X204915190Y-30783000D01*
X204967571Y-30835380D01*
X205019952Y-30783000D01*
X204967571Y-30730619D01*
X204967571Y-30835380D01*
X205386619Y-31830619D02*
X205962809Y-31097285D01*
X205386619Y-31097285D02*
X205962809Y-31830619D01*
X194177095Y-32580619D02*
X194177095Y-33366333D01*
X194124714Y-33523476D01*
X194019952Y-33628238D01*
X193862809Y-33680619D01*
X193758047Y-33680619D01*
X195172333Y-32947285D02*
X195172333Y-33680619D01*
X194700904Y-32947285D02*
X194700904Y-33523476D01*
X194753285Y-33628238D01*
X194858047Y-33680619D01*
X195015190Y-33680619D01*
X195119952Y-33628238D01*
X195172333Y-33575857D01*
X195853285Y-33680619D02*
X195748523Y-33628238D01*
X195696142Y-33523476D01*
X195696142Y-32580619D01*
X196167571Y-32947285D02*
X196429476Y-33680619D01*
X196691380Y-32947285D02*
X196429476Y-33680619D01*
X196324714Y-33942523D01*
X196272333Y-33994904D01*
X196167571Y-34047285D01*
X197896142Y-32685380D02*
X197948523Y-32633000D01*
X198053285Y-32580619D01*
X198315190Y-32580619D01*
X198419952Y-32633000D01*
X198472333Y-32685380D01*
X198524714Y-32790142D01*
X198524714Y-32894904D01*
X198472333Y-33052047D01*
X197843761Y-33680619D01*
X198524714Y-33680619D01*
X199205666Y-32580619D02*
X199310428Y-32580619D01*
X199415190Y-32633000D01*
X199467571Y-32685380D01*
X199519952Y-32790142D01*
X199572333Y-32999666D01*
X199572333Y-33261571D01*
X199519952Y-33471095D01*
X199467571Y-33575857D01*
X199415190Y-33628238D01*
X199310428Y-33680619D01*
X199205666Y-33680619D01*
X199100904Y-33628238D01*
X199048523Y-33575857D01*
X198996142Y-33471095D01*
X198943761Y-33261571D01*
X198943761Y-32999666D01*
X198996142Y-32790142D01*
X199048523Y-32685380D01*
X199100904Y-32633000D01*
X199205666Y-32580619D01*
X200619952Y-33680619D02*
X199991380Y-33680619D01*
X200305666Y-33680619D02*
X200305666Y-32580619D01*
X200200904Y-32737761D01*
X200096142Y-32842523D01*
X199991380Y-32894904D01*
X201143761Y-33680619D02*
X201353285Y-33680619D01*
X201458047Y-33628238D01*
X201510428Y-33575857D01*
X201615190Y-33418714D01*
X201667571Y-33209190D01*
X201667571Y-32790142D01*
X201615190Y-32685380D01*
X201562809Y-32633000D01*
X201458047Y-32580619D01*
X201248523Y-32580619D01*
X201143761Y-32633000D01*
X201091380Y-32685380D01*
X201039000Y-32790142D01*
X201039000Y-33052047D01*
X201091380Y-33156809D01*
X201143761Y-33209190D01*
X201248523Y-33261571D01*
X201458047Y-33261571D01*
X201562809Y-33209190D01*
X201615190Y-33156809D01*
X201667571Y-33052047D01*
X189881857Y-35530619D02*
X189881857Y-34430619D01*
X189881857Y-34849666D02*
X189986619Y-34797285D01*
X190196142Y-34797285D01*
X190300904Y-34849666D01*
X190353285Y-34902047D01*
X190405666Y-35006809D01*
X190405666Y-35321095D01*
X190353285Y-35425857D01*
X190300904Y-35478238D01*
X190196142Y-35530619D01*
X189986619Y-35530619D01*
X189881857Y-35478238D01*
X190877095Y-35530619D02*
X190877095Y-34797285D01*
X190877095Y-34430619D02*
X190824714Y-34483000D01*
X190877095Y-34535380D01*
X190929476Y-34483000D01*
X190877095Y-34430619D01*
X190877095Y-34535380D01*
X191243761Y-34797285D02*
X191662809Y-34797285D01*
X191400904Y-34430619D02*
X191400904Y-35373476D01*
X191453285Y-35478238D01*
X191558047Y-35530619D01*
X191662809Y-35530619D01*
X192029476Y-35425857D02*
X192081857Y-35478238D01*
X192029476Y-35530619D01*
X191977095Y-35478238D01*
X192029476Y-35425857D01*
X192029476Y-35530619D01*
X192710428Y-35530619D02*
X192605666Y-35478238D01*
X192553285Y-35373476D01*
X192553285Y-34430619D01*
X193024714Y-34797285D02*
X193286619Y-35530619D01*
X193548523Y-34797285D02*
X193286619Y-35530619D01*
X193181857Y-35792523D01*
X193129476Y-35844904D01*
X193024714Y-35897285D01*
X194753285Y-34378238D02*
X193810428Y-35792523D01*
X195067571Y-35478238D02*
X195172333Y-35530619D01*
X195381857Y-35530619D01*
X195486619Y-35478238D01*
X195539000Y-35373476D01*
X195539000Y-35321095D01*
X195486619Y-35216333D01*
X195381857Y-35163952D01*
X195224714Y-35163952D01*
X195119952Y-35111571D01*
X195067571Y-35006809D01*
X195067571Y-34954428D01*
X195119952Y-34849666D01*
X195224714Y-34797285D01*
X195381857Y-34797285D01*
X195486619Y-34849666D01*
X196010428Y-35530619D02*
X196010428Y-34797285D01*
X196010428Y-34902047D02*
X196062809Y-34849666D01*
X196167571Y-34797285D01*
X196324714Y-34797285D01*
X196429476Y-34849666D01*
X196481857Y-34954428D01*
X196481857Y-35530619D01*
X196481857Y-34954428D02*
X196534238Y-34849666D01*
X196639000Y-34797285D01*
X196796142Y-34797285D01*
X196900904Y-34849666D01*
X196953285Y-34954428D01*
X196953285Y-35530619D01*
X197948523Y-35530619D02*
X197948523Y-34954428D01*
X197896142Y-34849666D01*
X197791380Y-34797285D01*
X197581857Y-34797285D01*
X197477095Y-34849666D01*
X197948523Y-35478238D02*
X197843761Y-35530619D01*
X197581857Y-35530619D01*
X197477095Y-35478238D01*
X197424714Y-35373476D01*
X197424714Y-35268714D01*
X197477095Y-35163952D01*
X197581857Y-35111571D01*
X197843761Y-35111571D01*
X197948523Y-35059190D01*
X198472333Y-35530619D02*
X198472333Y-34797285D01*
X198472333Y-35006809D02*
X198524714Y-34902047D01*
X198577095Y-34849666D01*
X198681857Y-34797285D01*
X198786619Y-34797285D01*
X198996142Y-34797285D02*
X199415190Y-34797285D01*
X199153285Y-34430619D02*
X199153285Y-35373476D01*
X199205666Y-35478238D01*
X199310428Y-35530619D01*
X199415190Y-35530619D01*
X199781857Y-34797285D02*
X199781857Y-35897285D01*
X199781857Y-34849666D02*
X199886619Y-34797285D01*
X200096142Y-34797285D01*
X200200904Y-34849666D01*
X200253285Y-34902047D01*
X200305666Y-35006809D01*
X200305666Y-35321095D01*
X200253285Y-35425857D01*
X200200904Y-35478238D01*
X200096142Y-35530619D01*
X199886619Y-35530619D01*
X199781857Y-35478238D01*
X201248523Y-35530619D02*
X201248523Y-34954428D01*
X201196142Y-34849666D01*
X201091380Y-34797285D01*
X200881857Y-34797285D01*
X200777095Y-34849666D01*
X201248523Y-35478238D02*
X201143761Y-35530619D01*
X200881857Y-35530619D01*
X200777095Y-35478238D01*
X200724714Y-35373476D01*
X200724714Y-35268714D01*
X200777095Y-35163952D01*
X200881857Y-35111571D01*
X201143761Y-35111571D01*
X201248523Y-35059190D01*
X201772333Y-35530619D02*
X201772333Y-34797285D01*
X201772333Y-35006809D02*
X201824714Y-34902047D01*
X201877095Y-34849666D01*
X201981857Y-34797285D01*
X202086619Y-34797285D01*
X202924714Y-35530619D02*
X202924714Y-34954428D01*
X202872333Y-34849666D01*
X202767571Y-34797285D01*
X202558047Y-34797285D01*
X202453285Y-34849666D01*
X202924714Y-35478238D02*
X202819952Y-35530619D01*
X202558047Y-35530619D01*
X202453285Y-35478238D01*
X202400904Y-35373476D01*
X202400904Y-35268714D01*
X202453285Y-35163952D01*
X202558047Y-35111571D01*
X202819952Y-35111571D01*
X202924714Y-35059190D01*
X203605666Y-35530619D02*
X203500904Y-35478238D01*
X203448523Y-35373476D01*
X203448523Y-34430619D01*
X204181857Y-35530619D02*
X204077095Y-35478238D01*
X204024714Y-35373476D01*
X204024714Y-34430619D01*
X205019952Y-35478238D02*
X204915190Y-35530619D01*
X204705666Y-35530619D01*
X204600904Y-35478238D01*
X204548523Y-35373476D01*
X204548523Y-34954428D01*
X204600904Y-34849666D01*
X204705666Y-34797285D01*
X204915190Y-34797285D01*
X205019952Y-34849666D01*
X205072333Y-34954428D01*
X205072333Y-35059190D01*
X204548523Y-35163952D01*
X205700904Y-35530619D02*
X205596142Y-35478238D01*
X205543761Y-35373476D01*
X205543761Y-34430619D01*
X130685857Y-54939500D02*
X130543000Y-54868071D01*
X130328714Y-54868071D01*
X130114428Y-54939500D01*
X129971571Y-55082357D01*
X129900142Y-55225214D01*
X129828714Y-55510928D01*
X129828714Y-55725214D01*
X129900142Y-56010928D01*
X129971571Y-56153785D01*
X130114428Y-56296642D01*
X130328714Y-56368071D01*
X130471571Y-56368071D01*
X130685857Y-56296642D01*
X130757285Y-56225214D01*
X130757285Y-55725214D01*
X130471571Y-55725214D01*
X131400142Y-56368071D02*
X131400142Y-54868071D01*
X132257285Y-56368071D01*
X132257285Y-54868071D01*
X132971571Y-56368071D02*
X132971571Y-54868071D01*
X133328714Y-54868071D01*
X133543000Y-54939500D01*
X133685857Y-55082357D01*
X133757285Y-55225214D01*
X133828714Y-55510928D01*
X133828714Y-55725214D01*
X133757285Y-56010928D01*
X133685857Y-56153785D01*
X133543000Y-56296642D01*
X133328714Y-56368071D01*
X132971571Y-56368071D01*
X130693785Y-53685214D02*
X130622357Y-53756642D01*
X130408071Y-53828071D01*
X130265214Y-53828071D01*
X130050928Y-53756642D01*
X129908071Y-53613785D01*
X129836642Y-53470928D01*
X129765214Y-53185214D01*
X129765214Y-52970928D01*
X129836642Y-52685214D01*
X129908071Y-52542357D01*
X130050928Y-52399500D01*
X130265214Y-52328071D01*
X130408071Y-52328071D01*
X130622357Y-52399500D01*
X130693785Y-52470928D01*
X131122357Y-52328071D02*
X131979500Y-52328071D01*
X131550928Y-53828071D02*
X131550928Y-52328071D01*
X132408071Y-53756642D02*
X132622357Y-53828071D01*
X132979500Y-53828071D01*
X133122357Y-53756642D01*
X133193785Y-53685214D01*
X133265214Y-53542357D01*
X133265214Y-53399500D01*
X133193785Y-53256642D01*
X133122357Y-53185214D01*
X132979500Y-53113785D01*
X132693785Y-53042357D01*
X132550928Y-52970928D01*
X132479500Y-52899500D01*
X132408071Y-52756642D01*
X132408071Y-52613785D01*
X132479500Y-52470928D01*
X132550928Y-52399500D01*
X132693785Y-52328071D01*
X133050928Y-52328071D01*
X133265214Y-52399500D01*
X129685857Y-49788071D02*
X130185857Y-51288071D01*
X130685857Y-49788071D01*
X132043000Y-51145214D02*
X131971571Y-51216642D01*
X131757285Y-51288071D01*
X131614428Y-51288071D01*
X131400142Y-51216642D01*
X131257285Y-51073785D01*
X131185857Y-50930928D01*
X131114428Y-50645214D01*
X131114428Y-50430928D01*
X131185857Y-50145214D01*
X131257285Y-50002357D01*
X131400142Y-49859500D01*
X131614428Y-49788071D01*
X131757285Y-49788071D01*
X131971571Y-49859500D01*
X132043000Y-49930928D01*
X133543000Y-51145214D02*
X133471571Y-51216642D01*
X133257285Y-51288071D01*
X133114428Y-51288071D01*
X132900142Y-51216642D01*
X132757285Y-51073785D01*
X132685857Y-50930928D01*
X132614428Y-50645214D01*
X132614428Y-50430928D01*
X132685857Y-50145214D01*
X132757285Y-50002357D01*
X132900142Y-49859500D01*
X133114428Y-49788071D01*
X133257285Y-49788071D01*
X133471571Y-49859500D01*
X133543000Y-49930928D01*
X130630285Y-48684571D02*
X130130285Y-47970285D01*
X129773142Y-48684571D02*
X129773142Y-47184571D01*
X130344571Y-47184571D01*
X130487428Y-47256000D01*
X130558857Y-47327428D01*
X130630285Y-47470285D01*
X130630285Y-47684571D01*
X130558857Y-47827428D01*
X130487428Y-47898857D01*
X130344571Y-47970285D01*
X129773142Y-47970285D01*
X131130285Y-47184571D02*
X132130285Y-48684571D01*
X132130285Y-47184571D02*
X131130285Y-48684571D01*
X129622357Y-44708071D02*
X130479500Y-44708071D01*
X130050928Y-46208071D02*
X130050928Y-44708071D01*
X130836642Y-44708071D02*
X131836642Y-46208071D01*
X131836642Y-44708071D02*
X130836642Y-46208071D01*
X130503285Y-43731571D02*
X130003285Y-43017285D01*
X129646142Y-43731571D02*
X129646142Y-42231571D01*
X130217571Y-42231571D01*
X130360428Y-42303000D01*
X130431857Y-42374428D01*
X130503285Y-42517285D01*
X130503285Y-42731571D01*
X130431857Y-42874428D01*
X130360428Y-42945857D01*
X130217571Y-43017285D01*
X129646142Y-43017285D01*
X130931857Y-42231571D02*
X131789000Y-42231571D01*
X131360428Y-43731571D02*
X131360428Y-42231571D01*
X132217571Y-43660142D02*
X132431857Y-43731571D01*
X132789000Y-43731571D01*
X132931857Y-43660142D01*
X133003285Y-43588714D01*
X133074714Y-43445857D01*
X133074714Y-43303000D01*
X133003285Y-43160142D01*
X132931857Y-43088714D01*
X132789000Y-43017285D01*
X132503285Y-42945857D01*
X132360428Y-42874428D01*
X132289000Y-42803000D01*
X132217571Y-42660142D01*
X132217571Y-42517285D01*
X132289000Y-42374428D01*
X132360428Y-42303000D01*
X132503285Y-42231571D01*
X132860428Y-42231571D01*
X133074714Y-42303000D01*
D11*
X142367000Y-34798000D02*
X144907000Y-34798000D01*
X142367000Y-32258000D02*
X142367000Y-34798000D01*
X142087000Y-29438000D02*
X145187000Y-29438000D01*
X142087000Y-30988000D02*
X142087000Y-29438000D01*
X144907000Y-32258000D02*
X142367000Y-32258000D01*
X145187000Y-29438000D02*
X145187000Y-30988000D01*
X144907000Y-32258000D02*
X144907000Y-34798000D01*
X154617000Y-57687000D02*
X153192000Y-57687000D01*
X161867000Y-57462000D02*
X161542000Y-57462000D01*
X161867000Y-64712000D02*
X161542000Y-64712000D01*
X154617000Y-64712000D02*
X154942000Y-64712000D01*
X154617000Y-57462000D02*
X154942000Y-57462000D01*
X154617000Y-64712000D02*
X154617000Y-64387000D01*
X161867000Y-64712000D02*
X161867000Y-64387000D01*
X161867000Y-57462000D02*
X161867000Y-57787000D01*
X154617000Y-57462000D02*
X154617000Y-57687000D01*
X164004500Y-40000500D02*
X162004500Y-40000500D01*
X162004500Y-37850500D02*
X164004500Y-37850500D01*
X214884000Y-99187000D02*
G75*
G03X214884000Y-99187000I-2540000J0D01*
G01*
X131699000Y-99187000D02*
G75*
G03X131699000Y-99187000I-2540000J0D01*
G01*
X131699000Y-30607000D02*
G75*
G03X131699000Y-30607000I-2540000J0D01*
G01*
X214884000Y-30607000D02*
G75*
G03X214884000Y-30607000I-2540000J0D01*
G01*
X125603000Y-76962000D02*
X125603000Y-74422000D01*
X125603000Y-74422000D02*
X123063000Y-74422000D01*
X123063000Y-75946000D02*
X116967000Y-75946000D01*
X116967000Y-75946000D02*
X116967000Y-75438000D01*
X116967000Y-75438000D02*
X123063000Y-75438000D01*
X123063000Y-74422000D02*
X123063000Y-76962000D01*
X123063000Y-71882000D02*
X123063000Y-74422000D01*
X116967000Y-72898000D02*
X123063000Y-72898000D01*
X116967000Y-73406000D02*
X116967000Y-72898000D01*
X123063000Y-73406000D02*
X116967000Y-73406000D01*
X125603000Y-71882000D02*
X123063000Y-71882000D01*
X125603000Y-74422000D02*
X125603000Y-71882000D01*
X125603000Y-74422000D02*
X123063000Y-74422000D01*
X125603000Y-76962000D02*
X123063000Y-76962000D01*
X125603000Y-72898000D02*
X125984000Y-72898000D01*
X125603000Y-73406000D02*
X125984000Y-73406000D01*
X125603000Y-75438000D02*
X125984000Y-75438000D01*
X125603000Y-75946000D02*
X125984000Y-75946000D01*
X122936000Y-75692000D02*
X117094000Y-75692000D01*
X122936000Y-75565000D02*
X122936000Y-75692000D01*
X117094000Y-75565000D02*
X122936000Y-75565000D01*
X117094000Y-75819000D02*
X117094000Y-75565000D01*
X122936000Y-75819000D02*
X117094000Y-75819000D01*
X127127000Y-77242000D02*
X128427000Y-77242000D01*
X128427000Y-77242000D02*
X128427000Y-75692000D01*
X125603000Y-51816000D02*
X123063000Y-51816000D01*
X125603000Y-51816000D02*
X125603000Y-49276000D01*
X125603000Y-49276000D02*
X123063000Y-49276000D01*
X123063000Y-50800000D02*
X116967000Y-50800000D01*
X116967000Y-50800000D02*
X116967000Y-50292000D01*
X116967000Y-50292000D02*
X123063000Y-50292000D01*
X123063000Y-49276000D02*
X123063000Y-51816000D01*
X123063000Y-46736000D02*
X123063000Y-49276000D01*
X116967000Y-47752000D02*
X123063000Y-47752000D01*
X116967000Y-48260000D02*
X116967000Y-47752000D01*
X123063000Y-48260000D02*
X116967000Y-48260000D01*
X125603000Y-46736000D02*
X123063000Y-46736000D01*
X125603000Y-49276000D02*
X125603000Y-46736000D01*
X125603000Y-49276000D02*
X123063000Y-49276000D01*
X125603000Y-44196000D02*
X123063000Y-44196000D01*
X125603000Y-44196000D02*
X125603000Y-41656000D01*
X125603000Y-41656000D02*
X123063000Y-41656000D01*
X123063000Y-43180000D02*
X116967000Y-43180000D01*
X116967000Y-43180000D02*
X116967000Y-42672000D01*
X116967000Y-42672000D02*
X123063000Y-42672000D01*
X123063000Y-41656000D02*
X123063000Y-44196000D01*
X123063000Y-44196000D02*
X123063000Y-46736000D01*
X116967000Y-45212000D02*
X123063000Y-45212000D01*
X116967000Y-45720000D02*
X116967000Y-45212000D01*
X123063000Y-45720000D02*
X116967000Y-45720000D01*
X125603000Y-44196000D02*
X123063000Y-44196000D01*
X125603000Y-46736000D02*
X125603000Y-44196000D01*
X125603000Y-46736000D02*
X123063000Y-46736000D01*
X125603000Y-56896000D02*
X125603000Y-54356000D01*
X125603000Y-54356000D02*
X123063000Y-54356000D01*
X123063000Y-55880000D02*
X116967000Y-55880000D01*
X116967000Y-55880000D02*
X116967000Y-55372000D01*
X116967000Y-55372000D02*
X123063000Y-55372000D01*
X123063000Y-54356000D02*
X123063000Y-56896000D01*
X123063000Y-51816000D02*
X123063000Y-54356000D01*
X116967000Y-52832000D02*
X123063000Y-52832000D01*
X116967000Y-53340000D02*
X116967000Y-52832000D01*
X123063000Y-53340000D02*
X116967000Y-53340000D01*
X125603000Y-51816000D02*
X123063000Y-51816000D01*
X125603000Y-54356000D02*
X125603000Y-51816000D01*
X125603000Y-54356000D02*
X123063000Y-54356000D01*
X125603000Y-56896000D02*
X123063000Y-56896000D01*
X125603000Y-48260000D02*
X125984000Y-48260000D01*
X125603000Y-47752000D02*
X125984000Y-47752000D01*
X125603000Y-45720000D02*
X125984000Y-45720000D01*
X125603000Y-45212000D02*
X125984000Y-45212000D01*
X125603000Y-43180000D02*
X125984000Y-43180000D01*
X125603000Y-42672000D02*
X125984000Y-42672000D01*
X125603000Y-50292000D02*
X125984000Y-50292000D01*
X125603000Y-50800000D02*
X125984000Y-50800000D01*
X125603000Y-52832000D02*
X125984000Y-52832000D01*
X125603000Y-53340000D02*
X125984000Y-53340000D01*
X125603000Y-55372000D02*
X125984000Y-55372000D01*
X125603000Y-55880000D02*
X125984000Y-55880000D01*
X122936000Y-55626000D02*
X117094000Y-55626000D01*
X122936000Y-55499000D02*
X122936000Y-55626000D01*
X117094000Y-55499000D02*
X122936000Y-55499000D01*
X117094000Y-55753000D02*
X117094000Y-55499000D01*
X122936000Y-55753000D02*
X117094000Y-55753000D01*
X127127000Y-57176000D02*
X128427000Y-57176000D01*
X128427000Y-57176000D02*
X128427000Y-55626000D01*
D12*
X138651000Y-59177000D02*
X138651000Y-67327000D01*
X144051000Y-59177000D02*
X138651000Y-59177000D01*
X144051000Y-67327000D02*
X144051000Y-59177000D01*
D11*
X201900000Y-54313000D02*
X201900000Y-52938000D01*
X191775000Y-54313000D02*
X191775000Y-58463000D01*
X201925000Y-54313000D02*
X201925000Y-58463000D01*
X191775000Y-54313000D02*
X191880000Y-54313000D01*
X191775000Y-58463000D02*
X191880000Y-58463000D01*
X201925000Y-58463000D02*
X201820000Y-58463000D01*
X201925000Y-54313000D02*
X201900000Y-54313000D01*
X182225000Y-74760000D02*
X182225000Y-73385000D01*
X173350000Y-74760000D02*
X173350000Y-78910000D01*
X182250000Y-74760000D02*
X182250000Y-78910000D01*
X173350000Y-74760000D02*
X173465000Y-74760000D01*
X173350000Y-78910000D02*
X173465000Y-78910000D01*
X182250000Y-78910000D02*
X182135000Y-78910000D01*
X182250000Y-74760000D02*
X182225000Y-74760000D01*
X184633000Y-54291000D02*
X184633000Y-52491000D01*
X171733000Y-54291000D02*
X171733000Y-62041000D01*
X184883000Y-54291000D02*
X184883000Y-62041000D01*
X171733000Y-54291000D02*
X172068000Y-54291000D01*
X171733000Y-62041000D02*
X172068000Y-62041000D01*
X184883000Y-62041000D02*
X184548000Y-62041000D01*
X184883000Y-54291000D02*
X184633000Y-54291000D01*
X143237000Y-41704000D02*
X143237000Y-43204000D01*
X144487000Y-45704000D02*
X148987000Y-45704000D01*
X150237000Y-43204000D02*
X150237000Y-41704000D01*
X148987000Y-39204000D02*
X144487000Y-39204000D01*
X190178000Y-92980000D02*
X190178000Y-94980000D01*
X188028000Y-94980000D02*
X188028000Y-92980000D01*
X176462000Y-92980000D02*
X176462000Y-94980000D01*
X174312000Y-94980000D02*
X174312000Y-92980000D01*
X181034000Y-92980000D02*
X181034000Y-94980000D01*
X178884000Y-94980000D02*
X178884000Y-92980000D01*
X185479000Y-92980000D02*
X185479000Y-94980000D01*
X183329000Y-94980000D02*
X183329000Y-92980000D01*
X193806500Y-65325500D02*
X193806500Y-63325500D01*
X195956500Y-63325500D02*
X195956500Y-65325500D01*
X156543500Y-37787000D02*
X158543500Y-37787000D01*
X158543500Y-39937000D02*
X156543500Y-39937000D01*
X189924000Y-43069000D02*
X189924000Y-45069000D01*
X187774000Y-45069000D02*
X187774000Y-43069000D01*
X183193000Y-42942000D02*
X183193000Y-44942000D01*
X181043000Y-44942000D02*
X181043000Y-42942000D01*
X186685500Y-43005500D02*
X186685500Y-45005500D01*
X184535500Y-45005500D02*
X184535500Y-43005500D01*
X191139500Y-45069000D02*
X191139500Y-43069000D01*
X193289500Y-43069000D02*
X193289500Y-45069000D01*
X179637000Y-42942000D02*
X179637000Y-44942000D01*
X177487000Y-44942000D02*
X177487000Y-42942000D01*
X140140000Y-41418000D02*
X140140000Y-43418000D01*
X137990000Y-43418000D02*
X137990000Y-41418000D01*
X176208000Y-42942000D02*
X176208000Y-44942000D01*
X174058000Y-44942000D02*
X174058000Y-42942000D01*
X172779000Y-42942000D02*
X172779000Y-44942000D01*
X170629000Y-44942000D02*
X170629000Y-42942000D01*
X140775000Y-92980000D02*
X140775000Y-94980000D01*
X138625000Y-94980000D02*
X138625000Y-92980000D01*
X145220000Y-92980000D02*
X145220000Y-94980000D01*
X143070000Y-94980000D02*
X143070000Y-92980000D01*
X138795000Y-80577000D02*
X136795000Y-80577000D01*
X136795000Y-78427000D02*
X138795000Y-78427000D01*
X149665000Y-92980000D02*
X149665000Y-94980000D01*
X147515000Y-94980000D02*
X147515000Y-92980000D01*
X154914000Y-32157000D02*
X154914000Y-29057000D01*
X156464000Y-32157000D02*
X154914000Y-32157000D01*
X157734000Y-29337000D02*
X157734000Y-31877000D01*
X165354000Y-31877000D02*
X165354000Y-29337000D01*
X154914000Y-29057000D02*
X156464000Y-29057000D01*
X157734000Y-29337000D02*
X165354000Y-29337000D01*
X157734000Y-31877000D02*
X165354000Y-31877000D01*
X145542000Y-71882000D02*
X143002000Y-71882000D01*
X145542000Y-74422000D02*
X145542000Y-71882000D01*
X145822000Y-77242000D02*
X142722000Y-77242000D01*
X145822000Y-75692000D02*
X145822000Y-77242000D01*
X143002000Y-74422000D02*
X145542000Y-74422000D01*
X142722000Y-77242000D02*
X142722000Y-75692000D01*
X143002000Y-74422000D02*
X143002000Y-71882000D01*
X207264000Y-38100000D02*
X207264000Y-45720000D01*
X228219000Y-44450000D02*
X228219000Y-85090000D01*
X218059000Y-44450000D02*
X218059000Y-85090000D01*
X207264000Y-83820000D02*
X207264000Y-91440000D01*
X221234000Y-38100000D02*
X221234000Y-91440000D01*
X222504000Y-38100000D02*
X221234000Y-38100000D01*
X222504000Y-91440000D02*
X222504000Y-38100000D01*
X221234000Y-91440000D02*
X222504000Y-91440000D01*
X228219000Y-44450000D02*
X222504000Y-44450000D01*
X228219000Y-85090000D02*
X222504000Y-85090000D01*
X218059000Y-44450000D02*
X221234000Y-44450000D01*
X218059000Y-85090000D02*
X221234000Y-85090000D01*
X216154000Y-38100000D02*
X216154000Y-45720000D01*
X216154000Y-91440000D02*
X216154000Y-83820000D01*
X207264000Y-38100000D02*
X221234000Y-38100000D01*
X216154000Y-45720000D02*
X207264000Y-45720000D01*
X221234000Y-43815000D02*
X216154000Y-43815000D01*
X221234000Y-85725000D02*
X216154000Y-85725000D01*
X216154000Y-83820000D02*
X207264000Y-83820000D01*
X221234000Y-91440000D02*
X207264000Y-91440000D01*
X189476000Y-87652860D02*
X188976000Y-88152860D01*
X188476000Y-87652860D02*
X189476000Y-87652860D01*
X188976000Y-88152860D02*
X188476000Y-87652860D01*
X188976000Y-87652860D02*
X188976000Y-87152860D01*
X188476000Y-88152860D02*
X189476000Y-88152860D01*
X189026000Y-87852860D02*
X188976000Y-87902860D01*
X188776000Y-87852860D02*
X189026000Y-87852860D01*
X188976000Y-88052860D02*
X188776000Y-87852860D01*
X189276000Y-87752860D02*
X188976000Y-88052860D01*
X188676000Y-87752860D02*
X189276000Y-87752860D01*
X187926000Y-89802860D02*
X187926000Y-86202860D01*
X190026000Y-89802860D02*
X190026000Y-86202860D01*
X175887000Y-87630000D02*
X175387000Y-88130000D01*
X174887000Y-87630000D02*
X175887000Y-87630000D01*
X175387000Y-88130000D02*
X174887000Y-87630000D01*
X175387000Y-87630000D02*
X175387000Y-87130000D01*
X174887000Y-88130000D02*
X175887000Y-88130000D01*
X175437000Y-87830000D02*
X175387000Y-87880000D01*
X175187000Y-87830000D02*
X175437000Y-87830000D01*
X175387000Y-88030000D02*
X175187000Y-87830000D01*
X175687000Y-87730000D02*
X175387000Y-88030000D01*
X175087000Y-87730000D02*
X175687000Y-87730000D01*
X174337000Y-89780000D02*
X174337000Y-86180000D01*
X176437000Y-89780000D02*
X176437000Y-86180000D01*
X180459000Y-87630000D02*
X179959000Y-88130000D01*
X179459000Y-87630000D02*
X180459000Y-87630000D01*
X179959000Y-88130000D02*
X179459000Y-87630000D01*
X179959000Y-87630000D02*
X179959000Y-87130000D01*
X179459000Y-88130000D02*
X180459000Y-88130000D01*
X180009000Y-87830000D02*
X179959000Y-87880000D01*
X179759000Y-87830000D02*
X180009000Y-87830000D01*
X179959000Y-88030000D02*
X179759000Y-87830000D01*
X180259000Y-87730000D02*
X179959000Y-88030000D01*
X179659000Y-87730000D02*
X180259000Y-87730000D01*
X178909000Y-89780000D02*
X178909000Y-86180000D01*
X181009000Y-89780000D02*
X181009000Y-86180000D01*
X184904000Y-87630000D02*
X184404000Y-88130000D01*
X183904000Y-87630000D02*
X184904000Y-87630000D01*
X184404000Y-88130000D02*
X183904000Y-87630000D01*
X184404000Y-87630000D02*
X184404000Y-87130000D01*
X183904000Y-88130000D02*
X184904000Y-88130000D01*
X184454000Y-87830000D02*
X184404000Y-87880000D01*
X184204000Y-87830000D02*
X184454000Y-87830000D01*
X184404000Y-88030000D02*
X184204000Y-87830000D01*
X184704000Y-87730000D02*
X184404000Y-88030000D01*
X184104000Y-87730000D02*
X184704000Y-87730000D01*
X183354000Y-89780000D02*
X183354000Y-86180000D01*
X185454000Y-89780000D02*
X185454000Y-86180000D01*
D12*
X184610500Y-39474500D02*
X184610500Y-35624500D01*
X186610500Y-39474500D02*
X186610500Y-35624500D01*
X184610500Y-39474500D02*
X186610500Y-39474500D01*
X174133000Y-39411000D02*
X174133000Y-35561000D01*
X176133000Y-39411000D02*
X176133000Y-35561000D01*
X174133000Y-39411000D02*
X176133000Y-39411000D01*
D11*
X140200000Y-87630000D02*
X139700000Y-88130000D01*
X139200000Y-87630000D02*
X140200000Y-87630000D01*
X139700000Y-88130000D02*
X139200000Y-87630000D01*
X139700000Y-87630000D02*
X139700000Y-87130000D01*
X139200000Y-88130000D02*
X140200000Y-88130000D01*
X139750000Y-87830000D02*
X139700000Y-87880000D01*
X139500000Y-87830000D02*
X139750000Y-87830000D01*
X139700000Y-88030000D02*
X139500000Y-87830000D01*
X140000000Y-87730000D02*
X139700000Y-88030000D01*
X139400000Y-87730000D02*
X140000000Y-87730000D01*
X138650000Y-89780000D02*
X138650000Y-86180000D01*
X140750000Y-89780000D02*
X140750000Y-86180000D01*
X139692000Y-74422000D02*
X139192000Y-74922000D01*
X138692000Y-74422000D02*
X139692000Y-74422000D01*
X139192000Y-74922000D02*
X138692000Y-74422000D01*
X139192000Y-74422000D02*
X139192000Y-73922000D01*
X138692000Y-74922000D02*
X139692000Y-74922000D01*
X139242000Y-74622000D02*
X139192000Y-74672000D01*
X138992000Y-74622000D02*
X139242000Y-74622000D01*
X139192000Y-74822000D02*
X138992000Y-74622000D01*
X139492000Y-74522000D02*
X139192000Y-74822000D01*
X138892000Y-74522000D02*
X139492000Y-74522000D01*
X138142000Y-76572000D02*
X138142000Y-72972000D01*
X140242000Y-76572000D02*
X140242000Y-72972000D01*
X144645000Y-87630000D02*
X144145000Y-88130000D01*
X143645000Y-87630000D02*
X144645000Y-87630000D01*
X144145000Y-88130000D02*
X143645000Y-87630000D01*
X144145000Y-87630000D02*
X144145000Y-87130000D01*
X143645000Y-88130000D02*
X144645000Y-88130000D01*
X144195000Y-87830000D02*
X144145000Y-87880000D01*
X143945000Y-87830000D02*
X144195000Y-87830000D01*
X144145000Y-88030000D02*
X143945000Y-87830000D01*
X144445000Y-87730000D02*
X144145000Y-88030000D01*
X143845000Y-87730000D02*
X144445000Y-87730000D01*
X143095000Y-89780000D02*
X143095000Y-86180000D01*
X145195000Y-89780000D02*
X145195000Y-86180000D01*
X149090000Y-87630000D02*
X148590000Y-88130000D01*
X148090000Y-87630000D02*
X149090000Y-87630000D01*
X148590000Y-88130000D02*
X148090000Y-87630000D01*
X148590000Y-87630000D02*
X148590000Y-87130000D01*
X148090000Y-88130000D02*
X149090000Y-88130000D01*
X148640000Y-87830000D02*
X148590000Y-87880000D01*
X148390000Y-87830000D02*
X148640000Y-87830000D01*
X148590000Y-88030000D02*
X148390000Y-87830000D01*
X148890000Y-87730000D02*
X148590000Y-88030000D01*
X148290000Y-87730000D02*
X148890000Y-87730000D01*
X147540000Y-89780000D02*
X147540000Y-86180000D01*
X149640000Y-89780000D02*
X149640000Y-86180000D01*
X163703000Y-90932000D02*
X166243000Y-90932000D01*
X166243000Y-90932000D02*
X166243000Y-88392000D01*
X166523000Y-85572000D02*
X164973000Y-85572000D01*
X158623000Y-90932000D02*
X163703000Y-90932000D01*
X158623000Y-85852000D02*
X158623000Y-90932000D01*
X163703000Y-88392000D02*
X163703000Y-85852000D01*
X166243000Y-88392000D02*
X163703000Y-88392000D01*
X166523000Y-85572000D02*
X166523000Y-87122000D01*
X163703000Y-85852000D02*
X158623000Y-85852000D01*
X163703000Y-83820000D02*
X169926000Y-83820000D01*
X169926000Y-83820000D02*
X169926000Y-92964000D01*
X169926000Y-92964000D02*
X154940000Y-92964000D01*
X154940000Y-92964000D02*
X154940000Y-83820000D01*
X154940000Y-83820000D02*
X161163000Y-83820000D01*
X185683000Y-79486000D02*
X185683000Y-77486000D01*
X183633000Y-77486000D02*
X183633000Y-79486000D01*
X188223000Y-62341000D02*
X188223000Y-60341000D01*
X186173000Y-60341000D02*
X186173000Y-62341000D01*
X201660000Y-61713000D02*
X199660000Y-61713000D01*
X199660000Y-63763000D02*
X201660000Y-63763000D01*
X168164000Y-31632000D02*
X170164000Y-31632000D01*
X170164000Y-29582000D02*
X168164000Y-29582000D01*
X134357000Y-73422000D02*
X134357000Y-75422000D01*
X136407000Y-75422000D02*
X136407000Y-73422000D01*
X135112000Y-65777000D02*
X133112000Y-65777000D01*
X133112000Y-67827000D02*
X135112000Y-67827000D01*
X135112000Y-59427000D02*
X133112000Y-59427000D01*
X133112000Y-61477000D02*
X135112000Y-61477000D01*
X130547000Y-73422000D02*
X130547000Y-75422000D01*
X132597000Y-75422000D02*
X132597000Y-73422000D01*
X148320000Y-59681000D02*
X146320000Y-59681000D01*
X146320000Y-61731000D02*
X148320000Y-61731000D01*
X141041380Y-35234142D02*
X140565190Y-35567476D01*
X141041380Y-35805571D02*
X140041380Y-35805571D01*
X140041380Y-35424619D01*
X140089000Y-35329380D01*
X140136619Y-35281761D01*
X140231857Y-35234142D01*
X140374714Y-35234142D01*
X140469952Y-35281761D01*
X140517571Y-35329380D01*
X140565190Y-35424619D01*
X140565190Y-35805571D01*
X140517571Y-34805571D02*
X140517571Y-34472238D01*
X141041380Y-34329380D02*
X141041380Y-34805571D01*
X140041380Y-34805571D01*
X140041380Y-34329380D01*
X141041380Y-33900809D02*
X140041380Y-33900809D01*
X140755666Y-33567476D01*
X140041380Y-33234142D01*
X141041380Y-33234142D01*
X141136619Y-32996047D02*
X141136619Y-32234142D01*
X141041380Y-31424619D02*
X140565190Y-31757952D01*
X141041380Y-31996047D02*
X140041380Y-31996047D01*
X140041380Y-31615095D01*
X140089000Y-31519857D01*
X140136619Y-31472238D01*
X140231857Y-31424619D01*
X140374714Y-31424619D01*
X140469952Y-31472238D01*
X140517571Y-31519857D01*
X140565190Y-31615095D01*
X140565190Y-31996047D01*
X140517571Y-30996047D02*
X140517571Y-30662714D01*
X141041380Y-30519857D02*
X141041380Y-30996047D01*
X140041380Y-30996047D01*
X140041380Y-30519857D01*
X140993761Y-30138904D02*
X141041380Y-29996047D01*
X141041380Y-29757952D01*
X140993761Y-29662714D01*
X140946142Y-29615095D01*
X140850904Y-29567476D01*
X140755666Y-29567476D01*
X140660428Y-29615095D01*
X140612809Y-29662714D01*
X140565190Y-29757952D01*
X140517571Y-29948428D01*
X140469952Y-30043666D01*
X140422333Y-30091285D01*
X140327095Y-30138904D01*
X140231857Y-30138904D01*
X140136619Y-30091285D01*
X140089000Y-30043666D01*
X140041380Y-29948428D01*
X140041380Y-29710333D01*
X140089000Y-29567476D01*
X140517571Y-29138904D02*
X140517571Y-28805571D01*
X141041380Y-28662714D02*
X141041380Y-29138904D01*
X140041380Y-29138904D01*
X140041380Y-28662714D01*
X140041380Y-28377000D02*
X140041380Y-27805571D01*
X141041380Y-28091285D02*
X140041380Y-28091285D01*
D13*
X157480095Y-54489380D02*
X157480095Y-55298904D01*
X157527714Y-55394142D01*
X157575333Y-55441761D01*
X157670571Y-55489380D01*
X157861047Y-55489380D01*
X157956285Y-55441761D01*
X158003904Y-55394142D01*
X158051523Y-55298904D01*
X158051523Y-54489380D01*
X159051523Y-55489380D02*
X158480095Y-55489380D01*
X158765809Y-55489380D02*
X158765809Y-54489380D01*
X158670571Y-54632238D01*
X158575333Y-54727476D01*
X158480095Y-54775095D01*
X153242000Y-67303666D02*
X153718190Y-67303666D01*
X153146761Y-67589380D02*
X153480095Y-66589380D01*
X153813428Y-67589380D01*
X154003904Y-66589380D02*
X154575333Y-66589380D01*
X154289619Y-67589380D02*
X154289619Y-66589380D01*
X154908666Y-67589380D02*
X154908666Y-66589380D01*
X155242000Y-67303666D01*
X155575333Y-66589380D01*
X155575333Y-67589380D01*
X156051523Y-67065571D02*
X156384857Y-67065571D01*
X156527714Y-67589380D02*
X156051523Y-67589380D01*
X156051523Y-66589380D01*
X156527714Y-66589380D01*
X157480095Y-66637000D02*
X157384857Y-66589380D01*
X157242000Y-66589380D01*
X157099142Y-66637000D01*
X157003904Y-66732238D01*
X156956285Y-66827476D01*
X156908666Y-67017952D01*
X156908666Y-67160809D01*
X156956285Y-67351285D01*
X157003904Y-67446523D01*
X157099142Y-67541761D01*
X157242000Y-67589380D01*
X157337238Y-67589380D01*
X157480095Y-67541761D01*
X157527714Y-67494142D01*
X157527714Y-67160809D01*
X157337238Y-67160809D01*
X157908666Y-67303666D02*
X158384857Y-67303666D01*
X157813428Y-67589380D02*
X158146761Y-66589380D01*
X158480095Y-67589380D01*
X158718190Y-66589380D02*
X159337238Y-66589380D01*
X159003904Y-66970333D01*
X159146761Y-66970333D01*
X159242000Y-67017952D01*
X159289619Y-67065571D01*
X159337238Y-67160809D01*
X159337238Y-67398904D01*
X159289619Y-67494142D01*
X159242000Y-67541761D01*
X159146761Y-67589380D01*
X158861047Y-67589380D01*
X158765809Y-67541761D01*
X158718190Y-67494142D01*
X159718190Y-66684619D02*
X159765809Y-66637000D01*
X159861047Y-66589380D01*
X160099142Y-66589380D01*
X160194380Y-66637000D01*
X160242000Y-66684619D01*
X160289619Y-66779857D01*
X160289619Y-66875095D01*
X160242000Y-67017952D01*
X159670571Y-67589380D01*
X160289619Y-67589380D01*
X160861047Y-67017952D02*
X160765809Y-66970333D01*
X160718190Y-66922714D01*
X160670571Y-66827476D01*
X160670571Y-66779857D01*
X160718190Y-66684619D01*
X160765809Y-66637000D01*
X160861047Y-66589380D01*
X161051523Y-66589380D01*
X161146761Y-66637000D01*
X161194380Y-66684619D01*
X161242000Y-66779857D01*
X161242000Y-66827476D01*
X161194380Y-66922714D01*
X161146761Y-66970333D01*
X161051523Y-67017952D01*
X160861047Y-67017952D01*
X160765809Y-67065571D01*
X160718190Y-67113190D01*
X160670571Y-67208428D01*
X160670571Y-67398904D01*
X160718190Y-67494142D01*
X160765809Y-67541761D01*
X160861047Y-67589380D01*
X161051523Y-67589380D01*
X161146761Y-67541761D01*
X161194380Y-67494142D01*
X161242000Y-67398904D01*
X161242000Y-67208428D01*
X161194380Y-67113190D01*
X161146761Y-67065571D01*
X161051523Y-67017952D01*
X161670571Y-67589380D02*
X161670571Y-66589380D01*
X162051523Y-66589380D01*
X162146761Y-66637000D01*
X162194380Y-66684619D01*
X162242000Y-66779857D01*
X162242000Y-66922714D01*
X162194380Y-67017952D01*
X162146761Y-67065571D01*
X162051523Y-67113190D01*
X161670571Y-67113190D01*
X163003904Y-67065571D02*
X163146761Y-67113190D01*
X163194380Y-67160809D01*
X163242000Y-67256047D01*
X163242000Y-67398904D01*
X163194380Y-67494142D01*
X163146761Y-67541761D01*
X163051523Y-67589380D01*
X162670571Y-67589380D01*
X162670571Y-66589380D01*
X163003904Y-66589380D01*
X163099142Y-66637000D01*
X163146761Y-66684619D01*
X163194380Y-66779857D01*
X163194380Y-66875095D01*
X163146761Y-66970333D01*
X163099142Y-67017952D01*
X163003904Y-67065571D01*
X162670571Y-67065571D01*
X166552642Y-39631880D02*
X166219309Y-39155690D01*
X165981214Y-39631880D02*
X165981214Y-38631880D01*
X166362166Y-38631880D01*
X166457404Y-38679500D01*
X166505023Y-38727119D01*
X166552642Y-38822357D01*
X166552642Y-38965214D01*
X166505023Y-39060452D01*
X166457404Y-39108071D01*
X166362166Y-39155690D01*
X165981214Y-39155690D01*
X167505023Y-39631880D02*
X166933595Y-39631880D01*
X167219309Y-39631880D02*
X167219309Y-38631880D01*
X167124071Y-38774738D01*
X167028833Y-38869976D01*
X166933595Y-38917595D01*
X167838357Y-38631880D02*
X168457404Y-38631880D01*
X168124071Y-39012833D01*
X168266928Y-39012833D01*
X168362166Y-39060452D01*
X168409785Y-39108071D01*
X168457404Y-39203309D01*
X168457404Y-39441404D01*
X168409785Y-39536642D01*
X168362166Y-39584261D01*
X168266928Y-39631880D01*
X167981214Y-39631880D01*
X167885976Y-39584261D01*
X167838357Y-39536642D01*
X162441023Y-41663880D02*
X161869595Y-41663880D01*
X162155309Y-41663880D02*
X162155309Y-40663880D01*
X162060071Y-40806738D01*
X161964833Y-40901976D01*
X161869595Y-40949595D01*
X163060071Y-40663880D02*
X163155309Y-40663880D01*
X163250547Y-40711500D01*
X163298166Y-40759119D01*
X163345785Y-40854357D01*
X163393404Y-41044833D01*
X163393404Y-41282928D01*
X163345785Y-41473404D01*
X163298166Y-41568642D01*
X163250547Y-41616261D01*
X163155309Y-41663880D01*
X163060071Y-41663880D01*
X162964833Y-41616261D01*
X162917214Y-41568642D01*
X162869595Y-41473404D01*
X162821976Y-41282928D01*
X162821976Y-41044833D01*
X162869595Y-40854357D01*
X162917214Y-40759119D01*
X162964833Y-40711500D01*
X163060071Y-40663880D01*
X163821976Y-41663880D02*
X163821976Y-40663880D01*
X164393404Y-41663880D02*
X163964833Y-41092452D01*
X164393404Y-40663880D02*
X163821976Y-41235309D01*
D11*
X124650809Y-81478380D02*
X124650809Y-80478380D01*
X125031761Y-80478380D01*
X125127000Y-80526000D01*
X125174619Y-80573619D01*
X125222238Y-80668857D01*
X125222238Y-80811714D01*
X125174619Y-80906952D01*
X125127000Y-80954571D01*
X125031761Y-81002190D01*
X124650809Y-81002190D01*
X125555571Y-80478380D02*
X125793666Y-81478380D01*
X125984142Y-80764095D01*
X126174619Y-81478380D01*
X126412714Y-80478380D01*
X127365095Y-81478380D02*
X127031761Y-81002190D01*
X126793666Y-81478380D02*
X126793666Y-80478380D01*
X127174619Y-80478380D01*
X127269857Y-80526000D01*
X127317476Y-80573619D01*
X127365095Y-80668857D01*
X127365095Y-80811714D01*
X127317476Y-80906952D01*
X127269857Y-80954571D01*
X127174619Y-81002190D01*
X126793666Y-81002190D01*
X127555571Y-81573619D02*
X128317476Y-81573619D01*
X128555571Y-81478380D02*
X128555571Y-80478380D01*
X129031761Y-81478380D02*
X129031761Y-80478380D01*
X129603190Y-81478380D01*
X129603190Y-80478380D01*
X124309761Y-40663761D02*
X124452619Y-40711380D01*
X124690714Y-40711380D01*
X124785952Y-40663761D01*
X124833571Y-40616142D01*
X124881190Y-40520904D01*
X124881190Y-40425666D01*
X124833571Y-40330428D01*
X124785952Y-40282809D01*
X124690714Y-40235190D01*
X124500238Y-40187571D01*
X124405000Y-40139952D01*
X124357380Y-40092333D01*
X124309761Y-39997095D01*
X124309761Y-39901857D01*
X124357380Y-39806619D01*
X124405000Y-39759000D01*
X124500238Y-39711380D01*
X124738333Y-39711380D01*
X124881190Y-39759000D01*
X125309761Y-40187571D02*
X125643095Y-40187571D01*
X125785952Y-40711380D02*
X125309761Y-40711380D01*
X125309761Y-39711380D01*
X125785952Y-39711380D01*
X126785952Y-40711380D02*
X126452619Y-40235190D01*
X126214523Y-40711380D02*
X126214523Y-39711380D01*
X126595476Y-39711380D01*
X126690714Y-39759000D01*
X126738333Y-39806619D01*
X126785952Y-39901857D01*
X126785952Y-40044714D01*
X126738333Y-40139952D01*
X126690714Y-40187571D01*
X126595476Y-40235190D01*
X126214523Y-40235190D01*
X127214523Y-40711380D02*
X127214523Y-39711380D01*
X127643095Y-40425666D02*
X128119285Y-40425666D01*
X127547857Y-40711380D02*
X127881190Y-39711380D01*
X128214523Y-40711380D01*
X129024047Y-40711380D02*
X128547857Y-40711380D01*
X128547857Y-39711380D01*
X129119285Y-40806619D02*
X129881190Y-40806619D01*
X130119285Y-40711380D02*
X130119285Y-39711380D01*
X130500238Y-39711380D01*
X130595476Y-39759000D01*
X130643095Y-39806619D01*
X130690714Y-39901857D01*
X130690714Y-40044714D01*
X130643095Y-40139952D01*
X130595476Y-40187571D01*
X130500238Y-40235190D01*
X130119285Y-40235190D01*
X131309761Y-39711380D02*
X131500238Y-39711380D01*
X131595476Y-39759000D01*
X131690714Y-39854238D01*
X131738333Y-40044714D01*
X131738333Y-40378047D01*
X131690714Y-40568523D01*
X131595476Y-40663761D01*
X131500238Y-40711380D01*
X131309761Y-40711380D01*
X131214523Y-40663761D01*
X131119285Y-40568523D01*
X131071666Y-40378047D01*
X131071666Y-40044714D01*
X131119285Y-39854238D01*
X131214523Y-39759000D01*
X131309761Y-39711380D01*
X132738333Y-40711380D02*
X132405000Y-40235190D01*
X132166904Y-40711380D02*
X132166904Y-39711380D01*
X132547857Y-39711380D01*
X132643095Y-39759000D01*
X132690714Y-39806619D01*
X132738333Y-39901857D01*
X132738333Y-40044714D01*
X132690714Y-40139952D01*
X132643095Y-40187571D01*
X132547857Y-40235190D01*
X132166904Y-40235190D01*
X133024047Y-39711380D02*
X133595476Y-39711380D01*
X133309761Y-40711380D02*
X133309761Y-39711380D01*
D13*
X145027190Y-64103190D02*
X145503380Y-64103190D01*
X144503380Y-64436523D02*
X145027190Y-64103190D01*
X144503380Y-63769857D01*
X145503380Y-62912714D02*
X145503380Y-63484142D01*
X145503380Y-63198428D02*
X144503380Y-63198428D01*
X144646238Y-63293666D01*
X144741476Y-63388904D01*
X144789095Y-63484142D01*
X138103380Y-65317476D02*
X138103380Y-65888904D01*
X138103380Y-65603190D02*
X137103380Y-65603190D01*
X137246238Y-65698428D01*
X137341476Y-65793666D01*
X137389095Y-65888904D01*
X137103380Y-64460333D02*
X137103380Y-64650809D01*
X137151000Y-64746047D01*
X137198619Y-64793666D01*
X137341476Y-64888904D01*
X137531952Y-64936523D01*
X137912904Y-64936523D01*
X138008142Y-64888904D01*
X138055761Y-64841285D01*
X138103380Y-64746047D01*
X138103380Y-64555571D01*
X138055761Y-64460333D01*
X138008142Y-64412714D01*
X137912904Y-64365095D01*
X137674809Y-64365095D01*
X137579571Y-64412714D01*
X137531952Y-64460333D01*
X137484333Y-64555571D01*
X137484333Y-64746047D01*
X137531952Y-64841285D01*
X137579571Y-64888904D01*
X137674809Y-64936523D01*
X138103380Y-63936523D02*
X137103380Y-63936523D01*
X137817666Y-63603190D01*
X137103380Y-63269857D01*
X138103380Y-63269857D01*
X138103380Y-62793666D02*
X137103380Y-62793666D01*
X137579571Y-62793666D02*
X137579571Y-62222238D01*
X138103380Y-62222238D02*
X137103380Y-62222238D01*
X137436714Y-61841285D02*
X137436714Y-61317476D01*
X138103380Y-61841285D01*
X138103380Y-61317476D01*
X202302380Y-57149904D02*
X203111904Y-57149904D01*
X203207142Y-57102285D01*
X203254761Y-57054666D01*
X203302380Y-56959428D01*
X203302380Y-56768952D01*
X203254761Y-56673714D01*
X203207142Y-56626095D01*
X203111904Y-56578476D01*
X202302380Y-56578476D01*
X202635714Y-55673714D02*
X203302380Y-55673714D01*
X202254761Y-55911809D02*
X202969047Y-56149904D01*
X202969047Y-55530857D01*
D11*
X193905571Y-56094380D02*
X194572238Y-56094380D01*
X194143666Y-57094380D01*
X195381761Y-56427714D02*
X195381761Y-57094380D01*
X195143666Y-56046761D02*
X194905571Y-56761047D01*
X195524619Y-56761047D01*
X196381761Y-57094380D02*
X195905571Y-57094380D01*
X195905571Y-56094380D01*
X196572238Y-56094380D02*
X196905571Y-57094380D01*
X197238904Y-56094380D01*
X198048428Y-56094380D02*
X197572238Y-56094380D01*
X197524619Y-56570571D01*
X197572238Y-56522952D01*
X197667476Y-56475333D01*
X197905571Y-56475333D01*
X198000809Y-56522952D01*
X198048428Y-56570571D01*
X198096047Y-56665809D01*
X198096047Y-56903904D01*
X198048428Y-56999142D01*
X198000809Y-57046761D01*
X197905571Y-57094380D01*
X197667476Y-57094380D01*
X197572238Y-57046761D01*
X197524619Y-56999142D01*
X198572238Y-57094380D02*
X198762714Y-57094380D01*
X198857952Y-57046761D01*
X198905571Y-56999142D01*
X199000809Y-56856285D01*
X199048428Y-56665809D01*
X199048428Y-56284857D01*
X199000809Y-56189619D01*
X198953190Y-56142000D01*
X198857952Y-56094380D01*
X198667476Y-56094380D01*
X198572238Y-56142000D01*
X198524619Y-56189619D01*
X198477000Y-56284857D01*
X198477000Y-56522952D01*
X198524619Y-56618190D01*
X198572238Y-56665809D01*
X198667476Y-56713428D01*
X198857952Y-56713428D01*
X198953190Y-56665809D01*
X199000809Y-56618190D01*
X199048428Y-56522952D01*
X199953190Y-56094380D02*
X199477000Y-56094380D01*
X199429380Y-56570571D01*
X199477000Y-56522952D01*
X199572238Y-56475333D01*
X199810333Y-56475333D01*
X199905571Y-56522952D01*
X199953190Y-56570571D01*
X200000809Y-56665809D01*
X200000809Y-56903904D01*
X199953190Y-56999142D01*
X199905571Y-57046761D01*
X199810333Y-57094380D01*
X199572238Y-57094380D01*
X199477000Y-57046761D01*
X199429380Y-56999142D01*
D13*
X171791380Y-77596904D02*
X172600904Y-77596904D01*
X172696142Y-77549285D01*
X172743761Y-77501666D01*
X172791380Y-77406428D01*
X172791380Y-77215952D01*
X172743761Y-77120714D01*
X172696142Y-77073095D01*
X172600904Y-77025476D01*
X171791380Y-77025476D01*
X171791380Y-76644523D02*
X171791380Y-76025476D01*
X172172333Y-76358809D01*
X172172333Y-76215952D01*
X172219952Y-76120714D01*
X172267571Y-76073095D01*
X172362809Y-76025476D01*
X172600904Y-76025476D01*
X172696142Y-76073095D01*
X172743761Y-76120714D01*
X172791380Y-76215952D01*
X172791380Y-76501666D01*
X172743761Y-76596904D01*
X172696142Y-76644523D01*
D11*
X175331761Y-76287380D02*
X175998428Y-76287380D01*
X175569857Y-77287380D01*
X176807952Y-76620714D02*
X176807952Y-77287380D01*
X176569857Y-76239761D02*
X176331761Y-76954047D01*
X176950809Y-76954047D01*
X177807952Y-77287380D02*
X177331761Y-77287380D01*
X177331761Y-76287380D01*
X177998428Y-76287380D02*
X178331761Y-77287380D01*
X178665095Y-76287380D01*
X179522238Y-77287380D02*
X178950809Y-77287380D01*
X179236523Y-77287380D02*
X179236523Y-76287380D01*
X179141285Y-76430238D01*
X179046047Y-76525476D01*
X178950809Y-76573095D01*
X180379380Y-76620714D02*
X180379380Y-77287380D01*
X180141285Y-76239761D02*
X179903190Y-76954047D01*
X180522238Y-76954047D01*
D13*
X185260380Y-58927904D02*
X186069904Y-58927904D01*
X186165142Y-58880285D01*
X186212761Y-58832666D01*
X186260380Y-58737428D01*
X186260380Y-58546952D01*
X186212761Y-58451714D01*
X186165142Y-58404095D01*
X186069904Y-58356476D01*
X185260380Y-58356476D01*
X185355619Y-57927904D02*
X185308000Y-57880285D01*
X185260380Y-57785047D01*
X185260380Y-57546952D01*
X185308000Y-57451714D01*
X185355619Y-57404095D01*
X185450857Y-57356476D01*
X185546095Y-57356476D01*
X185688952Y-57404095D01*
X186260380Y-57975523D01*
X186260380Y-57356476D01*
D11*
X174855571Y-57618380D02*
X175522238Y-57618380D01*
X175093666Y-58618380D01*
X176331761Y-57951714D02*
X176331761Y-58618380D01*
X176093666Y-57570761D02*
X175855571Y-58285047D01*
X176474619Y-58285047D01*
X177331761Y-58618380D02*
X176855571Y-58618380D01*
X176855571Y-57618380D01*
X177522238Y-57618380D02*
X177855571Y-58618380D01*
X178188904Y-57618380D01*
X178998428Y-57618380D02*
X178522238Y-57618380D01*
X178474619Y-58094571D01*
X178522238Y-58046952D01*
X178617476Y-57999333D01*
X178855571Y-57999333D01*
X178950809Y-58046952D01*
X178998428Y-58094571D01*
X179046047Y-58189809D01*
X179046047Y-58427904D01*
X178998428Y-58523142D01*
X178950809Y-58570761D01*
X178855571Y-58618380D01*
X178617476Y-58618380D01*
X178522238Y-58570761D01*
X178474619Y-58523142D01*
X179903190Y-57951714D02*
X179903190Y-58618380D01*
X179665095Y-57570761D02*
X179427000Y-58285047D01*
X180046047Y-58285047D01*
X180950809Y-58618380D02*
X180379380Y-58618380D01*
X180665095Y-58618380D02*
X180665095Y-57618380D01*
X180569857Y-57761238D01*
X180474619Y-57856476D01*
X180379380Y-57904095D01*
X144423095Y-46837000D02*
X145423095Y-46837000D01*
X145232619Y-48204380D02*
X144899285Y-47728190D01*
X144661190Y-48204380D02*
X144661190Y-47204380D01*
X145042142Y-47204380D01*
X145137380Y-47252000D01*
X145185000Y-47299619D01*
X145232619Y-47394857D01*
X145232619Y-47537714D01*
X145185000Y-47632952D01*
X145137380Y-47680571D01*
X145042142Y-47728190D01*
X144661190Y-47728190D01*
X145423095Y-46837000D02*
X146327857Y-46837000D01*
X145661190Y-47680571D02*
X145994523Y-47680571D01*
X146137380Y-48204380D02*
X145661190Y-48204380D01*
X145661190Y-47204380D01*
X146137380Y-47204380D01*
X146327857Y-46837000D02*
X147280238Y-46837000D01*
X146518333Y-48156761D02*
X146661190Y-48204380D01*
X146899285Y-48204380D01*
X146994523Y-48156761D01*
X147042142Y-48109142D01*
X147089761Y-48013904D01*
X147089761Y-47918666D01*
X147042142Y-47823428D01*
X146994523Y-47775809D01*
X146899285Y-47728190D01*
X146708809Y-47680571D01*
X146613571Y-47632952D01*
X146565952Y-47585333D01*
X146518333Y-47490095D01*
X146518333Y-47394857D01*
X146565952Y-47299619D01*
X146613571Y-47252000D01*
X146708809Y-47204380D01*
X146946904Y-47204380D01*
X147089761Y-47252000D01*
X147280238Y-46837000D02*
X148185000Y-46837000D01*
X147518333Y-47680571D02*
X147851666Y-47680571D01*
X147994523Y-48204380D02*
X147518333Y-48204380D01*
X147518333Y-47204380D01*
X147994523Y-47204380D01*
X148185000Y-46837000D02*
X148946904Y-46837000D01*
X148280238Y-47204380D02*
X148851666Y-47204380D01*
X148565952Y-48204380D02*
X148565952Y-47204380D01*
D13*
X188523642Y-97607380D02*
X188190309Y-97131190D01*
X187952214Y-97607380D02*
X187952214Y-96607380D01*
X188333166Y-96607380D01*
X188428404Y-96655000D01*
X188476023Y-96702619D01*
X188523642Y-96797857D01*
X188523642Y-96940714D01*
X188476023Y-97035952D01*
X188428404Y-97083571D01*
X188333166Y-97131190D01*
X187952214Y-97131190D01*
X189476023Y-97607380D02*
X188904595Y-97607380D01*
X189190309Y-97607380D02*
X189190309Y-96607380D01*
X189095071Y-96750238D01*
X188999833Y-96845476D01*
X188904595Y-96893095D01*
X189952214Y-97607380D02*
X190142690Y-97607380D01*
X190237928Y-97559761D01*
X190285547Y-97512142D01*
X190380785Y-97369285D01*
X190428404Y-97178809D01*
X190428404Y-96797857D01*
X190380785Y-96702619D01*
X190333166Y-96655000D01*
X190237928Y-96607380D01*
X190047452Y-96607380D01*
X189952214Y-96655000D01*
X189904595Y-96702619D01*
X189856976Y-96797857D01*
X189856976Y-97035952D01*
X189904595Y-97131190D01*
X189952214Y-97178809D01*
X190047452Y-97226428D01*
X190237928Y-97226428D01*
X190333166Y-97178809D01*
X190380785Y-97131190D01*
X190428404Y-97035952D01*
X186459880Y-95265714D02*
X186459880Y-94646666D01*
X186840833Y-94980000D01*
X186840833Y-94837142D01*
X186888452Y-94741904D01*
X186936071Y-94694285D01*
X187031309Y-94646666D01*
X187269404Y-94646666D01*
X187364642Y-94694285D01*
X187412261Y-94741904D01*
X187459880Y-94837142D01*
X187459880Y-95122857D01*
X187412261Y-95218095D01*
X187364642Y-95265714D01*
X186459880Y-94313333D02*
X186459880Y-93694285D01*
X186840833Y-94027619D01*
X186840833Y-93884761D01*
X186888452Y-93789523D01*
X186936071Y-93741904D01*
X187031309Y-93694285D01*
X187269404Y-93694285D01*
X187364642Y-93741904D01*
X187412261Y-93789523D01*
X187459880Y-93884761D01*
X187459880Y-94170476D01*
X187412261Y-94265714D01*
X187364642Y-94313333D01*
X186459880Y-93075238D02*
X186459880Y-92980000D01*
X186507500Y-92884761D01*
X186555119Y-92837142D01*
X186650357Y-92789523D01*
X186840833Y-92741904D01*
X187078928Y-92741904D01*
X187269404Y-92789523D01*
X187364642Y-92837142D01*
X187412261Y-92884761D01*
X187459880Y-92980000D01*
X187459880Y-93075238D01*
X187412261Y-93170476D01*
X187364642Y-93218095D01*
X187269404Y-93265714D01*
X187078928Y-93313333D01*
X186840833Y-93313333D01*
X186650357Y-93265714D01*
X186555119Y-93218095D01*
X186507500Y-93170476D01*
X186459880Y-93075238D01*
X174744142Y-97607380D02*
X174410809Y-97131190D01*
X174172714Y-97607380D02*
X174172714Y-96607380D01*
X174553666Y-96607380D01*
X174648904Y-96655000D01*
X174696523Y-96702619D01*
X174744142Y-96797857D01*
X174744142Y-96940714D01*
X174696523Y-97035952D01*
X174648904Y-97083571D01*
X174553666Y-97131190D01*
X174172714Y-97131190D01*
X175696523Y-97607380D02*
X175125095Y-97607380D01*
X175410809Y-97607380D02*
X175410809Y-96607380D01*
X175315571Y-96750238D01*
X175220333Y-96845476D01*
X175125095Y-96893095D01*
X176267952Y-97035952D02*
X176172714Y-96988333D01*
X176125095Y-96940714D01*
X176077476Y-96845476D01*
X176077476Y-96797857D01*
X176125095Y-96702619D01*
X176172714Y-96655000D01*
X176267952Y-96607380D01*
X176458428Y-96607380D01*
X176553666Y-96655000D01*
X176601285Y-96702619D01*
X176648904Y-96797857D01*
X176648904Y-96845476D01*
X176601285Y-96940714D01*
X176553666Y-96988333D01*
X176458428Y-97035952D01*
X176267952Y-97035952D01*
X176172714Y-97083571D01*
X176125095Y-97131190D01*
X176077476Y-97226428D01*
X176077476Y-97416904D01*
X176125095Y-97512142D01*
X176172714Y-97559761D01*
X176267952Y-97607380D01*
X176458428Y-97607380D01*
X176553666Y-97559761D01*
X176601285Y-97512142D01*
X176648904Y-97416904D01*
X176648904Y-97226428D01*
X176601285Y-97131190D01*
X176553666Y-97083571D01*
X176458428Y-97035952D01*
X172743880Y-95265714D02*
X172743880Y-94646666D01*
X173124833Y-94980000D01*
X173124833Y-94837142D01*
X173172452Y-94741904D01*
X173220071Y-94694285D01*
X173315309Y-94646666D01*
X173553404Y-94646666D01*
X173648642Y-94694285D01*
X173696261Y-94741904D01*
X173743880Y-94837142D01*
X173743880Y-95122857D01*
X173696261Y-95218095D01*
X173648642Y-95265714D01*
X172743880Y-94313333D02*
X172743880Y-93694285D01*
X173124833Y-94027619D01*
X173124833Y-93884761D01*
X173172452Y-93789523D01*
X173220071Y-93741904D01*
X173315309Y-93694285D01*
X173553404Y-93694285D01*
X173648642Y-93741904D01*
X173696261Y-93789523D01*
X173743880Y-93884761D01*
X173743880Y-94170476D01*
X173696261Y-94265714D01*
X173648642Y-94313333D01*
X172743880Y-93075238D02*
X172743880Y-92980000D01*
X172791500Y-92884761D01*
X172839119Y-92837142D01*
X172934357Y-92789523D01*
X173124833Y-92741904D01*
X173362928Y-92741904D01*
X173553404Y-92789523D01*
X173648642Y-92837142D01*
X173696261Y-92884761D01*
X173743880Y-92980000D01*
X173743880Y-93075238D01*
X173696261Y-93170476D01*
X173648642Y-93218095D01*
X173553404Y-93265714D01*
X173362928Y-93313333D01*
X173124833Y-93313333D01*
X172934357Y-93265714D01*
X172839119Y-93218095D01*
X172791500Y-93170476D01*
X172743880Y-93075238D01*
X179316142Y-97607380D02*
X178982809Y-97131190D01*
X178744714Y-97607380D02*
X178744714Y-96607380D01*
X179125666Y-96607380D01*
X179220904Y-96655000D01*
X179268523Y-96702619D01*
X179316142Y-96797857D01*
X179316142Y-96940714D01*
X179268523Y-97035952D01*
X179220904Y-97083571D01*
X179125666Y-97131190D01*
X178744714Y-97131190D01*
X180268523Y-97607380D02*
X179697095Y-97607380D01*
X179982809Y-97607380D02*
X179982809Y-96607380D01*
X179887571Y-96750238D01*
X179792333Y-96845476D01*
X179697095Y-96893095D01*
X180601857Y-96607380D02*
X181268523Y-96607380D01*
X180839952Y-97607380D01*
X177315880Y-95265714D02*
X177315880Y-94646666D01*
X177696833Y-94980000D01*
X177696833Y-94837142D01*
X177744452Y-94741904D01*
X177792071Y-94694285D01*
X177887309Y-94646666D01*
X178125404Y-94646666D01*
X178220642Y-94694285D01*
X178268261Y-94741904D01*
X178315880Y-94837142D01*
X178315880Y-95122857D01*
X178268261Y-95218095D01*
X178220642Y-95265714D01*
X177315880Y-94313333D02*
X177315880Y-93694285D01*
X177696833Y-94027619D01*
X177696833Y-93884761D01*
X177744452Y-93789523D01*
X177792071Y-93741904D01*
X177887309Y-93694285D01*
X178125404Y-93694285D01*
X178220642Y-93741904D01*
X178268261Y-93789523D01*
X178315880Y-93884761D01*
X178315880Y-94170476D01*
X178268261Y-94265714D01*
X178220642Y-94313333D01*
X177315880Y-93075238D02*
X177315880Y-92980000D01*
X177363500Y-92884761D01*
X177411119Y-92837142D01*
X177506357Y-92789523D01*
X177696833Y-92741904D01*
X177934928Y-92741904D01*
X178125404Y-92789523D01*
X178220642Y-92837142D01*
X178268261Y-92884761D01*
X178315880Y-92980000D01*
X178315880Y-93075238D01*
X178268261Y-93170476D01*
X178220642Y-93218095D01*
X178125404Y-93265714D01*
X177934928Y-93313333D01*
X177696833Y-93313333D01*
X177506357Y-93265714D01*
X177411119Y-93218095D01*
X177363500Y-93170476D01*
X177315880Y-93075238D01*
X183888142Y-97607380D02*
X183554809Y-97131190D01*
X183316714Y-97607380D02*
X183316714Y-96607380D01*
X183697666Y-96607380D01*
X183792904Y-96655000D01*
X183840523Y-96702619D01*
X183888142Y-96797857D01*
X183888142Y-96940714D01*
X183840523Y-97035952D01*
X183792904Y-97083571D01*
X183697666Y-97131190D01*
X183316714Y-97131190D01*
X184840523Y-97607380D02*
X184269095Y-97607380D01*
X184554809Y-97607380D02*
X184554809Y-96607380D01*
X184459571Y-96750238D01*
X184364333Y-96845476D01*
X184269095Y-96893095D01*
X185697666Y-96607380D02*
X185507190Y-96607380D01*
X185411952Y-96655000D01*
X185364333Y-96702619D01*
X185269095Y-96845476D01*
X185221476Y-97035952D01*
X185221476Y-97416904D01*
X185269095Y-97512142D01*
X185316714Y-97559761D01*
X185411952Y-97607380D01*
X185602428Y-97607380D01*
X185697666Y-97559761D01*
X185745285Y-97512142D01*
X185792904Y-97416904D01*
X185792904Y-97178809D01*
X185745285Y-97083571D01*
X185697666Y-97035952D01*
X185602428Y-96988333D01*
X185411952Y-96988333D01*
X185316714Y-97035952D01*
X185269095Y-97083571D01*
X185221476Y-97178809D01*
X181824380Y-95329214D02*
X181824380Y-94710166D01*
X182205333Y-95043500D01*
X182205333Y-94900642D01*
X182252952Y-94805404D01*
X182300571Y-94757785D01*
X182395809Y-94710166D01*
X182633904Y-94710166D01*
X182729142Y-94757785D01*
X182776761Y-94805404D01*
X182824380Y-94900642D01*
X182824380Y-95186357D01*
X182776761Y-95281595D01*
X182729142Y-95329214D01*
X181824380Y-94376833D02*
X181824380Y-93757785D01*
X182205333Y-94091119D01*
X182205333Y-93948261D01*
X182252952Y-93853023D01*
X182300571Y-93805404D01*
X182395809Y-93757785D01*
X182633904Y-93757785D01*
X182729142Y-93805404D01*
X182776761Y-93853023D01*
X182824380Y-93948261D01*
X182824380Y-94233976D01*
X182776761Y-94329214D01*
X182729142Y-94376833D01*
X181824380Y-93138738D02*
X181824380Y-93043500D01*
X181872000Y-92948261D01*
X181919619Y-92900642D01*
X182014857Y-92853023D01*
X182205333Y-92805404D01*
X182443428Y-92805404D01*
X182633904Y-92853023D01*
X182729142Y-92900642D01*
X182776761Y-92948261D01*
X182824380Y-93043500D01*
X182824380Y-93138738D01*
X182776761Y-93233976D01*
X182729142Y-93281595D01*
X182633904Y-93329214D01*
X182443428Y-93376833D01*
X182205333Y-93376833D01*
X182014857Y-93329214D01*
X181919619Y-93281595D01*
X181872000Y-93233976D01*
X181824380Y-93138738D01*
X193033880Y-64968357D02*
X192557690Y-65301690D01*
X193033880Y-65539785D02*
X192033880Y-65539785D01*
X192033880Y-65158833D01*
X192081500Y-65063595D01*
X192129119Y-65015976D01*
X192224357Y-64968357D01*
X192367214Y-64968357D01*
X192462452Y-65015976D01*
X192510071Y-65063595D01*
X192557690Y-65158833D01*
X192557690Y-65539785D01*
X193033880Y-64015976D02*
X193033880Y-64587404D01*
X193033880Y-64301690D02*
X192033880Y-64301690D01*
X192176738Y-64396928D01*
X192271976Y-64492166D01*
X192319595Y-64587404D01*
X192033880Y-63111214D02*
X192033880Y-63587404D01*
X192510071Y-63635023D01*
X192462452Y-63587404D01*
X192414833Y-63492166D01*
X192414833Y-63254071D01*
X192462452Y-63158833D01*
X192510071Y-63111214D01*
X192605309Y-63063595D01*
X192843404Y-63063595D01*
X192938642Y-63111214D01*
X192986261Y-63158833D01*
X193033880Y-63254071D01*
X193033880Y-63492166D01*
X192986261Y-63587404D01*
X192938642Y-63635023D01*
X197633880Y-64992166D02*
X197633880Y-65563595D01*
X197633880Y-65277880D02*
X196633880Y-65277880D01*
X196776738Y-65373119D01*
X196871976Y-65468357D01*
X196919595Y-65563595D01*
X196633880Y-64373119D02*
X196633880Y-64277880D01*
X196681500Y-64182642D01*
X196729119Y-64135023D01*
X196824357Y-64087404D01*
X197014833Y-64039785D01*
X197252928Y-64039785D01*
X197443404Y-64087404D01*
X197538642Y-64135023D01*
X197586261Y-64182642D01*
X197633880Y-64277880D01*
X197633880Y-64373119D01*
X197586261Y-64468357D01*
X197538642Y-64515976D01*
X197443404Y-64563595D01*
X197252928Y-64611214D01*
X197014833Y-64611214D01*
X196824357Y-64563595D01*
X196729119Y-64515976D01*
X196681500Y-64468357D01*
X196633880Y-64373119D01*
X196633880Y-63420738D02*
X196633880Y-63325500D01*
X196681500Y-63230261D01*
X196729119Y-63182642D01*
X196824357Y-63135023D01*
X197014833Y-63087404D01*
X197252928Y-63087404D01*
X197443404Y-63135023D01*
X197538642Y-63182642D01*
X197586261Y-63230261D01*
X197633880Y-63325500D01*
X197633880Y-63420738D01*
X197586261Y-63515976D01*
X197538642Y-63563595D01*
X197443404Y-63611214D01*
X197252928Y-63658833D01*
X197014833Y-63658833D01*
X196824357Y-63611214D01*
X196729119Y-63563595D01*
X196681500Y-63515976D01*
X196633880Y-63420738D01*
X152709642Y-39568380D02*
X152376309Y-39092190D01*
X152138214Y-39568380D02*
X152138214Y-38568380D01*
X152519166Y-38568380D01*
X152614404Y-38616000D01*
X152662023Y-38663619D01*
X152709642Y-38758857D01*
X152709642Y-38901714D01*
X152662023Y-38996952D01*
X152614404Y-39044571D01*
X152519166Y-39092190D01*
X152138214Y-39092190D01*
X153662023Y-39568380D02*
X153090595Y-39568380D01*
X153376309Y-39568380D02*
X153376309Y-38568380D01*
X153281071Y-38711238D01*
X153185833Y-38806476D01*
X153090595Y-38854095D01*
X154519166Y-38901714D02*
X154519166Y-39568380D01*
X154281071Y-38520761D02*
X154042976Y-39235047D01*
X154662023Y-39235047D01*
X156853023Y-41614380D02*
X156281595Y-41614380D01*
X156567309Y-41614380D02*
X156567309Y-40614380D01*
X156472071Y-40757238D01*
X156376833Y-40852476D01*
X156281595Y-40900095D01*
X157472071Y-40614380D02*
X157567309Y-40614380D01*
X157662547Y-40662000D01*
X157710166Y-40709619D01*
X157757785Y-40804857D01*
X157805404Y-40995333D01*
X157805404Y-41233428D01*
X157757785Y-41423904D01*
X157710166Y-41519142D01*
X157662547Y-41566761D01*
X157567309Y-41614380D01*
X157472071Y-41614380D01*
X157376833Y-41566761D01*
X157329214Y-41519142D01*
X157281595Y-41423904D01*
X157233976Y-41233428D01*
X157233976Y-40995333D01*
X157281595Y-40804857D01*
X157329214Y-40709619D01*
X157376833Y-40662000D01*
X157472071Y-40614380D01*
X158233976Y-41614380D02*
X158233976Y-40614380D01*
X158805404Y-41614380D02*
X158376833Y-41042952D01*
X158805404Y-40614380D02*
X158233976Y-41185809D01*
X188269642Y-41092380D02*
X187936309Y-40616190D01*
X187698214Y-41092380D02*
X187698214Y-40092380D01*
X188079166Y-40092380D01*
X188174404Y-40140000D01*
X188222023Y-40187619D01*
X188269642Y-40282857D01*
X188269642Y-40425714D01*
X188222023Y-40520952D01*
X188174404Y-40568571D01*
X188079166Y-40616190D01*
X187698214Y-40616190D01*
X189222023Y-41092380D02*
X188650595Y-41092380D01*
X188936309Y-41092380D02*
X188936309Y-40092380D01*
X188841071Y-40235238D01*
X188745833Y-40330476D01*
X188650595Y-40378095D01*
X189602976Y-40187619D02*
X189650595Y-40140000D01*
X189745833Y-40092380D01*
X189983928Y-40092380D01*
X190079166Y-40140000D01*
X190126785Y-40187619D01*
X190174404Y-40282857D01*
X190174404Y-40378095D01*
X190126785Y-40520952D01*
X189555357Y-41092380D01*
X190174404Y-41092380D01*
X188222023Y-47696380D02*
X187650595Y-47696380D01*
X187936309Y-47696380D02*
X187936309Y-46696380D01*
X187841071Y-46839238D01*
X187745833Y-46934476D01*
X187650595Y-46982095D01*
X188841071Y-46696380D02*
X188936309Y-46696380D01*
X189031547Y-46744000D01*
X189079166Y-46791619D01*
X189126785Y-46886857D01*
X189174404Y-47077333D01*
X189174404Y-47315428D01*
X189126785Y-47505904D01*
X189079166Y-47601142D01*
X189031547Y-47648761D01*
X188936309Y-47696380D01*
X188841071Y-47696380D01*
X188745833Y-47648761D01*
X188698214Y-47601142D01*
X188650595Y-47505904D01*
X188602976Y-47315428D01*
X188602976Y-47077333D01*
X188650595Y-46886857D01*
X188698214Y-46791619D01*
X188745833Y-46744000D01*
X188841071Y-46696380D01*
X189602976Y-47696380D02*
X189602976Y-46696380D01*
X190174404Y-47696380D02*
X189745833Y-47124952D01*
X190174404Y-46696380D02*
X189602976Y-47267809D01*
X181475142Y-41092380D02*
X181141809Y-40616190D01*
X180903714Y-41092380D02*
X180903714Y-40092380D01*
X181284666Y-40092380D01*
X181379904Y-40140000D01*
X181427523Y-40187619D01*
X181475142Y-40282857D01*
X181475142Y-40425714D01*
X181427523Y-40520952D01*
X181379904Y-40568571D01*
X181284666Y-40616190D01*
X180903714Y-40616190D01*
X182427523Y-41092380D02*
X181856095Y-41092380D01*
X182141809Y-41092380D02*
X182141809Y-40092380D01*
X182046571Y-40235238D01*
X181951333Y-40330476D01*
X181856095Y-40378095D01*
X183379904Y-41092380D02*
X182808476Y-41092380D01*
X183094190Y-41092380D02*
X183094190Y-40092380D01*
X182998952Y-40235238D01*
X182903714Y-40330476D01*
X182808476Y-40378095D01*
X181554523Y-47696380D02*
X180983095Y-47696380D01*
X181268809Y-47696380D02*
X181268809Y-46696380D01*
X181173571Y-46839238D01*
X181078333Y-46934476D01*
X180983095Y-46982095D01*
X182173571Y-46696380D02*
X182268809Y-46696380D01*
X182364047Y-46744000D01*
X182411666Y-46791619D01*
X182459285Y-46886857D01*
X182506904Y-47077333D01*
X182506904Y-47315428D01*
X182459285Y-47505904D01*
X182411666Y-47601142D01*
X182364047Y-47648761D01*
X182268809Y-47696380D01*
X182173571Y-47696380D01*
X182078333Y-47648761D01*
X182030714Y-47601142D01*
X181983095Y-47505904D01*
X181935476Y-47315428D01*
X181935476Y-47077333D01*
X181983095Y-46886857D01*
X182030714Y-46791619D01*
X182078333Y-46744000D01*
X182173571Y-46696380D01*
X182935476Y-47696380D02*
X182935476Y-46696380D01*
X183506904Y-47696380D02*
X183078333Y-47124952D01*
X183506904Y-46696380D02*
X182935476Y-47267809D01*
X184904142Y-41092380D02*
X184570809Y-40616190D01*
X184332714Y-41092380D02*
X184332714Y-40092380D01*
X184713666Y-40092380D01*
X184808904Y-40140000D01*
X184856523Y-40187619D01*
X184904142Y-40282857D01*
X184904142Y-40425714D01*
X184856523Y-40520952D01*
X184808904Y-40568571D01*
X184713666Y-40616190D01*
X184332714Y-40616190D01*
X185856523Y-41092380D02*
X185285095Y-41092380D01*
X185570809Y-41092380D02*
X185570809Y-40092380D01*
X185475571Y-40235238D01*
X185380333Y-40330476D01*
X185285095Y-40378095D01*
X186475571Y-40092380D02*
X186570809Y-40092380D01*
X186666047Y-40140000D01*
X186713666Y-40187619D01*
X186761285Y-40282857D01*
X186808904Y-40473333D01*
X186808904Y-40711428D01*
X186761285Y-40901904D01*
X186713666Y-40997142D01*
X186666047Y-41044761D01*
X186570809Y-41092380D01*
X186475571Y-41092380D01*
X186380333Y-41044761D01*
X186332714Y-40997142D01*
X186285095Y-40901904D01*
X186237476Y-40711428D01*
X186237476Y-40473333D01*
X186285095Y-40282857D01*
X186332714Y-40187619D01*
X186380333Y-40140000D01*
X186475571Y-40092380D01*
X184951761Y-47696380D02*
X184380333Y-47696380D01*
X184666047Y-47696380D02*
X184666047Y-46696380D01*
X184570809Y-46839238D01*
X184475571Y-46934476D01*
X184380333Y-46982095D01*
X185570809Y-46696380D02*
X185666047Y-46696380D01*
X185761285Y-46744000D01*
X185808904Y-46791619D01*
X185856523Y-46886857D01*
X185904142Y-47077333D01*
X185904142Y-47315428D01*
X185856523Y-47505904D01*
X185808904Y-47601142D01*
X185761285Y-47648761D01*
X185666047Y-47696380D01*
X185570809Y-47696380D01*
X185475571Y-47648761D01*
X185427952Y-47601142D01*
X185380333Y-47505904D01*
X185332714Y-47315428D01*
X185332714Y-47077333D01*
X185380333Y-46886857D01*
X185427952Y-46791619D01*
X185475571Y-46744000D01*
X185570809Y-46696380D01*
X186332714Y-47696380D02*
X186332714Y-46696380D01*
X186427952Y-47315428D02*
X186713666Y-47696380D01*
X186713666Y-47029714D02*
X186332714Y-47410666D01*
X192047833Y-41155880D02*
X191714500Y-40679690D01*
X191476404Y-41155880D02*
X191476404Y-40155880D01*
X191857357Y-40155880D01*
X191952595Y-40203500D01*
X192000214Y-40251119D01*
X192047833Y-40346357D01*
X192047833Y-40489214D01*
X192000214Y-40584452D01*
X191952595Y-40632071D01*
X191857357Y-40679690D01*
X191476404Y-40679690D01*
X192524023Y-41155880D02*
X192714500Y-41155880D01*
X192809738Y-41108261D01*
X192857357Y-41060642D01*
X192952595Y-40917785D01*
X193000214Y-40727309D01*
X193000214Y-40346357D01*
X192952595Y-40251119D01*
X192904976Y-40203500D01*
X192809738Y-40155880D01*
X192619261Y-40155880D01*
X192524023Y-40203500D01*
X192476404Y-40251119D01*
X192428785Y-40346357D01*
X192428785Y-40584452D01*
X192476404Y-40679690D01*
X192524023Y-40727309D01*
X192619261Y-40774928D01*
X192809738Y-40774928D01*
X192904976Y-40727309D01*
X192952595Y-40679690D01*
X193000214Y-40584452D01*
X191587523Y-47696380D02*
X191016095Y-47696380D01*
X191301809Y-47696380D02*
X191301809Y-46696380D01*
X191206571Y-46839238D01*
X191111333Y-46934476D01*
X191016095Y-46982095D01*
X192206571Y-46696380D02*
X192301809Y-46696380D01*
X192397047Y-46744000D01*
X192444666Y-46791619D01*
X192492285Y-46886857D01*
X192539904Y-47077333D01*
X192539904Y-47315428D01*
X192492285Y-47505904D01*
X192444666Y-47601142D01*
X192397047Y-47648761D01*
X192301809Y-47696380D01*
X192206571Y-47696380D01*
X192111333Y-47648761D01*
X192063714Y-47601142D01*
X192016095Y-47505904D01*
X191968476Y-47315428D01*
X191968476Y-47077333D01*
X192016095Y-46886857D01*
X192063714Y-46791619D01*
X192111333Y-46744000D01*
X192206571Y-46696380D01*
X192968476Y-47696380D02*
X192968476Y-46696380D01*
X193539904Y-47696380D02*
X193111333Y-47124952D01*
X193539904Y-46696380D02*
X192968476Y-47267809D01*
X178395333Y-41092380D02*
X178062000Y-40616190D01*
X177823904Y-41092380D02*
X177823904Y-40092380D01*
X178204857Y-40092380D01*
X178300095Y-40140000D01*
X178347714Y-40187619D01*
X178395333Y-40282857D01*
X178395333Y-40425714D01*
X178347714Y-40520952D01*
X178300095Y-40568571D01*
X178204857Y-40616190D01*
X177823904Y-40616190D01*
X178966761Y-40520952D02*
X178871523Y-40473333D01*
X178823904Y-40425714D01*
X178776285Y-40330476D01*
X178776285Y-40282857D01*
X178823904Y-40187619D01*
X178871523Y-40140000D01*
X178966761Y-40092380D01*
X179157238Y-40092380D01*
X179252476Y-40140000D01*
X179300095Y-40187619D01*
X179347714Y-40282857D01*
X179347714Y-40330476D01*
X179300095Y-40425714D01*
X179252476Y-40473333D01*
X179157238Y-40520952D01*
X178966761Y-40520952D01*
X178871523Y-40568571D01*
X178823904Y-40616190D01*
X178776285Y-40711428D01*
X178776285Y-40901904D01*
X178823904Y-40997142D01*
X178871523Y-41044761D01*
X178966761Y-41092380D01*
X179157238Y-41092380D01*
X179252476Y-41044761D01*
X179300095Y-40997142D01*
X179347714Y-40901904D01*
X179347714Y-40711428D01*
X179300095Y-40616190D01*
X179252476Y-40568571D01*
X179157238Y-40520952D01*
X177998523Y-47696380D02*
X177427095Y-47696380D01*
X177712809Y-47696380D02*
X177712809Y-46696380D01*
X177617571Y-46839238D01*
X177522333Y-46934476D01*
X177427095Y-46982095D01*
X178617571Y-46696380D02*
X178712809Y-46696380D01*
X178808047Y-46744000D01*
X178855666Y-46791619D01*
X178903285Y-46886857D01*
X178950904Y-47077333D01*
X178950904Y-47315428D01*
X178903285Y-47505904D01*
X178855666Y-47601142D01*
X178808047Y-47648761D01*
X178712809Y-47696380D01*
X178617571Y-47696380D01*
X178522333Y-47648761D01*
X178474714Y-47601142D01*
X178427095Y-47505904D01*
X178379476Y-47315428D01*
X178379476Y-47077333D01*
X178427095Y-46886857D01*
X178474714Y-46791619D01*
X178522333Y-46744000D01*
X178617571Y-46696380D01*
X179379476Y-47696380D02*
X179379476Y-46696380D01*
X179950904Y-47696380D02*
X179522333Y-47124952D01*
X179950904Y-46696380D02*
X179379476Y-47267809D01*
D11*
X141817380Y-42584666D02*
X141341190Y-42918000D01*
X141817380Y-43156095D02*
X140817380Y-43156095D01*
X140817380Y-42775142D01*
X140865000Y-42679904D01*
X140912619Y-42632285D01*
X141007857Y-42584666D01*
X141150714Y-42584666D01*
X141245952Y-42632285D01*
X141293571Y-42679904D01*
X141341190Y-42775142D01*
X141341190Y-43156095D01*
X140817380Y-42251333D02*
X140817380Y-41584666D01*
X141817380Y-42013238D01*
D13*
X137217380Y-42632285D02*
X137217380Y-43203714D01*
X137217380Y-42918000D02*
X136217380Y-42918000D01*
X136360238Y-43013238D01*
X136455476Y-43108476D01*
X136503095Y-43203714D01*
X137217380Y-42203714D02*
X136217380Y-42203714D01*
X137217380Y-41632285D02*
X136645952Y-42060857D01*
X136217380Y-41632285D02*
X136788809Y-42203714D01*
X174966333Y-41092380D02*
X174633000Y-40616190D01*
X174394904Y-41092380D02*
X174394904Y-40092380D01*
X174775857Y-40092380D01*
X174871095Y-40140000D01*
X174918714Y-40187619D01*
X174966333Y-40282857D01*
X174966333Y-40425714D01*
X174918714Y-40520952D01*
X174871095Y-40568571D01*
X174775857Y-40616190D01*
X174394904Y-40616190D01*
X175823476Y-40092380D02*
X175633000Y-40092380D01*
X175537761Y-40140000D01*
X175490142Y-40187619D01*
X175394904Y-40330476D01*
X175347285Y-40520952D01*
X175347285Y-40901904D01*
X175394904Y-40997142D01*
X175442523Y-41044761D01*
X175537761Y-41092380D01*
X175728238Y-41092380D01*
X175823476Y-41044761D01*
X175871095Y-40997142D01*
X175918714Y-40901904D01*
X175918714Y-40663809D01*
X175871095Y-40568571D01*
X175823476Y-40520952D01*
X175728238Y-40473333D01*
X175537761Y-40473333D01*
X175442523Y-40520952D01*
X175394904Y-40568571D01*
X175347285Y-40663809D01*
X174918714Y-47696380D02*
X174347285Y-47696380D01*
X174633000Y-47696380D02*
X174633000Y-46696380D01*
X174537761Y-46839238D01*
X174442523Y-46934476D01*
X174347285Y-46982095D01*
X175347285Y-47696380D02*
X175347285Y-46696380D01*
X175918714Y-47696380D02*
X175490142Y-47124952D01*
X175918714Y-46696380D02*
X175347285Y-47267809D01*
X171537333Y-41092380D02*
X171204000Y-40616190D01*
X170965904Y-41092380D02*
X170965904Y-40092380D01*
X171346857Y-40092380D01*
X171442095Y-40140000D01*
X171489714Y-40187619D01*
X171537333Y-40282857D01*
X171537333Y-40425714D01*
X171489714Y-40520952D01*
X171442095Y-40568571D01*
X171346857Y-40616190D01*
X170965904Y-40616190D01*
X172442095Y-40092380D02*
X171965904Y-40092380D01*
X171918285Y-40568571D01*
X171965904Y-40520952D01*
X172061142Y-40473333D01*
X172299238Y-40473333D01*
X172394476Y-40520952D01*
X172442095Y-40568571D01*
X172489714Y-40663809D01*
X172489714Y-40901904D01*
X172442095Y-40997142D01*
X172394476Y-41044761D01*
X172299238Y-41092380D01*
X172061142Y-41092380D01*
X171965904Y-41044761D01*
X171918285Y-40997142D01*
X171013523Y-47696380D02*
X170442095Y-47696380D01*
X170727809Y-47696380D02*
X170727809Y-46696380D01*
X170632571Y-46839238D01*
X170537333Y-46934476D01*
X170442095Y-46982095D01*
X171632571Y-46696380D02*
X171727809Y-46696380D01*
X171823047Y-46744000D01*
X171870666Y-46791619D01*
X171918285Y-46886857D01*
X171965904Y-47077333D01*
X171965904Y-47315428D01*
X171918285Y-47505904D01*
X171870666Y-47601142D01*
X171823047Y-47648761D01*
X171727809Y-47696380D01*
X171632571Y-47696380D01*
X171537333Y-47648761D01*
X171489714Y-47601142D01*
X171442095Y-47505904D01*
X171394476Y-47315428D01*
X171394476Y-47077333D01*
X171442095Y-46886857D01*
X171489714Y-46791619D01*
X171537333Y-46744000D01*
X171632571Y-46696380D01*
X172394476Y-47696380D02*
X172394476Y-46696380D01*
X172965904Y-47696380D02*
X172537333Y-47124952D01*
X172965904Y-46696380D02*
X172394476Y-47267809D01*
X139533333Y-97607380D02*
X139200000Y-97131190D01*
X138961904Y-97607380D02*
X138961904Y-96607380D01*
X139342857Y-96607380D01*
X139438095Y-96655000D01*
X139485714Y-96702619D01*
X139533333Y-96797857D01*
X139533333Y-96940714D01*
X139485714Y-97035952D01*
X139438095Y-97083571D01*
X139342857Y-97131190D01*
X138961904Y-97131190D01*
X140390476Y-96940714D02*
X140390476Y-97607380D01*
X140152380Y-96559761D02*
X139914285Y-97274047D01*
X140533333Y-97274047D01*
X137247380Y-95265714D02*
X137247380Y-94646666D01*
X137628333Y-94980000D01*
X137628333Y-94837142D01*
X137675952Y-94741904D01*
X137723571Y-94694285D01*
X137818809Y-94646666D01*
X138056904Y-94646666D01*
X138152142Y-94694285D01*
X138199761Y-94741904D01*
X138247380Y-94837142D01*
X138247380Y-95122857D01*
X138199761Y-95218095D01*
X138152142Y-95265714D01*
X137247380Y-94313333D02*
X137247380Y-93694285D01*
X137628333Y-94027619D01*
X137628333Y-93884761D01*
X137675952Y-93789523D01*
X137723571Y-93741904D01*
X137818809Y-93694285D01*
X138056904Y-93694285D01*
X138152142Y-93741904D01*
X138199761Y-93789523D01*
X138247380Y-93884761D01*
X138247380Y-94170476D01*
X138199761Y-94265714D01*
X138152142Y-94313333D01*
X137247380Y-93075238D02*
X137247380Y-92980000D01*
X137295000Y-92884761D01*
X137342619Y-92837142D01*
X137437857Y-92789523D01*
X137628333Y-92741904D01*
X137866428Y-92741904D01*
X138056904Y-92789523D01*
X138152142Y-92837142D01*
X138199761Y-92884761D01*
X138247380Y-92980000D01*
X138247380Y-93075238D01*
X138199761Y-93170476D01*
X138152142Y-93218095D01*
X138056904Y-93265714D01*
X137866428Y-93313333D01*
X137628333Y-93313333D01*
X137437857Y-93265714D01*
X137342619Y-93218095D01*
X137295000Y-93170476D01*
X137247380Y-93075238D01*
X143978333Y-97607380D02*
X143645000Y-97131190D01*
X143406904Y-97607380D02*
X143406904Y-96607380D01*
X143787857Y-96607380D01*
X143883095Y-96655000D01*
X143930714Y-96702619D01*
X143978333Y-96797857D01*
X143978333Y-96940714D01*
X143930714Y-97035952D01*
X143883095Y-97083571D01*
X143787857Y-97131190D01*
X143406904Y-97131190D01*
X144311666Y-96607380D02*
X144930714Y-96607380D01*
X144597380Y-96988333D01*
X144740238Y-96988333D01*
X144835476Y-97035952D01*
X144883095Y-97083571D01*
X144930714Y-97178809D01*
X144930714Y-97416904D01*
X144883095Y-97512142D01*
X144835476Y-97559761D01*
X144740238Y-97607380D01*
X144454523Y-97607380D01*
X144359285Y-97559761D01*
X144311666Y-97512142D01*
X141692380Y-95265714D02*
X141692380Y-94646666D01*
X142073333Y-94980000D01*
X142073333Y-94837142D01*
X142120952Y-94741904D01*
X142168571Y-94694285D01*
X142263809Y-94646666D01*
X142501904Y-94646666D01*
X142597142Y-94694285D01*
X142644761Y-94741904D01*
X142692380Y-94837142D01*
X142692380Y-95122857D01*
X142644761Y-95218095D01*
X142597142Y-95265714D01*
X141692380Y-94313333D02*
X141692380Y-93694285D01*
X142073333Y-94027619D01*
X142073333Y-93884761D01*
X142120952Y-93789523D01*
X142168571Y-93741904D01*
X142263809Y-93694285D01*
X142501904Y-93694285D01*
X142597142Y-93741904D01*
X142644761Y-93789523D01*
X142692380Y-93884761D01*
X142692380Y-94170476D01*
X142644761Y-94265714D01*
X142597142Y-94313333D01*
X141692380Y-93075238D02*
X141692380Y-92980000D01*
X141740000Y-92884761D01*
X141787619Y-92837142D01*
X141882857Y-92789523D01*
X142073333Y-92741904D01*
X142311428Y-92741904D01*
X142501904Y-92789523D01*
X142597142Y-92837142D01*
X142644761Y-92884761D01*
X142692380Y-92980000D01*
X142692380Y-93075238D01*
X142644761Y-93170476D01*
X142597142Y-93218095D01*
X142501904Y-93265714D01*
X142311428Y-93313333D01*
X142073333Y-93313333D01*
X141882857Y-93265714D01*
X141787619Y-93218095D01*
X141740000Y-93170476D01*
X141692380Y-93075238D01*
X134072333Y-80081380D02*
X133739000Y-79605190D01*
X133500904Y-80081380D02*
X133500904Y-79081380D01*
X133881857Y-79081380D01*
X133977095Y-79129000D01*
X134024714Y-79176619D01*
X134072333Y-79271857D01*
X134072333Y-79414714D01*
X134024714Y-79509952D01*
X133977095Y-79557571D01*
X133881857Y-79605190D01*
X133500904Y-79605190D01*
X134453285Y-79176619D02*
X134500904Y-79129000D01*
X134596142Y-79081380D01*
X134834238Y-79081380D01*
X134929476Y-79129000D01*
X134977095Y-79176619D01*
X135024714Y-79271857D01*
X135024714Y-79367095D01*
X134977095Y-79509952D01*
X134405666Y-80081380D01*
X135024714Y-80081380D01*
X136636285Y-81113380D02*
X137255333Y-81113380D01*
X136922000Y-81494333D01*
X137064857Y-81494333D01*
X137160095Y-81541952D01*
X137207714Y-81589571D01*
X137255333Y-81684809D01*
X137255333Y-81922904D01*
X137207714Y-82018142D01*
X137160095Y-82065761D01*
X137064857Y-82113380D01*
X136779142Y-82113380D01*
X136683904Y-82065761D01*
X136636285Y-82018142D01*
X137588666Y-81113380D02*
X138207714Y-81113380D01*
X137874380Y-81494333D01*
X138017238Y-81494333D01*
X138112476Y-81541952D01*
X138160095Y-81589571D01*
X138207714Y-81684809D01*
X138207714Y-81922904D01*
X138160095Y-82018142D01*
X138112476Y-82065761D01*
X138017238Y-82113380D01*
X137731523Y-82113380D01*
X137636285Y-82065761D01*
X137588666Y-82018142D01*
X138826761Y-81113380D02*
X138922000Y-81113380D01*
X139017238Y-81161000D01*
X139064857Y-81208619D01*
X139112476Y-81303857D01*
X139160095Y-81494333D01*
X139160095Y-81732428D01*
X139112476Y-81922904D01*
X139064857Y-82018142D01*
X139017238Y-82065761D01*
X138922000Y-82113380D01*
X138826761Y-82113380D01*
X138731523Y-82065761D01*
X138683904Y-82018142D01*
X138636285Y-81922904D01*
X138588666Y-81732428D01*
X138588666Y-81494333D01*
X138636285Y-81303857D01*
X138683904Y-81208619D01*
X138731523Y-81161000D01*
X138826761Y-81113380D01*
X148423333Y-97607380D02*
X148090000Y-97131190D01*
X147851904Y-97607380D02*
X147851904Y-96607380D01*
X148232857Y-96607380D01*
X148328095Y-96655000D01*
X148375714Y-96702619D01*
X148423333Y-96797857D01*
X148423333Y-96940714D01*
X148375714Y-97035952D01*
X148328095Y-97083571D01*
X148232857Y-97131190D01*
X147851904Y-97131190D01*
X149375714Y-97607380D02*
X148804285Y-97607380D01*
X149090000Y-97607380D02*
X149090000Y-96607380D01*
X148994761Y-96750238D01*
X148899523Y-96845476D01*
X148804285Y-96893095D01*
X146137380Y-95265714D02*
X146137380Y-94646666D01*
X146518333Y-94980000D01*
X146518333Y-94837142D01*
X146565952Y-94741904D01*
X146613571Y-94694285D01*
X146708809Y-94646666D01*
X146946904Y-94646666D01*
X147042142Y-94694285D01*
X147089761Y-94741904D01*
X147137380Y-94837142D01*
X147137380Y-95122857D01*
X147089761Y-95218095D01*
X147042142Y-95265714D01*
X146137380Y-94313333D02*
X146137380Y-93694285D01*
X146518333Y-94027619D01*
X146518333Y-93884761D01*
X146565952Y-93789523D01*
X146613571Y-93741904D01*
X146708809Y-93694285D01*
X146946904Y-93694285D01*
X147042142Y-93741904D01*
X147089761Y-93789523D01*
X147137380Y-93884761D01*
X147137380Y-94170476D01*
X147089761Y-94265714D01*
X147042142Y-94313333D01*
X146137380Y-93075238D02*
X146137380Y-92980000D01*
X146185000Y-92884761D01*
X146232619Y-92837142D01*
X146327857Y-92789523D01*
X146518333Y-92741904D01*
X146756428Y-92741904D01*
X146946904Y-92789523D01*
X147042142Y-92837142D01*
X147089761Y-92884761D01*
X147137380Y-92980000D01*
X147137380Y-93075238D01*
X147089761Y-93170476D01*
X147042142Y-93218095D01*
X146946904Y-93265714D01*
X146756428Y-93313333D01*
X146518333Y-93313333D01*
X146327857Y-93265714D01*
X146232619Y-93218095D01*
X146185000Y-93170476D01*
X146137380Y-93075238D01*
D11*
X155940666Y-27884380D02*
X155940666Y-26884380D01*
X156369238Y-26979619D02*
X156416857Y-26932000D01*
X156512095Y-26884380D01*
X156750190Y-26884380D01*
X156845428Y-26932000D01*
X156893047Y-26979619D01*
X156940666Y-27074857D01*
X156940666Y-27170095D01*
X156893047Y-27312952D01*
X156321619Y-27884380D01*
X156940666Y-27884380D01*
X157940666Y-27789142D02*
X157893047Y-27836761D01*
X157750190Y-27884380D01*
X157654952Y-27884380D01*
X157512095Y-27836761D01*
X157416857Y-27741523D01*
X157369238Y-27646285D01*
X157321619Y-27455809D01*
X157321619Y-27312952D01*
X157369238Y-27122476D01*
X157416857Y-27027238D01*
X157512095Y-26932000D01*
X157654952Y-26884380D01*
X157750190Y-26884380D01*
X157893047Y-26932000D01*
X157940666Y-26979619D01*
X158131142Y-27979619D02*
X158893047Y-27979619D01*
X159131142Y-27884380D02*
X159131142Y-26884380D01*
X159369238Y-26884380D01*
X159512095Y-26932000D01*
X159607333Y-27027238D01*
X159654952Y-27122476D01*
X159702571Y-27312952D01*
X159702571Y-27455809D01*
X159654952Y-27646285D01*
X159607333Y-27741523D01*
X159512095Y-27836761D01*
X159369238Y-27884380D01*
X159131142Y-27884380D01*
X160131142Y-27884380D02*
X160131142Y-26884380D01*
X160559714Y-27836761D02*
X160702571Y-27884380D01*
X160940666Y-27884380D01*
X161035904Y-27836761D01*
X161083523Y-27789142D01*
X161131142Y-27693904D01*
X161131142Y-27598666D01*
X161083523Y-27503428D01*
X161035904Y-27455809D01*
X160940666Y-27408190D01*
X160750190Y-27360571D01*
X160654952Y-27312952D01*
X160607333Y-27265333D01*
X160559714Y-27170095D01*
X160559714Y-27074857D01*
X160607333Y-26979619D01*
X160654952Y-26932000D01*
X160750190Y-26884380D01*
X160988285Y-26884380D01*
X161131142Y-26932000D01*
X161559714Y-27884380D02*
X161559714Y-26884380D01*
X161940666Y-26884380D01*
X162035904Y-26932000D01*
X162083523Y-26979619D01*
X162131142Y-27074857D01*
X162131142Y-27217714D01*
X162083523Y-27312952D01*
X162035904Y-27360571D01*
X161940666Y-27408190D01*
X161559714Y-27408190D01*
X163035904Y-27884380D02*
X162559714Y-27884380D01*
X162559714Y-26884380D01*
X163321619Y-27598666D02*
X163797809Y-27598666D01*
X163226380Y-27884380D02*
X163559714Y-26884380D01*
X163893047Y-27884380D01*
X164416857Y-27408190D02*
X164416857Y-27884380D01*
X164083523Y-26884380D02*
X164416857Y-27408190D01*
X164750190Y-26884380D01*
X147899380Y-77564857D02*
X146899380Y-77564857D01*
X146899380Y-77183904D01*
X146947000Y-77088666D01*
X146994619Y-77041047D01*
X147089857Y-76993428D01*
X147232714Y-76993428D01*
X147327952Y-77041047D01*
X147375571Y-77088666D01*
X147423190Y-77183904D01*
X147423190Y-77564857D01*
X146899380Y-76660095D02*
X147899380Y-76422000D01*
X147185095Y-76231523D01*
X147899380Y-76041047D01*
X146899380Y-75802952D01*
X147899380Y-74850571D02*
X147423190Y-75183904D01*
X147899380Y-75422000D02*
X146899380Y-75422000D01*
X146899380Y-75041047D01*
X146947000Y-74945809D01*
X146994619Y-74898190D01*
X147089857Y-74850571D01*
X147232714Y-74850571D01*
X147327952Y-74898190D01*
X147375571Y-74945809D01*
X147423190Y-75041047D01*
X147423190Y-75422000D01*
X147994619Y-74660095D02*
X147994619Y-73898190D01*
X146899380Y-73469619D02*
X146899380Y-73279142D01*
X146947000Y-73183904D01*
X147042238Y-73088666D01*
X147232714Y-73041047D01*
X147566047Y-73041047D01*
X147756523Y-73088666D01*
X147851761Y-73183904D01*
X147899380Y-73279142D01*
X147899380Y-73469619D01*
X147851761Y-73564857D01*
X147756523Y-73660095D01*
X147566047Y-73707714D01*
X147232714Y-73707714D01*
X147042238Y-73660095D01*
X146947000Y-73564857D01*
X146899380Y-73469619D01*
X146899380Y-72612476D02*
X147708904Y-72612476D01*
X147804142Y-72564857D01*
X147851761Y-72517238D01*
X147899380Y-72422000D01*
X147899380Y-72231523D01*
X147851761Y-72136285D01*
X147804142Y-72088666D01*
X147708904Y-72041047D01*
X146899380Y-72041047D01*
X146899380Y-71707714D02*
X146899380Y-71136285D01*
X147899380Y-71422000D02*
X146899380Y-71422000D01*
X224496380Y-65103333D02*
X225210666Y-65103333D01*
X225353523Y-65150952D01*
X225448761Y-65246190D01*
X225496380Y-65389047D01*
X225496380Y-65484285D01*
X225496380Y-64103333D02*
X225496380Y-64674761D01*
X225496380Y-64389047D02*
X224496380Y-64389047D01*
X224639238Y-64484285D01*
X224734476Y-64579523D01*
X224782095Y-64674761D01*
D13*
X187825214Y-84653380D02*
X187825214Y-83653380D01*
X188063309Y-83653380D01*
X188206166Y-83701000D01*
X188301404Y-83796238D01*
X188349023Y-83891476D01*
X188396642Y-84081952D01*
X188396642Y-84224809D01*
X188349023Y-84415285D01*
X188301404Y-84510523D01*
X188206166Y-84605761D01*
X188063309Y-84653380D01*
X187825214Y-84653380D01*
X189349023Y-84653380D02*
X188777595Y-84653380D01*
X189063309Y-84653380D02*
X189063309Y-83653380D01*
X188968071Y-83796238D01*
X188872833Y-83891476D01*
X188777595Y-83939095D01*
X189968071Y-83653380D02*
X190063309Y-83653380D01*
X190158547Y-83701000D01*
X190206166Y-83748619D01*
X190253785Y-83843857D01*
X190301404Y-84034333D01*
X190301404Y-84272428D01*
X190253785Y-84462904D01*
X190206166Y-84558142D01*
X190158547Y-84605761D01*
X190063309Y-84653380D01*
X189968071Y-84653380D01*
X189872833Y-84605761D01*
X189825214Y-84558142D01*
X189777595Y-84462904D01*
X189729976Y-84272428D01*
X189729976Y-84034333D01*
X189777595Y-83843857D01*
X189825214Y-83748619D01*
X189872833Y-83701000D01*
X189968071Y-83653380D01*
D11*
X190904571Y-88819526D02*
X190952190Y-88676669D01*
X190999809Y-88629050D01*
X191095047Y-88581431D01*
X191237904Y-88581431D01*
X191333142Y-88629050D01*
X191380761Y-88676669D01*
X191428380Y-88771907D01*
X191428380Y-89152860D01*
X190428380Y-89152860D01*
X190428380Y-88819526D01*
X190476000Y-88724288D01*
X190523619Y-88676669D01*
X190618857Y-88629050D01*
X190714095Y-88629050D01*
X190809333Y-88676669D01*
X190856952Y-88724288D01*
X190904571Y-88819526D01*
X190904571Y-89152860D01*
X190761714Y-87724288D02*
X191428380Y-87724288D01*
X190761714Y-88152860D02*
X191285523Y-88152860D01*
X191380761Y-88105240D01*
X191428380Y-88010002D01*
X191428380Y-87867145D01*
X191380761Y-87771907D01*
X191333142Y-87724288D01*
X191380761Y-87295717D02*
X191428380Y-87200479D01*
X191428380Y-87010002D01*
X191380761Y-86914764D01*
X191285523Y-86867145D01*
X191237904Y-86867145D01*
X191142666Y-86914764D01*
X191095047Y-87010002D01*
X191095047Y-87152860D01*
X191047428Y-87248098D01*
X190952190Y-87295717D01*
X190904571Y-87295717D01*
X190809333Y-87248098D01*
X190761714Y-87152860D01*
X190761714Y-87010002D01*
X190809333Y-86914764D01*
X190761714Y-86533812D02*
X191428380Y-86295717D01*
X190761714Y-86057621D02*
X191428380Y-86295717D01*
X191666476Y-86390955D01*
X191714095Y-86438574D01*
X191761714Y-86533812D01*
D13*
X174648904Y-84716880D02*
X174648904Y-83716880D01*
X174887000Y-83716880D01*
X175029857Y-83764500D01*
X175125095Y-83859738D01*
X175172714Y-83954976D01*
X175220333Y-84145452D01*
X175220333Y-84288309D01*
X175172714Y-84478785D01*
X175125095Y-84574023D01*
X175029857Y-84669261D01*
X174887000Y-84716880D01*
X174648904Y-84716880D01*
X175696523Y-84716880D02*
X175887000Y-84716880D01*
X175982238Y-84669261D01*
X176029857Y-84621642D01*
X176125095Y-84478785D01*
X176172714Y-84288309D01*
X176172714Y-83907357D01*
X176125095Y-83812119D01*
X176077476Y-83764500D01*
X175982238Y-83716880D01*
X175791761Y-83716880D01*
X175696523Y-83764500D01*
X175648904Y-83812119D01*
X175601285Y-83907357D01*
X175601285Y-84145452D01*
X175648904Y-84240690D01*
X175696523Y-84288309D01*
X175791761Y-84335928D01*
X175982238Y-84335928D01*
X176077476Y-84288309D01*
X176125095Y-84240690D01*
X176172714Y-84145452D01*
D11*
X177553666Y-90653809D02*
X177553666Y-90177619D01*
X177839380Y-90749047D02*
X176839380Y-90415714D01*
X177839380Y-90082380D01*
X177172714Y-89320476D02*
X177839380Y-89320476D01*
X177172714Y-89749047D02*
X177696523Y-89749047D01*
X177791761Y-89701428D01*
X177839380Y-89606190D01*
X177839380Y-89463333D01*
X177791761Y-89368095D01*
X177744142Y-89320476D01*
X177172714Y-88987142D02*
X177172714Y-88606190D01*
X176839380Y-88844285D02*
X177696523Y-88844285D01*
X177791761Y-88796666D01*
X177839380Y-88701428D01*
X177839380Y-88606190D01*
X177839380Y-88130000D02*
X177791761Y-88225238D01*
X177744142Y-88272857D01*
X177648904Y-88320476D01*
X177363190Y-88320476D01*
X177267952Y-88272857D01*
X177220333Y-88225238D01*
X177172714Y-88130000D01*
X177172714Y-87987142D01*
X177220333Y-87891904D01*
X177267952Y-87844285D01*
X177363190Y-87796666D01*
X177648904Y-87796666D01*
X177744142Y-87844285D01*
X177791761Y-87891904D01*
X177839380Y-87987142D01*
X177839380Y-88130000D01*
X177172714Y-87510952D02*
X177172714Y-87130000D01*
X177839380Y-87368095D02*
X176982238Y-87368095D01*
X176887000Y-87320476D01*
X176839380Y-87225238D01*
X176839380Y-87130000D01*
X177791761Y-86415714D02*
X177839380Y-86510952D01*
X177839380Y-86701428D01*
X177791761Y-86796666D01*
X177696523Y-86844285D01*
X177315571Y-86844285D01*
X177220333Y-86796666D01*
X177172714Y-86701428D01*
X177172714Y-86510952D01*
X177220333Y-86415714D01*
X177315571Y-86368095D01*
X177410809Y-86368095D01*
X177506047Y-86844285D01*
X177791761Y-85558571D02*
X177839380Y-85653809D01*
X177839380Y-85844285D01*
X177791761Y-85939523D01*
X177696523Y-85987142D01*
X177315571Y-85987142D01*
X177220333Y-85939523D01*
X177172714Y-85844285D01*
X177172714Y-85653809D01*
X177220333Y-85558571D01*
X177315571Y-85510952D01*
X177410809Y-85510952D01*
X177506047Y-85987142D01*
X177839380Y-84653809D02*
X176839380Y-84653809D01*
X177791761Y-84653809D02*
X177839380Y-84749047D01*
X177839380Y-84939523D01*
X177791761Y-85034761D01*
X177744142Y-85082380D01*
X177648904Y-85130000D01*
X177363190Y-85130000D01*
X177267952Y-85082380D01*
X177220333Y-85034761D01*
X177172714Y-84939523D01*
X177172714Y-84749047D01*
X177220333Y-84653809D01*
D13*
X179157404Y-84716880D02*
X179157404Y-83716880D01*
X179395500Y-83716880D01*
X179538357Y-83764500D01*
X179633595Y-83859738D01*
X179681214Y-83954976D01*
X179728833Y-84145452D01*
X179728833Y-84288309D01*
X179681214Y-84478785D01*
X179633595Y-84574023D01*
X179538357Y-84669261D01*
X179395500Y-84716880D01*
X179157404Y-84716880D01*
X180300261Y-84145452D02*
X180205023Y-84097833D01*
X180157404Y-84050214D01*
X180109785Y-83954976D01*
X180109785Y-83907357D01*
X180157404Y-83812119D01*
X180205023Y-83764500D01*
X180300261Y-83716880D01*
X180490738Y-83716880D01*
X180585976Y-83764500D01*
X180633595Y-83812119D01*
X180681214Y-83907357D01*
X180681214Y-83954976D01*
X180633595Y-84050214D01*
X180585976Y-84097833D01*
X180490738Y-84145452D01*
X180300261Y-84145452D01*
X180205023Y-84193071D01*
X180157404Y-84240690D01*
X180109785Y-84335928D01*
X180109785Y-84526404D01*
X180157404Y-84621642D01*
X180205023Y-84669261D01*
X180300261Y-84716880D01*
X180490738Y-84716880D01*
X180585976Y-84669261D01*
X180633595Y-84621642D01*
X180681214Y-84526404D01*
X180681214Y-84335928D01*
X180633595Y-84240690D01*
X180585976Y-84193071D01*
X180490738Y-84145452D01*
D11*
X181411380Y-89677619D02*
X181411380Y-89487142D01*
X181459000Y-89391904D01*
X181554238Y-89296666D01*
X181744714Y-89249047D01*
X182078047Y-89249047D01*
X182268523Y-89296666D01*
X182363761Y-89391904D01*
X182411380Y-89487142D01*
X182411380Y-89677619D01*
X182363761Y-89772857D01*
X182268523Y-89868095D01*
X182078047Y-89915714D01*
X181744714Y-89915714D01*
X181554238Y-89868095D01*
X181459000Y-89772857D01*
X181411380Y-89677619D01*
X181744714Y-88963333D02*
X181744714Y-88582380D01*
X182411380Y-88820476D02*
X181554238Y-88820476D01*
X181459000Y-88772857D01*
X181411380Y-88677619D01*
X181411380Y-88582380D01*
X181744714Y-88391904D02*
X181744714Y-88010952D01*
X182411380Y-88249047D02*
X181554238Y-88249047D01*
X181459000Y-88201428D01*
X181411380Y-88106190D01*
X181411380Y-88010952D01*
X182411380Y-87534761D02*
X182363761Y-87630000D01*
X182268523Y-87677619D01*
X181411380Y-87677619D01*
X182411380Y-87153809D02*
X181744714Y-87153809D01*
X181411380Y-87153809D02*
X181459000Y-87201428D01*
X181506619Y-87153809D01*
X181459000Y-87106190D01*
X181411380Y-87153809D01*
X181506619Y-87153809D01*
X181744714Y-86677619D02*
X182411380Y-86677619D01*
X181839952Y-86677619D02*
X181792333Y-86630000D01*
X181744714Y-86534761D01*
X181744714Y-86391904D01*
X181792333Y-86296666D01*
X181887571Y-86249047D01*
X182411380Y-86249047D01*
X182363761Y-85391904D02*
X182411380Y-85487142D01*
X182411380Y-85677619D01*
X182363761Y-85772857D01*
X182268523Y-85820476D01*
X181887571Y-85820476D01*
X181792333Y-85772857D01*
X181744714Y-85677619D01*
X181744714Y-85487142D01*
X181792333Y-85391904D01*
X181887571Y-85344285D01*
X181982809Y-85344285D01*
X182078047Y-85820476D01*
D13*
X183665904Y-84653380D02*
X183665904Y-83653380D01*
X183904000Y-83653380D01*
X184046857Y-83701000D01*
X184142095Y-83796238D01*
X184189714Y-83891476D01*
X184237333Y-84081952D01*
X184237333Y-84224809D01*
X184189714Y-84415285D01*
X184142095Y-84510523D01*
X184046857Y-84605761D01*
X183904000Y-84653380D01*
X183665904Y-84653380D01*
X184570666Y-83653380D02*
X185237333Y-83653380D01*
X184808761Y-84653380D01*
D11*
X186332571Y-89225238D02*
X186332571Y-88891904D01*
X186856380Y-88749047D02*
X186856380Y-89225238D01*
X185856380Y-89225238D01*
X185856380Y-88749047D01*
X186856380Y-88320476D02*
X186189714Y-88320476D01*
X186380190Y-88320476D02*
X186284952Y-88272857D01*
X186237333Y-88225238D01*
X186189714Y-88130000D01*
X186189714Y-88034761D01*
X186856380Y-87701428D02*
X186189714Y-87701428D01*
X186380190Y-87701428D02*
X186284952Y-87653809D01*
X186237333Y-87606190D01*
X186189714Y-87510952D01*
X186189714Y-87415714D01*
X186856380Y-86939523D02*
X186808761Y-87034761D01*
X186761142Y-87082380D01*
X186665904Y-87130000D01*
X186380190Y-87130000D01*
X186284952Y-87082380D01*
X186237333Y-87034761D01*
X186189714Y-86939523D01*
X186189714Y-86796666D01*
X186237333Y-86701428D01*
X186284952Y-86653809D01*
X186380190Y-86606190D01*
X186665904Y-86606190D01*
X186761142Y-86653809D01*
X186808761Y-86701428D01*
X186856380Y-86796666D01*
X186856380Y-86939523D01*
X186856380Y-86177619D02*
X186189714Y-86177619D01*
X186380190Y-86177619D02*
X186284952Y-86130000D01*
X186237333Y-86082380D01*
X186189714Y-85987142D01*
X186189714Y-85891904D01*
D13*
X184157880Y-38139595D02*
X183157880Y-38139595D01*
X183157880Y-37901500D01*
X183205500Y-37758642D01*
X183300738Y-37663404D01*
X183395976Y-37615785D01*
X183586452Y-37568166D01*
X183729309Y-37568166D01*
X183919785Y-37615785D01*
X184015023Y-37663404D01*
X184110261Y-37758642D01*
X184157880Y-37901500D01*
X184157880Y-38139595D01*
X183157880Y-36711023D02*
X183157880Y-36901500D01*
X183205500Y-36996738D01*
X183253119Y-37044357D01*
X183395976Y-37139595D01*
X183586452Y-37187214D01*
X183967404Y-37187214D01*
X184062642Y-37139595D01*
X184110261Y-37091976D01*
X184157880Y-36996738D01*
X184157880Y-36806261D01*
X184110261Y-36711023D01*
X184062642Y-36663404D01*
X183967404Y-36615785D01*
X183729309Y-36615785D01*
X183634071Y-36663404D01*
X183586452Y-36711023D01*
X183538833Y-36806261D01*
X183538833Y-36996738D01*
X183586452Y-37091976D01*
X183634071Y-37139595D01*
X183729309Y-37187214D01*
X184157880Y-38139595D02*
X183157880Y-38139595D01*
X183157880Y-37901500D01*
X183205500Y-37758642D01*
X183300738Y-37663404D01*
X183395976Y-37615785D01*
X183586452Y-37568166D01*
X183729309Y-37568166D01*
X183919785Y-37615785D01*
X184015023Y-37663404D01*
X184110261Y-37758642D01*
X184157880Y-37901500D01*
X184157880Y-38139595D01*
X183157880Y-36711023D02*
X183157880Y-36901500D01*
X183205500Y-36996738D01*
X183253119Y-37044357D01*
X183395976Y-37139595D01*
X183586452Y-37187214D01*
X183967404Y-37187214D01*
X184062642Y-37139595D01*
X184110261Y-37091976D01*
X184157880Y-36996738D01*
X184157880Y-36806261D01*
X184110261Y-36711023D01*
X184062642Y-36663404D01*
X183967404Y-36615785D01*
X183729309Y-36615785D01*
X183634071Y-36663404D01*
X183586452Y-36711023D01*
X183538833Y-36806261D01*
X183538833Y-36996738D01*
X183586452Y-37091976D01*
X183634071Y-37139595D01*
X183729309Y-37187214D01*
X173680380Y-38076095D02*
X172680380Y-38076095D01*
X172680380Y-37838000D01*
X172728000Y-37695142D01*
X172823238Y-37599904D01*
X172918476Y-37552285D01*
X173108952Y-37504666D01*
X173251809Y-37504666D01*
X173442285Y-37552285D01*
X173537523Y-37599904D01*
X173632761Y-37695142D01*
X173680380Y-37838000D01*
X173680380Y-38076095D01*
X172680380Y-36599904D02*
X172680380Y-37076095D01*
X173156571Y-37123714D01*
X173108952Y-37076095D01*
X173061333Y-36980857D01*
X173061333Y-36742761D01*
X173108952Y-36647523D01*
X173156571Y-36599904D01*
X173251809Y-36552285D01*
X173489904Y-36552285D01*
X173585142Y-36599904D01*
X173632761Y-36647523D01*
X173680380Y-36742761D01*
X173680380Y-36980857D01*
X173632761Y-37076095D01*
X173585142Y-37123714D01*
X173680380Y-38076095D02*
X172680380Y-38076095D01*
X172680380Y-37838000D01*
X172728000Y-37695142D01*
X172823238Y-37599904D01*
X172918476Y-37552285D01*
X173108952Y-37504666D01*
X173251809Y-37504666D01*
X173442285Y-37552285D01*
X173537523Y-37599904D01*
X173632761Y-37695142D01*
X173680380Y-37838000D01*
X173680380Y-38076095D01*
X172680380Y-36599904D02*
X172680380Y-37076095D01*
X173156571Y-37123714D01*
X173108952Y-37076095D01*
X173061333Y-36980857D01*
X173061333Y-36742761D01*
X173108952Y-36647523D01*
X173156571Y-36599904D01*
X173251809Y-36552285D01*
X173489904Y-36552285D01*
X173585142Y-36599904D01*
X173632761Y-36647523D01*
X173680380Y-36742761D01*
X173680380Y-36980857D01*
X173632761Y-37076095D01*
X173585142Y-37123714D01*
X138961904Y-84907380D02*
X138961904Y-83907380D01*
X139200000Y-83907380D01*
X139342857Y-83955000D01*
X139438095Y-84050238D01*
X139485714Y-84145476D01*
X139533333Y-84335952D01*
X139533333Y-84478809D01*
X139485714Y-84669285D01*
X139438095Y-84764523D01*
X139342857Y-84859761D01*
X139200000Y-84907380D01*
X138961904Y-84907380D01*
X140390476Y-84240714D02*
X140390476Y-84907380D01*
X140152380Y-83859761D02*
X139914285Y-84574047D01*
X140533333Y-84574047D01*
D11*
X142104761Y-89582380D02*
X142152380Y-89439523D01*
X142152380Y-89201428D01*
X142104761Y-89106190D01*
X142057142Y-89058571D01*
X141961904Y-89010952D01*
X141866666Y-89010952D01*
X141771428Y-89058571D01*
X141723809Y-89106190D01*
X141676190Y-89201428D01*
X141628571Y-89391904D01*
X141580952Y-89487142D01*
X141533333Y-89534761D01*
X141438095Y-89582380D01*
X141342857Y-89582380D01*
X141247619Y-89534761D01*
X141200000Y-89487142D01*
X141152380Y-89391904D01*
X141152380Y-89153809D01*
X141200000Y-89010952D01*
X141152380Y-88725238D02*
X141152380Y-88153809D01*
X142152380Y-88439523D02*
X141152380Y-88439523D01*
X141866666Y-87868095D02*
X141866666Y-87391904D01*
X142152380Y-87963333D02*
X141152380Y-87630000D01*
X142152380Y-87296666D01*
X141152380Y-87106190D02*
X141152380Y-86534761D01*
X142152380Y-86820476D02*
X141152380Y-86820476D01*
X142152380Y-85677619D02*
X142152380Y-86249047D01*
X142152380Y-85963333D02*
X141152380Y-85963333D01*
X141295238Y-86058571D01*
X141390476Y-86153809D01*
X141438095Y-86249047D01*
D13*
X138453904Y-71699380D02*
X138453904Y-70699380D01*
X138692000Y-70699380D01*
X138834857Y-70747000D01*
X138930095Y-70842238D01*
X138977714Y-70937476D01*
X139025333Y-71127952D01*
X139025333Y-71270809D01*
X138977714Y-71461285D01*
X138930095Y-71556523D01*
X138834857Y-71651761D01*
X138692000Y-71699380D01*
X138453904Y-71699380D01*
X139358666Y-70699380D02*
X139977714Y-70699380D01*
X139644380Y-71080333D01*
X139787238Y-71080333D01*
X139882476Y-71127952D01*
X139930095Y-71175571D01*
X139977714Y-71270809D01*
X139977714Y-71508904D01*
X139930095Y-71604142D01*
X139882476Y-71651761D01*
X139787238Y-71699380D01*
X139501523Y-71699380D01*
X139406285Y-71651761D01*
X139358666Y-71604142D01*
D11*
X141644380Y-75755333D02*
X140644380Y-75755333D01*
X140644380Y-75374380D01*
X140692000Y-75279142D01*
X140739619Y-75231523D01*
X140834857Y-75183904D01*
X140977714Y-75183904D01*
X141072952Y-75231523D01*
X141120571Y-75279142D01*
X141168190Y-75374380D01*
X141168190Y-75755333D01*
X140644380Y-74850571D02*
X141644380Y-74612476D01*
X140930095Y-74422000D01*
X141644380Y-74231523D01*
X140644380Y-73993428D01*
X141644380Y-73041047D02*
X141168190Y-73374380D01*
X141644380Y-73612476D02*
X140644380Y-73612476D01*
X140644380Y-73231523D01*
X140692000Y-73136285D01*
X140739619Y-73088666D01*
X140834857Y-73041047D01*
X140977714Y-73041047D01*
X141072952Y-73088666D01*
X141120571Y-73136285D01*
X141168190Y-73231523D01*
X141168190Y-73612476D01*
D13*
X143406904Y-84907380D02*
X143406904Y-83907380D01*
X143645000Y-83907380D01*
X143787857Y-83955000D01*
X143883095Y-84050238D01*
X143930714Y-84145476D01*
X143978333Y-84335952D01*
X143978333Y-84478809D01*
X143930714Y-84669285D01*
X143883095Y-84764523D01*
X143787857Y-84859761D01*
X143645000Y-84907380D01*
X143406904Y-84907380D01*
X144359285Y-84002619D02*
X144406904Y-83955000D01*
X144502142Y-83907380D01*
X144740238Y-83907380D01*
X144835476Y-83955000D01*
X144883095Y-84002619D01*
X144930714Y-84097857D01*
X144930714Y-84193095D01*
X144883095Y-84335952D01*
X144311666Y-84907380D01*
X144930714Y-84907380D01*
D11*
X146549761Y-89582380D02*
X146597380Y-89439523D01*
X146597380Y-89201428D01*
X146549761Y-89106190D01*
X146502142Y-89058571D01*
X146406904Y-89010952D01*
X146311666Y-89010952D01*
X146216428Y-89058571D01*
X146168809Y-89106190D01*
X146121190Y-89201428D01*
X146073571Y-89391904D01*
X146025952Y-89487142D01*
X145978333Y-89534761D01*
X145883095Y-89582380D01*
X145787857Y-89582380D01*
X145692619Y-89534761D01*
X145645000Y-89487142D01*
X145597380Y-89391904D01*
X145597380Y-89153809D01*
X145645000Y-89010952D01*
X145597380Y-88725238D02*
X145597380Y-88153809D01*
X146597380Y-88439523D02*
X145597380Y-88439523D01*
X146311666Y-87868095D02*
X146311666Y-87391904D01*
X146597380Y-87963333D02*
X145597380Y-87630000D01*
X146597380Y-87296666D01*
X145597380Y-87106190D02*
X145597380Y-86534761D01*
X146597380Y-86820476D02*
X145597380Y-86820476D01*
X145692619Y-86249047D02*
X145645000Y-86201428D01*
X145597380Y-86106190D01*
X145597380Y-85868095D01*
X145645000Y-85772857D01*
X145692619Y-85725238D01*
X145787857Y-85677619D01*
X145883095Y-85677619D01*
X146025952Y-85725238D01*
X146597380Y-86296666D01*
X146597380Y-85677619D01*
D13*
X147851904Y-84907380D02*
X147851904Y-83907380D01*
X148090000Y-83907380D01*
X148232857Y-83955000D01*
X148328095Y-84050238D01*
X148375714Y-84145476D01*
X148423333Y-84335952D01*
X148423333Y-84478809D01*
X148375714Y-84669285D01*
X148328095Y-84764523D01*
X148232857Y-84859761D01*
X148090000Y-84907380D01*
X147851904Y-84907380D01*
X149375714Y-84907380D02*
X148804285Y-84907380D01*
X149090000Y-84907380D02*
X149090000Y-83907380D01*
X148994761Y-84050238D01*
X148899523Y-84145476D01*
X148804285Y-84193095D01*
D11*
X150994761Y-89582380D02*
X151042380Y-89439523D01*
X151042380Y-89201428D01*
X150994761Y-89106190D01*
X150947142Y-89058571D01*
X150851904Y-89010952D01*
X150756666Y-89010952D01*
X150661428Y-89058571D01*
X150613809Y-89106190D01*
X150566190Y-89201428D01*
X150518571Y-89391904D01*
X150470952Y-89487142D01*
X150423333Y-89534761D01*
X150328095Y-89582380D01*
X150232857Y-89582380D01*
X150137619Y-89534761D01*
X150090000Y-89487142D01*
X150042380Y-89391904D01*
X150042380Y-89153809D01*
X150090000Y-89010952D01*
X150042380Y-88725238D02*
X150042380Y-88153809D01*
X151042380Y-88439523D02*
X150042380Y-88439523D01*
X150756666Y-87868095D02*
X150756666Y-87391904D01*
X151042380Y-87963333D02*
X150042380Y-87630000D01*
X151042380Y-87296666D01*
X150042380Y-87106190D02*
X150042380Y-86534761D01*
X151042380Y-86820476D02*
X150042380Y-86820476D01*
X150042380Y-86296666D02*
X150042380Y-85677619D01*
X150423333Y-86010952D01*
X150423333Y-85868095D01*
X150470952Y-85772857D01*
X150518571Y-85725238D01*
X150613809Y-85677619D01*
X150851904Y-85677619D01*
X150947142Y-85725238D01*
X150994761Y-85772857D01*
X151042380Y-85868095D01*
X151042380Y-86153809D01*
X150994761Y-86249047D01*
X150947142Y-86296666D01*
X153963666Y-91646000D02*
X153963666Y-91169809D01*
X154249380Y-91741238D02*
X153249380Y-91407904D01*
X154249380Y-91074571D01*
X153249380Y-90884095D02*
X154249380Y-90550761D01*
X153249380Y-90217428D01*
X154249380Y-89312666D02*
X153773190Y-89646000D01*
X154249380Y-89884095D02*
X153249380Y-89884095D01*
X153249380Y-89503142D01*
X153297000Y-89407904D01*
X153344619Y-89360285D01*
X153439857Y-89312666D01*
X153582714Y-89312666D01*
X153677952Y-89360285D01*
X153725571Y-89407904D01*
X153773190Y-89503142D01*
X153773190Y-89884095D01*
X153868428Y-88884095D02*
X153868428Y-88122190D01*
X154249380Y-87646000D02*
X153249380Y-87646000D01*
X154201761Y-87217428D02*
X154249380Y-87074571D01*
X154249380Y-86836476D01*
X154201761Y-86741238D01*
X154154142Y-86693619D01*
X154058904Y-86646000D01*
X153963666Y-86646000D01*
X153868428Y-86693619D01*
X153820809Y-86741238D01*
X153773190Y-86836476D01*
X153725571Y-87026952D01*
X153677952Y-87122190D01*
X153630333Y-87169809D01*
X153535095Y-87217428D01*
X153439857Y-87217428D01*
X153344619Y-87169809D01*
X153297000Y-87122190D01*
X153249380Y-87026952D01*
X153249380Y-86788857D01*
X153297000Y-86646000D01*
X154249380Y-86217428D02*
X153249380Y-86217428D01*
X153249380Y-85836476D01*
X153297000Y-85741238D01*
X153344619Y-85693619D01*
X153439857Y-85646000D01*
X153582714Y-85646000D01*
X153677952Y-85693619D01*
X153725571Y-85741238D01*
X153773190Y-85836476D01*
X153773190Y-86217428D01*
D13*
X165425380Y-83359428D02*
X164425380Y-83359428D01*
X165139666Y-83026095D01*
X164425380Y-82692761D01*
X165425380Y-82692761D01*
X165425380Y-82216571D02*
X164425380Y-82216571D01*
X165377761Y-81788000D02*
X165425380Y-81645142D01*
X165425380Y-81407047D01*
X165377761Y-81311809D01*
X165330142Y-81264190D01*
X165234904Y-81216571D01*
X165139666Y-81216571D01*
X165044428Y-81264190D01*
X164996809Y-81311809D01*
X164949190Y-81407047D01*
X164901571Y-81597523D01*
X164853952Y-81692761D01*
X164806333Y-81740380D01*
X164711095Y-81788000D01*
X164615857Y-81788000D01*
X164520619Y-81740380D01*
X164473000Y-81692761D01*
X164425380Y-81597523D01*
X164425380Y-81359428D01*
X164473000Y-81216571D01*
X164425380Y-80597523D02*
X164425380Y-80407047D01*
X164473000Y-80311809D01*
X164568238Y-80216571D01*
X164758714Y-80168952D01*
X165092047Y-80168952D01*
X165282523Y-80216571D01*
X165377761Y-80311809D01*
X165425380Y-80407047D01*
X165425380Y-80597523D01*
X165377761Y-80692761D01*
X165282523Y-80788000D01*
X165092047Y-80835619D01*
X164758714Y-80835619D01*
X164568238Y-80788000D01*
X164473000Y-80692761D01*
X164425380Y-80597523D01*
X162837761Y-83327714D02*
X162885380Y-83184857D01*
X162885380Y-82946761D01*
X162837761Y-82851523D01*
X162790142Y-82803904D01*
X162694904Y-82756285D01*
X162599666Y-82756285D01*
X162504428Y-82803904D01*
X162456809Y-82851523D01*
X162409190Y-82946761D01*
X162361571Y-83137238D01*
X162313952Y-83232476D01*
X162266333Y-83280095D01*
X162171095Y-83327714D01*
X162075857Y-83327714D01*
X161980619Y-83280095D01*
X161933000Y-83232476D01*
X161885380Y-83137238D01*
X161885380Y-82899142D01*
X161933000Y-82756285D01*
X162790142Y-81756285D02*
X162837761Y-81803904D01*
X162885380Y-81946761D01*
X162885380Y-82042000D01*
X162837761Y-82184857D01*
X162742523Y-82280095D01*
X162647285Y-82327714D01*
X162456809Y-82375333D01*
X162313952Y-82375333D01*
X162123476Y-82327714D01*
X162028238Y-82280095D01*
X161933000Y-82184857D01*
X161885380Y-82042000D01*
X161885380Y-81946761D01*
X161933000Y-81803904D01*
X161980619Y-81756285D01*
X162885380Y-81327714D02*
X161885380Y-81327714D01*
X162885380Y-80756285D02*
X162313952Y-81184857D01*
X161885380Y-80756285D02*
X162456809Y-81327714D01*
X160345380Y-82589619D02*
X159869190Y-82922952D01*
X160345380Y-83161047D02*
X159345380Y-83161047D01*
X159345380Y-82780095D01*
X159393000Y-82684857D01*
X159440619Y-82637238D01*
X159535857Y-82589619D01*
X159678714Y-82589619D01*
X159773952Y-82637238D01*
X159821571Y-82684857D01*
X159869190Y-82780095D01*
X159869190Y-83161047D01*
X160297761Y-82208666D02*
X160345380Y-82065809D01*
X160345380Y-81827714D01*
X160297761Y-81732476D01*
X160250142Y-81684857D01*
X160154904Y-81637238D01*
X160059666Y-81637238D01*
X159964428Y-81684857D01*
X159916809Y-81732476D01*
X159869190Y-81827714D01*
X159821571Y-82018190D01*
X159773952Y-82113428D01*
X159726333Y-82161047D01*
X159631095Y-82208666D01*
X159535857Y-82208666D01*
X159440619Y-82161047D01*
X159393000Y-82113428D01*
X159345380Y-82018190D01*
X159345380Y-81780095D01*
X159393000Y-81637238D01*
X159345380Y-81351523D02*
X159345380Y-80780095D01*
X160345380Y-81065809D02*
X159345380Y-81065809D01*
X164425380Y-95948333D02*
X165425380Y-95615000D01*
X164425380Y-95281666D01*
X165330142Y-94376904D02*
X165377761Y-94424523D01*
X165425380Y-94567380D01*
X165425380Y-94662619D01*
X165377761Y-94805476D01*
X165282523Y-94900714D01*
X165187285Y-94948333D01*
X164996809Y-94995952D01*
X164853952Y-94995952D01*
X164663476Y-94948333D01*
X164568238Y-94900714D01*
X164473000Y-94805476D01*
X164425380Y-94662619D01*
X164425380Y-94567380D01*
X164473000Y-94424523D01*
X164520619Y-94376904D01*
X165330142Y-93376904D02*
X165377761Y-93424523D01*
X165425380Y-93567380D01*
X165425380Y-93662619D01*
X165377761Y-93805476D01*
X165282523Y-93900714D01*
X165187285Y-93948333D01*
X164996809Y-93995952D01*
X164853952Y-93995952D01*
X164663476Y-93948333D01*
X164568238Y-93900714D01*
X164473000Y-93805476D01*
X164425380Y-93662619D01*
X164425380Y-93567380D01*
X164473000Y-93424523D01*
X164520619Y-93376904D01*
X162885380Y-96567428D02*
X161885380Y-96567428D01*
X162599666Y-96234095D01*
X161885380Y-95900761D01*
X162885380Y-95900761D01*
X161885380Y-95234095D02*
X161885380Y-95043619D01*
X161933000Y-94948380D01*
X162028238Y-94853142D01*
X162218714Y-94805523D01*
X162552047Y-94805523D01*
X162742523Y-94853142D01*
X162837761Y-94948380D01*
X162885380Y-95043619D01*
X162885380Y-95234095D01*
X162837761Y-95329333D01*
X162742523Y-95424571D01*
X162552047Y-95472190D01*
X162218714Y-95472190D01*
X162028238Y-95424571D01*
X161933000Y-95329333D01*
X161885380Y-95234095D01*
X162837761Y-94424571D02*
X162885380Y-94281714D01*
X162885380Y-94043619D01*
X162837761Y-93948380D01*
X162790142Y-93900761D01*
X162694904Y-93853142D01*
X162599666Y-93853142D01*
X162504428Y-93900761D01*
X162456809Y-93948380D01*
X162409190Y-94043619D01*
X162361571Y-94234095D01*
X162313952Y-94329333D01*
X162266333Y-94376952D01*
X162171095Y-94424571D01*
X162075857Y-94424571D01*
X161980619Y-94376952D01*
X161933000Y-94329333D01*
X161885380Y-94234095D01*
X161885380Y-93996000D01*
X161933000Y-93853142D01*
X162885380Y-93424571D02*
X161885380Y-93424571D01*
X159139000Y-95503904D02*
X159091380Y-95599142D01*
X159091380Y-95742000D01*
X159139000Y-95884857D01*
X159234238Y-95980095D01*
X159329476Y-96027714D01*
X159519952Y-96075333D01*
X159662809Y-96075333D01*
X159853285Y-96027714D01*
X159948523Y-95980095D01*
X160043761Y-95884857D01*
X160091380Y-95742000D01*
X160091380Y-95646761D01*
X160043761Y-95503904D01*
X159996142Y-95456285D01*
X159662809Y-95456285D01*
X159662809Y-95646761D01*
X160091380Y-95027714D02*
X159091380Y-95027714D01*
X160091380Y-94456285D01*
X159091380Y-94456285D01*
X160091380Y-93980095D02*
X159091380Y-93980095D01*
X159091380Y-93742000D01*
X159139000Y-93599142D01*
X159234238Y-93503904D01*
X159329476Y-93456285D01*
X159519952Y-93408666D01*
X159662809Y-93408666D01*
X159853285Y-93456285D01*
X159948523Y-93503904D01*
X160043761Y-93599142D01*
X160091380Y-93742000D01*
X160091380Y-93980095D01*
X184618333Y-82272142D02*
X184570714Y-82319761D01*
X184427857Y-82367380D01*
X184332619Y-82367380D01*
X184189761Y-82319761D01*
X184094523Y-82224523D01*
X184046904Y-82129285D01*
X183999285Y-81938809D01*
X183999285Y-81795952D01*
X184046904Y-81605476D01*
X184094523Y-81510238D01*
X184189761Y-81415000D01*
X184332619Y-81367380D01*
X184427857Y-81367380D01*
X184570714Y-81415000D01*
X184618333Y-81462619D01*
X185094523Y-82367380D02*
X185285000Y-82367380D01*
X185380238Y-82319761D01*
X185427857Y-82272142D01*
X185523095Y-82129285D01*
X185570714Y-81938809D01*
X185570714Y-81557857D01*
X185523095Y-81462619D01*
X185475476Y-81415000D01*
X185380238Y-81367380D01*
X185189761Y-81367380D01*
X185094523Y-81415000D01*
X185046904Y-81462619D01*
X184999285Y-81557857D01*
X184999285Y-81795952D01*
X185046904Y-81891190D01*
X185094523Y-81938809D01*
X185189761Y-81986428D01*
X185380238Y-81986428D01*
X185475476Y-81938809D01*
X185523095Y-81891190D01*
X185570714Y-81795952D01*
X186410380Y-80200285D02*
X186410380Y-80105047D01*
X186458000Y-80009809D01*
X186505619Y-79962190D01*
X186600857Y-79914571D01*
X186791333Y-79866952D01*
X187029428Y-79866952D01*
X187219904Y-79914571D01*
X187315142Y-79962190D01*
X187362761Y-80009809D01*
X187410380Y-80105047D01*
X187410380Y-80200285D01*
X187362761Y-80295523D01*
X187315142Y-80343142D01*
X187219904Y-80390761D01*
X187029428Y-80438380D01*
X186791333Y-80438380D01*
X186600857Y-80390761D01*
X186505619Y-80343142D01*
X186458000Y-80295523D01*
X186410380Y-80200285D01*
X187315142Y-79438380D02*
X187362761Y-79390761D01*
X187410380Y-79438380D01*
X187362761Y-79486000D01*
X187315142Y-79438380D01*
X187410380Y-79438380D01*
X187410380Y-78438380D02*
X187410380Y-79009809D01*
X187410380Y-78724095D02*
X186410380Y-78724095D01*
X186553238Y-78819333D01*
X186648476Y-78914571D01*
X186696095Y-79009809D01*
X186743714Y-78009809D02*
X187743714Y-78009809D01*
X187267523Y-77533619D02*
X187362761Y-77486000D01*
X187410380Y-77390761D01*
X187267523Y-78009809D02*
X187362761Y-77962190D01*
X187410380Y-77866952D01*
X187410380Y-77676476D01*
X187362761Y-77581238D01*
X187267523Y-77533619D01*
X186743714Y-77533619D01*
X186886571Y-76628857D02*
X186886571Y-76962190D01*
X187410380Y-76962190D02*
X186410380Y-76962190D01*
X186410380Y-76486000D01*
X187682142Y-65063666D02*
X187729761Y-65111285D01*
X187777380Y-65254142D01*
X187777380Y-65349380D01*
X187729761Y-65492238D01*
X187634523Y-65587476D01*
X187539285Y-65635095D01*
X187348809Y-65682714D01*
X187205952Y-65682714D01*
X187015476Y-65635095D01*
X186920238Y-65587476D01*
X186825000Y-65492238D01*
X186777380Y-65349380D01*
X186777380Y-65254142D01*
X186825000Y-65111285D01*
X186872619Y-65063666D01*
X187205952Y-64492238D02*
X187158333Y-64587476D01*
X187110714Y-64635095D01*
X187015476Y-64682714D01*
X186967857Y-64682714D01*
X186872619Y-64635095D01*
X186825000Y-64587476D01*
X186777380Y-64492238D01*
X186777380Y-64301761D01*
X186825000Y-64206523D01*
X186872619Y-64158904D01*
X186967857Y-64111285D01*
X187015476Y-64111285D01*
X187110714Y-64158904D01*
X187158333Y-64206523D01*
X187205952Y-64301761D01*
X187205952Y-64492238D01*
X187253571Y-64587476D01*
X187301190Y-64635095D01*
X187396428Y-64682714D01*
X187586904Y-64682714D01*
X187682142Y-64635095D01*
X187729761Y-64587476D01*
X187777380Y-64492238D01*
X187777380Y-64301761D01*
X187729761Y-64206523D01*
X187682142Y-64158904D01*
X187586904Y-64111285D01*
X187396428Y-64111285D01*
X187301190Y-64158904D01*
X187253571Y-64206523D01*
X187205952Y-64301761D01*
X188950380Y-63055285D02*
X188950380Y-62960047D01*
X188998000Y-62864809D01*
X189045619Y-62817190D01*
X189140857Y-62769571D01*
X189331333Y-62721952D01*
X189569428Y-62721952D01*
X189759904Y-62769571D01*
X189855142Y-62817190D01*
X189902761Y-62864809D01*
X189950380Y-62960047D01*
X189950380Y-63055285D01*
X189902761Y-63150523D01*
X189855142Y-63198142D01*
X189759904Y-63245761D01*
X189569428Y-63293380D01*
X189331333Y-63293380D01*
X189140857Y-63245761D01*
X189045619Y-63198142D01*
X188998000Y-63150523D01*
X188950380Y-63055285D01*
X189855142Y-62293380D02*
X189902761Y-62245761D01*
X189950380Y-62293380D01*
X189902761Y-62341000D01*
X189855142Y-62293380D01*
X189950380Y-62293380D01*
X189950380Y-61293380D02*
X189950380Y-61864809D01*
X189950380Y-61579095D02*
X188950380Y-61579095D01*
X189093238Y-61674333D01*
X189188476Y-61769571D01*
X189236095Y-61864809D01*
X189283714Y-60864809D02*
X190283714Y-60864809D01*
X189807523Y-60388619D02*
X189902761Y-60341000D01*
X189950380Y-60245761D01*
X189807523Y-60864809D02*
X189902761Y-60817190D01*
X189950380Y-60721952D01*
X189950380Y-60531476D01*
X189902761Y-60436238D01*
X189807523Y-60388619D01*
X189283714Y-60388619D01*
X189426571Y-59483857D02*
X189426571Y-59817190D01*
X189950380Y-59817190D02*
X188950380Y-59817190D01*
X188950380Y-59341000D01*
X204049333Y-63095142D02*
X204001714Y-63142761D01*
X203858857Y-63190380D01*
X203763619Y-63190380D01*
X203620761Y-63142761D01*
X203525523Y-63047523D01*
X203477904Y-62952285D01*
X203430285Y-62761809D01*
X203430285Y-62618952D01*
X203477904Y-62428476D01*
X203525523Y-62333238D01*
X203620761Y-62238000D01*
X203763619Y-62190380D01*
X203858857Y-62190380D01*
X204001714Y-62238000D01*
X204049333Y-62285619D01*
X204382666Y-62190380D02*
X205049333Y-62190380D01*
X204620761Y-63190380D01*
X199072714Y-64222380D02*
X199167952Y-64222380D01*
X199263190Y-64270000D01*
X199310809Y-64317619D01*
X199358428Y-64412857D01*
X199406047Y-64603333D01*
X199406047Y-64841428D01*
X199358428Y-65031904D01*
X199310809Y-65127142D01*
X199263190Y-65174761D01*
X199167952Y-65222380D01*
X199072714Y-65222380D01*
X198977476Y-65174761D01*
X198929857Y-65127142D01*
X198882238Y-65031904D01*
X198834619Y-64841428D01*
X198834619Y-64603333D01*
X198882238Y-64412857D01*
X198929857Y-64317619D01*
X198977476Y-64270000D01*
X199072714Y-64222380D01*
X199834619Y-65127142D02*
X199882238Y-65174761D01*
X199834619Y-65222380D01*
X199787000Y-65174761D01*
X199834619Y-65127142D01*
X199834619Y-65222380D01*
X200834619Y-65222380D02*
X200263190Y-65222380D01*
X200548904Y-65222380D02*
X200548904Y-64222380D01*
X200453666Y-64365238D01*
X200358428Y-64460476D01*
X200263190Y-64508095D01*
X201263190Y-64555714D02*
X201263190Y-65555714D01*
X201739380Y-65079523D02*
X201787000Y-65174761D01*
X201882238Y-65222380D01*
X201263190Y-65079523D02*
X201310809Y-65174761D01*
X201406047Y-65222380D01*
X201596523Y-65222380D01*
X201691761Y-65174761D01*
X201739380Y-65079523D01*
X201739380Y-64555714D01*
X202644142Y-64698571D02*
X202310809Y-64698571D01*
X202310809Y-65222380D02*
X202310809Y-64222380D01*
X202787000Y-64222380D01*
X168997333Y-28664142D02*
X168949714Y-28711761D01*
X168806857Y-28759380D01*
X168711619Y-28759380D01*
X168568761Y-28711761D01*
X168473523Y-28616523D01*
X168425904Y-28521285D01*
X168378285Y-28330809D01*
X168378285Y-28187952D01*
X168425904Y-27997476D01*
X168473523Y-27902238D01*
X168568761Y-27807000D01*
X168711619Y-27759380D01*
X168806857Y-27759380D01*
X168949714Y-27807000D01*
X168997333Y-27854619D01*
X169854476Y-27759380D02*
X169664000Y-27759380D01*
X169568761Y-27807000D01*
X169521142Y-27854619D01*
X169425904Y-27997476D01*
X169378285Y-28187952D01*
X169378285Y-28568904D01*
X169425904Y-28664142D01*
X169473523Y-28711761D01*
X169568761Y-28759380D01*
X169759238Y-28759380D01*
X169854476Y-28711761D01*
X169902095Y-28664142D01*
X169949714Y-28568904D01*
X169949714Y-28330809D01*
X169902095Y-28235571D01*
X169854476Y-28187952D01*
X169759238Y-28140333D01*
X169568761Y-28140333D01*
X169473523Y-28187952D01*
X169425904Y-28235571D01*
X169378285Y-28330809D01*
X168497333Y-33359380D02*
X167925904Y-33359380D01*
X168211619Y-33359380D02*
X168211619Y-32359380D01*
X168116380Y-32502238D01*
X168021142Y-32597476D01*
X167925904Y-32645095D01*
X168925904Y-32692714D02*
X168925904Y-33692714D01*
X169402095Y-33216523D02*
X169449714Y-33311761D01*
X169544952Y-33359380D01*
X168925904Y-33216523D02*
X168973523Y-33311761D01*
X169068761Y-33359380D01*
X169259238Y-33359380D01*
X169354476Y-33311761D01*
X169402095Y-33216523D01*
X169402095Y-32692714D01*
X170306857Y-32835571D02*
X169973523Y-32835571D01*
X169973523Y-33359380D02*
X169973523Y-32359380D01*
X170449714Y-32359380D01*
X135215333Y-71604142D02*
X135167714Y-71651761D01*
X135024857Y-71699380D01*
X134929619Y-71699380D01*
X134786761Y-71651761D01*
X134691523Y-71556523D01*
X134643904Y-71461285D01*
X134596285Y-71270809D01*
X134596285Y-71127952D01*
X134643904Y-70937476D01*
X134691523Y-70842238D01*
X134786761Y-70747000D01*
X134929619Y-70699380D01*
X135024857Y-70699380D01*
X135167714Y-70747000D01*
X135215333Y-70794619D01*
X136120095Y-70699380D02*
X135643904Y-70699380D01*
X135596285Y-71175571D01*
X135643904Y-71127952D01*
X135739142Y-71080333D01*
X135977238Y-71080333D01*
X136072476Y-71127952D01*
X136120095Y-71175571D01*
X136167714Y-71270809D01*
X136167714Y-71508904D01*
X136120095Y-71604142D01*
X136072476Y-71651761D01*
X135977238Y-71699380D01*
X135739142Y-71699380D01*
X135643904Y-71651761D01*
X135596285Y-71604142D01*
X133667714Y-77049380D02*
X133762952Y-77049380D01*
X133858190Y-77097000D01*
X133905809Y-77144619D01*
X133953428Y-77239857D01*
X134001047Y-77430333D01*
X134001047Y-77668428D01*
X133953428Y-77858904D01*
X133905809Y-77954142D01*
X133858190Y-78001761D01*
X133762952Y-78049380D01*
X133667714Y-78049380D01*
X133572476Y-78001761D01*
X133524857Y-77954142D01*
X133477238Y-77858904D01*
X133429619Y-77668428D01*
X133429619Y-77430333D01*
X133477238Y-77239857D01*
X133524857Y-77144619D01*
X133572476Y-77097000D01*
X133667714Y-77049380D01*
X134429619Y-77954142D02*
X134477238Y-78001761D01*
X134429619Y-78049380D01*
X134382000Y-78001761D01*
X134429619Y-77954142D01*
X134429619Y-78049380D01*
X135429619Y-78049380D02*
X134858190Y-78049380D01*
X135143904Y-78049380D02*
X135143904Y-77049380D01*
X135048666Y-77192238D01*
X134953428Y-77287476D01*
X134858190Y-77335095D01*
X135858190Y-77382714D02*
X135858190Y-78382714D01*
X136334380Y-77906523D02*
X136382000Y-78001761D01*
X136477238Y-78049380D01*
X135858190Y-77906523D02*
X135905809Y-78001761D01*
X136001047Y-78049380D01*
X136191523Y-78049380D01*
X136286761Y-78001761D01*
X136334380Y-77906523D01*
X136334380Y-77382714D01*
X137239142Y-77525571D02*
X136905809Y-77525571D01*
X136905809Y-78049380D02*
X136905809Y-77049380D01*
X137382000Y-77049380D01*
D11*
X133945333Y-69459142D02*
X133897714Y-69506761D01*
X133754857Y-69554380D01*
X133659619Y-69554380D01*
X133516761Y-69506761D01*
X133421523Y-69411523D01*
X133373904Y-69316285D01*
X133326285Y-69125809D01*
X133326285Y-68982952D01*
X133373904Y-68792476D01*
X133421523Y-68697238D01*
X133516761Y-68602000D01*
X133659619Y-68554380D01*
X133754857Y-68554380D01*
X133897714Y-68602000D01*
X133945333Y-68649619D01*
X134802476Y-68887714D02*
X134802476Y-69554380D01*
X134564380Y-68506761D02*
X134326285Y-69221047D01*
X134945333Y-69221047D01*
D13*
X132469142Y-64049619D02*
X132516761Y-64002000D01*
X132612000Y-63954380D01*
X132850095Y-63954380D01*
X132945333Y-64002000D01*
X132992952Y-64049619D01*
X133040571Y-64144857D01*
X133040571Y-64240095D01*
X132992952Y-64382952D01*
X132421523Y-64954380D01*
X133040571Y-64954380D01*
X133421523Y-64049619D02*
X133469142Y-64002000D01*
X133564380Y-63954380D01*
X133802476Y-63954380D01*
X133897714Y-64002000D01*
X133945333Y-64049619D01*
X133992952Y-64144857D01*
X133992952Y-64240095D01*
X133945333Y-64382952D01*
X133373904Y-64954380D01*
X133992952Y-64954380D01*
X134421523Y-64287714D02*
X134421523Y-65287714D01*
X134421523Y-64335333D02*
X134516761Y-64287714D01*
X134707238Y-64287714D01*
X134802476Y-64335333D01*
X134850095Y-64382952D01*
X134897714Y-64478190D01*
X134897714Y-64763904D01*
X134850095Y-64859142D01*
X134802476Y-64906761D01*
X134707238Y-64954380D01*
X134516761Y-64954380D01*
X134421523Y-64906761D01*
X135659619Y-64430571D02*
X135326285Y-64430571D01*
X135326285Y-64954380D02*
X135326285Y-63954380D01*
X135802476Y-63954380D01*
D11*
X133945333Y-63109142D02*
X133897714Y-63156761D01*
X133754857Y-63204380D01*
X133659619Y-63204380D01*
X133516761Y-63156761D01*
X133421523Y-63061523D01*
X133373904Y-62966285D01*
X133326285Y-62775809D01*
X133326285Y-62632952D01*
X133373904Y-62442476D01*
X133421523Y-62347238D01*
X133516761Y-62252000D01*
X133659619Y-62204380D01*
X133754857Y-62204380D01*
X133897714Y-62252000D01*
X133945333Y-62299619D01*
X134278666Y-62204380D02*
X134897714Y-62204380D01*
X134564380Y-62585333D01*
X134707238Y-62585333D01*
X134802476Y-62632952D01*
X134850095Y-62680571D01*
X134897714Y-62775809D01*
X134897714Y-63013904D01*
X134850095Y-63109142D01*
X134802476Y-63156761D01*
X134707238Y-63204380D01*
X134421523Y-63204380D01*
X134326285Y-63156761D01*
X134278666Y-63109142D01*
D13*
X132469142Y-57699619D02*
X132516761Y-57652000D01*
X132612000Y-57604380D01*
X132850095Y-57604380D01*
X132945333Y-57652000D01*
X132992952Y-57699619D01*
X133040571Y-57794857D01*
X133040571Y-57890095D01*
X132992952Y-58032952D01*
X132421523Y-58604380D01*
X133040571Y-58604380D01*
X133421523Y-57699619D02*
X133469142Y-57652000D01*
X133564380Y-57604380D01*
X133802476Y-57604380D01*
X133897714Y-57652000D01*
X133945333Y-57699619D01*
X133992952Y-57794857D01*
X133992952Y-57890095D01*
X133945333Y-58032952D01*
X133373904Y-58604380D01*
X133992952Y-58604380D01*
X134421523Y-57937714D02*
X134421523Y-58937714D01*
X134421523Y-57985333D02*
X134516761Y-57937714D01*
X134707238Y-57937714D01*
X134802476Y-57985333D01*
X134850095Y-58032952D01*
X134897714Y-58128190D01*
X134897714Y-58413904D01*
X134850095Y-58509142D01*
X134802476Y-58556761D01*
X134707238Y-58604380D01*
X134516761Y-58604380D01*
X134421523Y-58556761D01*
X135659619Y-58080571D02*
X135326285Y-58080571D01*
X135326285Y-58604380D02*
X135326285Y-57604380D01*
X135802476Y-57604380D01*
X131405333Y-71604142D02*
X131357714Y-71651761D01*
X131214857Y-71699380D01*
X131119619Y-71699380D01*
X130976761Y-71651761D01*
X130881523Y-71556523D01*
X130833904Y-71461285D01*
X130786285Y-71270809D01*
X130786285Y-71127952D01*
X130833904Y-70937476D01*
X130881523Y-70842238D01*
X130976761Y-70747000D01*
X131119619Y-70699380D01*
X131214857Y-70699380D01*
X131357714Y-70747000D01*
X131405333Y-70794619D01*
X131786285Y-70794619D02*
X131833904Y-70747000D01*
X131929142Y-70699380D01*
X132167238Y-70699380D01*
X132262476Y-70747000D01*
X132310095Y-70794619D01*
X132357714Y-70889857D01*
X132357714Y-70985095D01*
X132310095Y-71127952D01*
X131738666Y-71699380D01*
X132357714Y-71699380D01*
X130905333Y-78049380D02*
X130333904Y-78049380D01*
X130619619Y-78049380D02*
X130619619Y-77049380D01*
X130524380Y-77192238D01*
X130429142Y-77287476D01*
X130333904Y-77335095D01*
X131333904Y-77382714D02*
X131333904Y-78382714D01*
X131810095Y-77906523D02*
X131857714Y-78001761D01*
X131952952Y-78049380D01*
X131333904Y-77906523D02*
X131381523Y-78001761D01*
X131476761Y-78049380D01*
X131667238Y-78049380D01*
X131762476Y-78001761D01*
X131810095Y-77906523D01*
X131810095Y-77382714D01*
X132714857Y-77525571D02*
X132381523Y-77525571D01*
X132381523Y-78049380D02*
X132381523Y-77049380D01*
X132857714Y-77049380D01*
X147153333Y-63363142D02*
X147105714Y-63410761D01*
X146962857Y-63458380D01*
X146867619Y-63458380D01*
X146724761Y-63410761D01*
X146629523Y-63315523D01*
X146581904Y-63220285D01*
X146534285Y-63029809D01*
X146534285Y-62886952D01*
X146581904Y-62696476D01*
X146629523Y-62601238D01*
X146724761Y-62506000D01*
X146867619Y-62458380D01*
X146962857Y-62458380D01*
X147105714Y-62506000D01*
X147153333Y-62553619D01*
X148105714Y-63458380D02*
X147534285Y-63458380D01*
X147820000Y-63458380D02*
X147820000Y-62458380D01*
X147724761Y-62601238D01*
X147629523Y-62696476D01*
X147534285Y-62744095D01*
X145605714Y-57858380D02*
X145700952Y-57858380D01*
X145796190Y-57906000D01*
X145843809Y-57953619D01*
X145891428Y-58048857D01*
X145939047Y-58239333D01*
X145939047Y-58477428D01*
X145891428Y-58667904D01*
X145843809Y-58763142D01*
X145796190Y-58810761D01*
X145700952Y-58858380D01*
X145605714Y-58858380D01*
X145510476Y-58810761D01*
X145462857Y-58763142D01*
X145415238Y-58667904D01*
X145367619Y-58477428D01*
X145367619Y-58239333D01*
X145415238Y-58048857D01*
X145462857Y-57953619D01*
X145510476Y-57906000D01*
X145605714Y-57858380D01*
X146367619Y-58763142D02*
X146415238Y-58810761D01*
X146367619Y-58858380D01*
X146320000Y-58810761D01*
X146367619Y-58763142D01*
X146367619Y-58858380D01*
X147367619Y-58858380D02*
X146796190Y-58858380D01*
X147081904Y-58858380D02*
X147081904Y-57858380D01*
X146986666Y-58001238D01*
X146891428Y-58096476D01*
X146796190Y-58144095D01*
X147796190Y-58191714D02*
X147796190Y-59191714D01*
X148272380Y-58715523D02*
X148320000Y-58810761D01*
X148415238Y-58858380D01*
X147796190Y-58715523D02*
X147843809Y-58810761D01*
X147939047Y-58858380D01*
X148129523Y-58858380D01*
X148224761Y-58810761D01*
X148272380Y-58715523D01*
X148272380Y-58191714D01*
X149177142Y-58334571D02*
X148843809Y-58334571D01*
X148843809Y-58858380D02*
X148843809Y-57858380D01*
X149320000Y-57858380D01*
M02*
